<?xml version="1.0" encoding="UTF-8"?>
<svg id="Layer_1" data-name="Layer 1" xmlns="http://www.w3.org/2000/svg" viewBox="0 0 360.85 272.94">
  <defs>
    <style>
      .cls-1 {
        font-family: AnonymousPro, 'Anonymous Pro';
      }

      .cls-1, .cls-2, .cls-3, .cls-4, .cls-5 {
        fill: #fff;
      }

      .cls-1, .cls-4 {
        font-size: 12px;
      }

      .cls-2 {
        stroke-width: .6px;
      }

      .cls-2, .cls-6, .cls-7, .cls-3 {
        stroke-linejoin: round;
      }

      .cls-2, .cls-7, .cls-3, .cls-5 {
        stroke: #fff;
      }

      .cls-6 {
        stroke: #ffe339;
      }

      .cls-6, .cls-7 {
        fill: none;
        stroke-width: 1.5px;
      }

      .cls-6, .cls-7, .cls-5 {
        stroke-linecap: square;
      }

      .cls-3, .cls-5 {
        stroke-width: .8px;
      }

      .cls-4 {
        font-family: SourceCodePro-Medium, 'Source Code Pro';
      }
    </style>
  </defs>
  <path class="cls-7" d="M25.3,207.02l.08-.99,.08,.73,.08-2.06,.17,2.11,.08-2.39,.08,1.1,.08,3.27,.08-.36,.17-3.54,.08,1.56,.08-.05,.08-.42,.08,1.04,.08-1.3,.08,3.08,.08-4.59,.08,1.14,.08,.64,.17,2.53,.17-2.69,.08,.15,.08,1.35,.17-2.32,.08,4.24,.17-3.94,.08,1.14,.08-.57,.08,.73,.08-2.56,.08,5.04,.08-2.35,.08,2.15,.08-.37,.08-1.2,.08,1.22,.08-4.35,.08,.09,.08,3.29,.08-1.63,.08,.57,.08-1.52,.08,1.01,.08,3.37,.08-4.11,.08,.09,.08,1.28,.17-2.15,.08,2.07,.08-.45,.08-2.09,.08,3.75,.08-.14,.08,.76,.08-3.84,.08,.81,.08,3.44,.08-4.71,.08,1.35,.08-.64,.08,4.32,.17-3.5,.08,.84,.17-1.48,.08,2.39,.08-2.55,.08,3.69,.08-.58,.08,1.22,.25-4.1,.17,1.98,.08-1.16,.08,3.22,.08-.69,.17-2.48,.08-.71,.08,2,.25-3.02,.08,4.03,.25-4.22,.08,4.29,.08-1.73,.08,.95,.08-.97,.17,2.57,.08-2.82,.17,2.1,.08-.76,.08,1.48,.08-75.24,.08,6.76,.08-4.27,.08,7.17,.08-8.79,.08,7.68,.08-1.66,.08,1.5,.08-4.42,.25,10.75,.08-21.61,.08,2.44,.08,8.21,.25-15.26,.08,15.67,.17-15.59,.08,3.64,.08,7.48,.08-11.59,.08,4.77,.08-.11,.08-10.23,.08,.63,.17,17.26,.08-3.96,.17,6.52,.17-19.69,.08,1.49,.25,18.05,.08-4.51,.08,4.1,.08-15.69,.08,13.09,.08-15.55,.08,4.85,.17,10.44,.17-16.09,.33,12.7,.08-14.81,.25,12.39,.08-4.19,.17,12.68,.17-19.42,.17,18.22,.08-17.24,.17,13.8,.08-1.15,.08-6.03,.08,.7,.08,1.15,.08-4.87,.08,8.63,.08-10.02,.08,13.06,.08-13.07,.08,2.56,.08-.42,.08,4.34,.08-3.99,.08,12.64,.08-16.61,.08,17.13,.08-2.01,.17-12.71,.08,14.27,.17-19.31,.17,10.6,.08-5.6,.08,8.89,.08-3.55,.17-9.95,.08,.62,.17,14.95,.17-4.49,.08,2.74,.08-1.29,.17-8.36,.08,.58,.08-1.7,.08,16.84,.08,58.39,.08-6.39,.25,6.34,.33-7.44,.08,3.59,.08-.39,.08-2.48,.17,15.68,.08-2.34,.08,.69,.08-.72,.08,4.16,.17-3.76,.08,4.41,.08-4.12,.08,3.69,.08-3.77,.17,6.13,.17-2.69,.08,.26,.08,1.14,.08-2.6,.25,4.61,.08-4.74,.08,4.1,.17-2.9,.08,3.18,.08-1.69,.08,1.55,.08-2.81,.08,1.06,.17-1.79,.08,1.33,.08-.41,.17,1.94,.17-2.82,.17,3.2,.17-.65,.08,1.95,.08-2.29,.08,.02,.08-.51,.08,1.22,.25-3.17,.17,4.91,.08-4.99,.08,1.42,.17,3.01,.08,.02,.08-.13,.08,.66,.08-4.6,.08,1.94,.17-1.55,.08,.2,.17-.95,.08,2.84,.08-2.75,.08,1.22,.08,3.51,.17-3.31,.08-1.18,.08,2.87,.08-1.14,.08,3.08,.08-1.72,.08,1.45,.17-4.06,.08,3.29,.08-1.73,.17,2.19,.08-2.1,.08,2.32,.08-2.73,.08,2.99,.08-.41,.17-2.61,.08,3.03,.17-4.36,.08,.63,.08,3.18,.17-2.91,.08,3.42,.17-4.68,.33,1.47,.08-.24,.08-.69,.17,2.58,.08-.26,.08-2.8,.08,4.73,.17-5.05,.08,1.34,.08-1.55,.17,5.16,.08-4.27,.08,2.92,.08-.87,.17,.96,.33-2.93,.17,3.23,.17-2.46,.08-1.24,.08,4.76,.08-4.5,.25,4.1,.08-1.84,.08,1.1,.08-.14,.17-3,.08,.37,.25,1.7,.08-2.93,.25,4,.08-2.05,.08,.48,.08,2.77,.08-4.43,.08,.68,.08,.23,.08,3.19,.17-4.66,.08,.39,.17,3.8,.33-4.36,.08,3.25,.17-72.58,.08,15.73,.08-16.74,.08,5.27,.08-5.07,.17,16.48,.08-8.19,.08,.69,.08,2.18,.17-22.73,.08,3.36,.08,10.41,.08-11.93,.08,.15,.08,6.3,.08-10.43,.08,15.82,.08-2.1,.08,4.26,.08-15.29,.08,3.63,.25,9.8,.17-8.84,.08,4.41,.08-.25,.08-13.19,.08,7.71,.08-4.58,.08,14.84,.17-10,.17,7.72,.17-17.61,.08,18.5,.08-5.81,.08-13.1,.08,18.81,.17-19.11,.08-.13,.17,17.43,.08-.85,.17-15.27,.08,6.54,.08-3.41,.08,.56,.08,1.68,.08-3.56,.25,12.68,.08-10.91,.17,9.67,.08-10.92,.08,2.26,.08-5.18,.08,16.61,.08-10.41,.08,8.72,.08-14.19,.08,17.31,.17-14.89,.08,9.39,.08-12.9,.08,2.23,.17,18.15,.33-20.65,.08,19.3,.17-10.29,.08,9.8,.08-6.13,.08,1.3,.25-8.32,.08,12.2,.08-14.55,.08,2.89,.08-4.53,.08,9.46,.08-9.57,.08,.61,.17,10.43,.08-11.87,.08,4.68,.08-4.59,.17,6.86,.08,10.62,.08-3.78,.17,61.64,.08,1.95,.17-5.52,.08,3.86,.08-.11,.08-1.47,.08,3.85,.08-6.61,.08,4.07,.08-4.62,.17,14.99,.08,2.03,.08-1.15,.17,1.07,.08-3.07,.08,2.2,.08-2.1,.08,4.38,.08-.22,.08-5.04,.17,5.41,.08-.07,.08,1.7,.08-2.77,.08,3.49,.25-4.57,.17,4.28,.08-2.4,.08,3.13,.08-.61,.08,.93,.08-2.61,.08,2.32,.17-4.59,.08,1.15,.08,3.47,.08-.79,.17-3.63,.08,4.75,.08-4.2,.08,1.35,.08,.08,.08-2.22,.08,1.13,.08-.55,.08,2.67,.17-1.41,.08,1.58,.08-1.34,.17,2.32,.25-4.16,.08,2.47,.08-1,.08,2.91,.08-4.31,.08,1.81,.17-1.22,.08,2.9,.17-3.79,.08,4.69,.17-4.7,.08,3.56,.17-3.41,.08,1,.08,2.78,.08-.55,.08,1.6,.17-4.38,.25,4.16,.08-3.64,.08,.14,.08-1,.08,.98,.08-.53,.17,1.07,.08,1.1,.08-2.56,.25,4.4,.17-2.48,.17,1.74,.08-1.65,.08,1.92,.08-3.39,.25,3.51,.25-3.56,.08,.2,.08,2.94,.08-2.12,.08,2.01,.08-4.01,.08,.19,.08,2.09,.17-1.28,.17,.55,.08-1.39,.08,1.95,.08-.21,.08-1.15,.08,.97,.08-.34,.08,2.68,.08-.74,.08,1.21,.25-4.57,.08,2.08,.08-.94,.08,2.43,.08-2.68,.08,1.16,.08-.44,.08,2.17,.17-1.83,.08,.24,.08-1.75,.08,.09,.08-.39,.08,1.63,.08-1.64,.08,.75,.08,3.02,.08-.84,.17,2.28,.08-.99,.08,.99,.08-3.85,.17,2.19,.17-2.8,.08-.77,.25,3.61,.17,.5,.08-1.06,.08-3.13,.08,5.33,.08-1.06,.08,.05,.08-2.84,.08,1.96,.08-.56,.08,1.66,.08-64.72,.08,5.52,.08-7.86,.08,7.96,.08-12.67,.08,4.1,.08-2.88,.25,11.45,.33-25.29,.08-1.92,.08,1.71,.08,12.67,.08-9.98,.08,11.31,.08-12.83,.17,11.74,.08-15.23,.25,15.02,.17-19.09,.08,6.99,.08-8.03,.08,17.87,.17-14.16,.17,15.13,.17-11.67,.17-3.21,.08-.21,.08,2.31,.08,9.62,.25-15.86,.08,18.8,.08-9.82,.17,6.57,.17-8.19,.08,12.83,.17-17.43,.08-3.13,.08,16.89,.08-8.91,.17,5.59,.17-9.65,.08,16.34,.08-20.37,.08,3.43,.08,1.26,.08-.2,.08,7.99,.08-7.8,.08,7.85,.08-11.02,.08,15.53,.08-2.48,.08-5.58,.08,5,.17-3.73,.08-7.83,.25,13.1,.25-10.73,.08,13.45,.08-2.17,.08-3.4,.08,.41,.08-.67,.08-8.65,.08,10.1,.17-6.45,.08,8.43,.08-10.47,.17,5.85,.08-7.81,.08,12.19,.08-13.77,.08,6.93,.08-1.04,.08-5.72,.08,1.24,.08,4.65,.08-3.26,.08,6.88,.08-2.45,.08,10.45,.08,58.68,.08-6.37,.08,6.63,.08-.94,.08-5.39,.08,6.84,.33-6.68,.08,2.34,.08-.03,.17,13,.08-.66,.08-1.74,.25,5.39,.08-3.68,.08,3.52,.17-4.67,.08,1.53,.08,4.15,.08-2.85,.08,2.85,.08-2.55,.08,.68,.08,2.43,.08-4.05,.08,3.88,.08-4.35,.08,5.41,.08-1.41,.08,.35,.08,1.49,.08-3.88,.08,.21,.08-.53,.08,2.9,.17-2.18,.08,1.19,.08-1.39,.08,.34,.08,2.81,.08-3.6,.08,.43,.08,.35,.08,2.7,.08-.61,.08-.67,.17,.89,.08-3.11,.08,.9,.08,.39,.08,1.83,.08-3.73,.08,3.93,.17-4.17,.08,1.29,.08-1.43,.25,4.25,.08-.65,.08,1.71,.08-3.63,.08,2.22,.08-2.94,.08,2.45,.08-.65,.08-2.61,.08,3.89,.17-2.76,.08,2.87,.08-1.51,.08,.81,.08-2.27,.17,1.59,.08-1.63,.08,2.93,.17-3.39,.08-.07,.08,.51,.08,2.02,.08-3.09,.08,3.24,.08-1.39,.08,2.57,.08-4.41,.08,1.49,.08-.27,.08,3.7,.17-3.81,.08,.55,.08,2.04,.08-1.06,.08,2.04,.08-1.94,.08,1.23,.08-.57,.08,1,.08-.36,.08,.83,.08-4.54,.17,2.82,.25-2.83,.08,4,.08-.63,.08-3.66,.17,5.13,.08-.67,.08,.65,.08-5.18,.08,3.83,.17-3.86,.17,5.18,.08-.26,.08-2.15,.08,.41,.08-1.08,.08,.9,.08-2.66,.08,2.15,.17-1.95,.08,4.03,.08-.45,.08,.66,.08-.17,.08-2.01,.08,1.03,.08-.55,.08-3.01,.08,4.44,.08-2.07,.08,2.38,.25-4.56,.17,4.74,.08-1.74,.08,1.3,.08-.45,.08-2.09,.08,2.96,.17-2.92,.17,3.18,.08-5.2,.08,3.33,.08-2.21,.08,2.44,.08-.8,.17,.71,.08,1.73,.17-4.67,.08,1.07,.08,2.93,.17-4.02,.08,1.03,.17-70.22,.08,10.36,.08-2.79,.08-1.32,.17-7.42,.08,.04,.08,16.86,.08-16.72,.08,15.87,.08-3.87,.08-17.51,.08,.73,.08-2.61,.08,2.62,.08-9.5,.08,14.49,.08-.7,.08-13.5,.08,17.62,.17-12.63,.08,3.68,.08-6.62,.08,11.16,.08-14.55,.08,15.25,.08-5.58,.08,6.96,.25-18.53,.17,8.56,.08-8.38,.08,9.2,.08-1.78,.08-.75,.08,4,.08-9.21,.08,14.04,.25-15.45,.08,.43,.08,8.07,.08-2.89,.08,5.25,.08-1.59,.17-9.95,.08,.76,.08,16.29,.17-17.43,.08,12.63,.08-3.39,.08-5.6,.08,4.67,.08-9.31,.08,11.57,.17-7.25,.08,6.42,.08-7.81,.25,16.12,.25-17.51,.08,14.41,.08-2.23,.08,4.33,.17-17.35,.17,7.38,.08,1.37,.08,10.01,.08-13.8,.08,2.74,.08-1.28,.08-5.11,.17,2.54,.17-4.5,.17,18.96,.17-14.61,.08,16.35,.08-.63,.08-.22,.08-14.29,.25,13.46,.08-13.49,.17,10.05,.08-8.33,.08,2.01,.08,4.23,.08-6.01,.08,7.97,.17,61.98,.08,.61,.08-5.37,.08,.64,.17,5.09,.08-6.22,.08,.53,.08,3.87,.08-2.85,.25,17.18,.17-.34,.08-2.41,.08,.32,.08-.14,.08,2.4,.17-4.29,.08,2.34,.08-2.09,.08,4.6,.08-.3,.08-.77,.08-2.13,.17,5.06,.25-5.27,.17,2.87,.08-.97,.08,1.01,.08-.42,.08-1.3,.25,2.23,.08-.96,.25,3.37,.17-2.55,.08-1.7,.08,2.93,.08-1.31,.17,2.25,.08-4.6,.08,.56,.08,4.18,.08-3.45,.08,2,.08-3.49,.17,4.09,.17-3.21,.08,3.46,.08-2.78,.08,3.49,.08-4.62,.08,4.51,.08-4.48,.17,2.51,.17-2.91,.17,4.65,.17-2.16,.08,.08,.08-.3,.08,2.96,.17-3.73,.08,3.21,.08-2.45h.08s.08-.6,.08-.6l.08,3.21,.08-2.91,.08,1.86,.17-2.65,.08,.36,.08,3.16,.17-4.57,.08,4.37,.08-3.75,.08,.81,.08-.38,.08,2.65,.08-.03,.08-3.33,.17,4.54,.08-2.89,.08,2.56,.08-3.61,.08,.83,.08-1.25,.08,.48,.08,3.62,.17-3.56,.08,1.92,.08-2.99,.08,1.27,.08,3.88,.08-4.65,.08,4.19,.08-.21,.17-3.9,.17,3.1,.08-.34,.08,.05,.08,.09,.08,.45,.17-3.54,.17,3.84,.08-3.51,.08,.52,.08-1.02,.17,4.23,.17-2.53,.08,.72,.08-.64,.08,2.25,.17-2.57,.08,1.21,.08-1.33,.17,1.86,.08,.16,.08-.58,.08,2.09,.17-4.42,.17,4.3,.08-5.06,.17,4.63,.17-3.29,.08,2.39,.08-1.51,.17,2.46,.17-3.27,.08,.61,.08,2.65,.08-.23,.17-3.5,.08,2.5,.08-1.32,.08,2.29,.08-.76,.08,1.57,.08-4.02,.08,1.98,.08-2.23,.08,.58,.08-69.46,.08,9.94,.08,1.84,.08-14.39,.08,4.66,.08-2.14,.08,15.02,.17-13.35,.08,12.16,.08-8.95,.08,2.53,.25-9.72,.08,3.61,.08-10.85,.08,8.12,.08-.74,.08-12.96,.17,10.57,.17-10.8,.08,16.13,.17-12.53,.08,6.25,.17-13.97,.08,.6,.17,15.34,.08-15.64,.17,16.03,.08-11.21,.17,9.45,.08-13.16,.17,17.52,.17-11.66,.08,10.4,.25-15.6,.08,13.21,.08-12.64,.08,12.53,.08-9.51,.17,12.09,.08-12.9,.17,11.57,.17-10.26,.17,10.09,.08,3.74,.08-9.94,.08,.93,.17,8.07,.17-15.81,.08,1.57,.08-3.13,.08,18.32,.08-20.59,.08,13.45,.08-13.97,.08,15.88,.08-4.71,.08,2.53,.08-.04,.08-10.47,.08,2.06,.08-5.29,.25,19.42,.08-19.51,.08,9.58,.08-3.21,.08,6.32,.08-3.03,.08-8.5,.08,16.71,.08-2.71,.08,3.02,.08-13.78,.08,15.72,.08-.42,.17-9.31,.08,2.32,.08,7.78,.08-19.64,.08,.1,.08,14.5,.08-9.73,.17,10.63,.08-.53,.08-4.93,.17,66.18,.08-4.44,.08,2.81,.08-1.49,.08,4.01,.08-2.96,.08,1.86,.17-3.98,.08,.1,.08,3.57,.08,10.49,.08-1.49,.17,4.78,.08-3.2,.08,3.46,.08-4.62,.25,4.91,.17-5.1,.08,7.65,.08-2.5,.08-2.52,.08,2.96,.08-.18,.08-.83,.08,.64,.17,2.45,.17-4.97,.08,4.49,.08-.09,.08-.86,.08-2.37,.08,2.92,.08-3.31,.08,4.47,.08-4.79,.08,2.06,.08-.53,.08,1.57,.08-2.24,.17,4.06,.17-4.33,.08,.53,.25,3.37,.08-3.83,.08,.29,.17,1.73,.08-2.68,.08,.48,.17,2.73,.08-1.33,.08,.23,.17,1.45,.17-1.44,.17,1.67,.08-2.68,.17,3.74,.08-1.62,.08-2.78,.08,.7,.08,2.32,.08-3.31,.08,4.64,.08-4.76,.17,5.12,.08-2.29,.08,.4,.25-2.6,.08,2.37,.08-.15,.17,2.06,.08-3.19,.08,3.1,.08-3.6,.08,1.05,.08,1.83,.08-1.83,.08,1.92,.17-3.32,.17,3.5,.08-3.09,.08,2.89,.08-2.97,.17,1.53,.08-2.14,.08,.77,.08,3.64,.17-4.51,.08,4.59,.17-3.82,.08,.57,.08-.75,.08,.19,.08,.18,.08-.7,.17,2.26,.08-.37,.17-2.18,.08,3.25,.08-.38,.08-3.17,.17,4.05,.17-4.37,.17,1.32,.08,2.89,.08-3.59,.08,1.89,.08-1.96,.17,4.45,.08-2.23,.08,1.11,.17-3.7,.08,1.43,.08-1.05,.08,2.33,.17-2.1,.17,1.8,.17-1.04,.08,2.41,.17-3.75,.08,2.61,.17-1.46,.17,1.02,.08-1.8,.17,4.42,.08-4.22,.08,.92,.08-.94,.17,4.4,.08-4.86,.08,4.23,.17-3.63,.08,.62,.08,3.11,.17-4.08,.17,2.56,.08-63.99,.08,6.6,.08-14.81,.08,.42,.08-2.36,.08,7.55,.08-3.04,.08,10.04,.08-8.5,.08,.33,.25-19.33,.17,1.46,.08,16.81,.08-16.33,.08,4.98,.17,11.5,.08-12.97,.08,7.3,.17-7.38,.08-7.6,.08,1.85,.17,9.36,.08,3.17,.08-2.84,.08,5.59,.08-18.4,.17,18.04,.25-9.19,.08,10.69,.08-19.68,.17,20.09,.08-1.3,.08-10.83,.17,11.58,.17-12.49,.08,10.98,.17-6.68,.08,5.56,.08-7.46,.17,9.89,.08-10.18,.17,9.13,.17-17.64,.08,4.11,.25-5.37,.33,17.02,.17-17.5,.08,11.35,.08-5.52,.17,6.27,.08,.47,.08-2.03,.08,2.96,.17-10.92,.08-.19,.08,14.1,.08-14.38,.17,12.63,.08-8.98,.17,14.5,.17-14.39,.08,8.49,.17-7.17,.17-5.1,.17,15.73,.25-11.78,.08,15.08,.17-16.5,.08,2.35,.17-3.03,.08,.62,.08,2.17,.08,5.22,.08-11.71,.17,77.54,.08-.78,.17-5.44,.17,7.25,.17-7.17,.08,5.5,.08-.87,.08-2.44,.08,15.32,.08-3.3,.17,5.06,.17-1.5,.17,1.33,.08-4.16,.08,3.56,.08-4.52,.25,6.59,.08-.08,.08-1.84,.08,.08,.08-1.15,.08,.06,.08,.48,.08,1.22,.08-2.43,.08,1.48,.08-2.03,.08,1.49,.08,4.19,.25-3.66,.08,.93,.08-1.27,.17,3.26,.08,.7,.17-3.43,.08,2.06,.08-1.55,.08,3.02,.08-.25,.08-3.24,.08,1.8,.17-2.5,.08-.11,.08,3.66,.25-3.22,.08-.06,.17,3.19,.17-2.95,.17,3.42,.08-3.29,.17,2.96,.08,.1,.17-2.39,.17,3.08,.08-.41,.17-3.03,.08,3.02,.08-2.49,.08,2.37,.08-.49,.08,.21,.08,.56,.08-3.25,.08,1.12,.08-1.98,.08,3.94,.08-.25,.08-.87,.08-2.47,.08,2.48,.08-.55,.17,1.77,.08-4.62,.08,2.1,.08-1.29,.17,1.47,.08,2.28,.08-2.98,.08,2.62,.25-3.37,.17,.6,.08,2.81,.08-1.06,.08,1.63,.17-4.89,.17,4.65,.17-4.14,.17,4.36,.08-4.99,.08,.78,.08,3.75,.08-4.25,.17,2.96,.08-.48,.08-2.01,.08,.94,.08,3.23,.08-4.83,.08,4.36,.08-3.22,.08,.59,.17,2.5,.08-3.76,.08,2.42,.08-1.26,.08,.81,.08-1.2,.17,2.37,.08-.41,.08-2.67,.17,3.47,.08-3.88,.08,.74,.08,3.99,.08-5.08,.08,1.64,.08,2.88,.08-.41,.17-2.92,.08,2.91,.08-.1,.08-.27,.08-1.57,.17,2.66,.17-3.63,.17,2.23,.08-.37,.08,.23,.08-3.08,.08,1.03,.08,3.01,.08-.95,.17-1.23,.08,.78,.08-1.84,.08,.23,.08,1.41,.08-1.88,.08,.56,.17-71.57,.08,12.62,.08-.02,.08-11.37,.08,2.14,.08-2.82,.08,15.8,.08-10.33,.08,8.84,.08-6.57,.08,6.37,.25-21.93,.17,10.96,.08-4.54,.08,3.21,.08-16.13,.08,12.98,.08-.29,.08-10.56,.08,4.01,.08-3.99,.08,1.59,.08-6.64,.08,15.81,.08-16.73,.08,3.38,.08,5.18,.08-1.57,.08,.29,.08,12.63,.08-3.41,.08-15.91,.17,11.97,.08-8.25,.17,16.1,.08-15.54,.08,.09,.08,12.19,.08-17.02,.08,15.75,.08-5.03,.08,7.37,.08-10.61,.17,5.38,.08-10.2,.08,17.59,.08-16.96,.08,4.87,.08-8.92,.25,20.13,.08-17.91,.08,.88,.08,10.66,.08-5.86,.08,2.76,.08-10.28,.08,.37,.08-.73,.08,2.53,.08-.93,.08,14.9,.08-13.21,.08,2.63,.08-5.47,.17,18.89,.17-12.94,.08,10.04,.17-8.14,.25,10.02,.08-17.38,.08,4.09,.08,16.13,.08-16.45,.08,.56,.08,15.71,.17-12.85,.08,3.31,.08-7,.17,13.43,.08-17.7,.08,15.81,.08-10.24,.08,12.37,.08-4,.08-2.43,.08,5.38,.08-5.55,.08,6.3,.17-10.9,.08,12.94,.08-17.41,.08,75.27,.08-.35,.08-3.75,.25,4.59,.08-5.83,.08,1.62,.08,4.15,.17-5.81,.08,2.08,.08,15.86,.08-1.59,.08,.78,.17-3.62,.17,2.47,.08-2.84,.25,3.88,.08-2.08,.17,3.8,.08-3.27,.08,.6,.33,3.84,.08-.67,.08-2.58,.08,1.76,.08-2.36,.08,4.53,.17-2.7,.08,.7,.17-2.56,.08,4.72,.08-.08h.08s.08-2.98,.08-2.98l.08,1.67,.08-1.95,.08,1.87,.17-1.96,.25,3.67,.17-2.46,.08,.45,.17-2.39,.08,.46,.08,2.43,.08-1.84,.17,2.61,.08-.59,.08,1.46,.25-4.76,.08,3.46,.08-3.17,.17,3.83,.17-2.59,.08,3.38,.08-.95,.08-1.26,.08,.67,.08-2.05,.17,2.97,.08-3.95,.08,3.24,.17-2.62,.08-.99,.08,2.5,.08-.63,.08,1.51,.08-1.85,.17,1.29,.08-2.25,.08,4.33,.08-4.48,.08,.16,.17,1.95,.08,.69,.08-3.4,.08,4.75,.25-4.43,.17,1.56,.08,2.84,.08-1.38,.08,1.26,.08-3.99,.08,.71,.08-.04,.17,1.35,.08,1.92,.08-.97,.08,1.04,.08-3.16,.08,3.04,.08-2.92,.08,.05,.17,3,.25-3.04,.08,3.16,.08-3.85,.08,.37,.08,3.09,.08-2.87,.08,.27,.08-.43,.17,3.18,.17-1.12,.08-2.3,.08,.3,.08-1.01,.17,4.92,.08-3.7,.08,2.26,.08-.29,.08-1.14,.08,2.39,.08-2.91,.08,1.71,.17-2.74,.08,3.57,.08-4.09,.08,2.15,.08-2.11,.08,3.85,.08-2.14,.08,1.08,.08-1.99,.17,1.51,.08-2.25,.17,3.73,.17-2.17,.08,1,.08-.26,.08-2.54,.08,1.22,.08,3.35,.08-.55,.08-4.11,.08,1.34,.08-1.01,.08,3.29,.08-2.36,.08,.15,.08,2.26,.17-68.01,.08,2.68,.17-6.43,.08-.32,.08,.86,.17,7.72,.08-8.23,.17,10.7,.08-17.71,.08,7.63,.08-11.48,.17,9,.08-14.53,.08,3.75,.08-.21,.08,3.41,.08-4.5,.17,5.02,.08-10.39,.08,16.46,.08-16.08,.08,11.59,.08-2.72,.08,8.68,.25-18.72,.17,.67,.08,13.22,.08-14.32,.08,11.52,.08-8.52,.08,13.66,.17-16.12,.08,.41,.08,5.66,.08-2.45,.08,13.36,.08-11.72,.08,2.23,.08,11.22,.08-.46,.08,.1,.08-13.25,.08,12.54,.08-7.02,.08,2.38,.17-7.52,.08,.47,.25,6.15,.08-9.99,.17,12.97,.08-10.42,.08,8.25,.08-10.49,.08,11.17,.08-8.05,.08,14.14,.33-19.85,.08,10.89,.08-7.83,.08,2.69,.08-5.76,.08,3.36,.08,15.79,.08-13.68,.08,3.83,.08,11.17,.08-5.06,.17-14.52,.08,2.74,.08-3.94,.08,3.77,.08,17.14,.08-5.98,.08,5.54,.08-1.37,.17-8.81,.17-7.71,.08,5.29,.08-6.71,.08,9.21,.08-8.37,.17,13.17,.08-13.76,.08,11.37,.08-2.49,.08,3.76,.08-7.19,.17,72.16,.08-7.53,.08,7.71,.08-3.1,.08,1.68,.08-5.07,.08,6.08,.08-4.33,.17,3.61,.08-5.49,.08,16.96,.08-.04,.08-.31,.17-2.32,.08,3.87,.17-2.49,.08,.6,.08-3.33,.08,.58,.08,.98,.08,4.23,.17-2.79,.08,1.37,.08-1.04,.08,.19,.17,2.41,.08-2.39,.08,2.97,.17-3.29,.08,.45,.25,3.91,.17-4.25,.17,4.01,.17-4.57,.08,3,.08-.87,.25-1.9,.08,4.59,.25-4.18,.08,.09,.08-.56,.08,2.51,.08-1.72,.17,2.22,.08,.91,.17-3.94,.17,5,.08-4.09,.08,1.05,.08-1.83,.17,4.78,.08-2.27,.08,2.2,.08-.95,.08,.73,.08-.53,.08,.63,.08-4.56,.08,3.63,.08-.89,.08-2.45,.17,1.51,.25-1.4,.08,1.26,.08-1.33,.17,3.3,.08-3.24,.08,1.82,.08-1.96,.08,4.66,.17-4.88,.08,3.76,.17-3.79,.08,.39,.08,1.71,.08-.45,.08-1.2,.17,1.29,.08-1.89,.08,1.6,.08-1.56,.08,4.94,.08-.44,.25-3.46,.08,3.35,.08-4.39,.08,3.56,.08-.61,.08,.83,.08-1.64,.08,2.8,.08-.49,.08-3.21,.08,3.01,.08-.26,.08-3,.08,3.76,.08-1.85,.08,2.23,.17-3.64,.08,3.28,.17-4.41,.08,4.33,.08-4.77,.17,4.88,.08,.43,.17-3.36,.08,1.6,.08-2.71,.08,.65,.08,1.97,.17-3.18,.08,4.56,.08-1.15,.17-1.03,.08-.24,.08,1.3,.08-1.97,.08,.12,.08,.36,.08,2.5,.08-1.95,.08,.65,.08-.73,.08-2.32,.17,4.89,.17-4.34,.08,.22,.17,2.85,.25-4.04,.08,1.91,.08-.27,.17,1.83,.08-2.47,.08,1.71,.08-2.69,.17,4.99,.08-3.31,.17-59.02,.08-1.89,.08-7.06,.17,13,.08-10.76,.08,3.76,.08-9.34,.08,7.73,.08-3.83,.08,8.97,.08-23.51,.08,.84,.08-3.82,.08,18.17,.17-13.47,.08,12.19,.17-17.68,.08,10.57,.08-11.47,.08,19.39,.08-16.5,.08,2.93,.08,1.72,.08-10.06,.08,18,.08-16.4,.08,4.38,.08,9.25,.08-13.75,.08,10.11,.08-8.24,.08,9.1,.08-10.44,.17,15.26,.08-10.93,.08,9.85,.08-4.74,.17,8.38,.17-11.06,.08,1.18,.08-.43,.08,5.36,.17-9.82,.08,7.45,.08-11.26,.33,18.95,.08-18.61,.08,.92,.08,15.05,.33-15.88,.08,15.5,.08-6.23,.08,7.16,.08-6.29,.08,8.06,.08-19.01,.08,7.99,.08-6.95,.08,17,.08-3.61,.08-.69,.08-2.74,.08-8.96,.25,15.88,.08-.31,.08-14.65,.08,6.79,.08-6.06,.08,.94,.08,11.77,.08-.16,.08-13.18,.08,.73,.25,15.26,.08-5.94,.08,6,.17-8.83,.17,6.78,.08-17.05,.08,6.69,.08-7.51,.08,12.67,.08-7.13,.08,10.17,.08-8.9,.17,13.26,.08-20,.08,73.39,.08-3.2,.17,5.16,.08-.63,.08-2.63,.08,1.21,.08-3.1,.08,7.75,.08-5.88,.17,4.55,.17,10.13,.08,2.22,.08-.39,.17-1.25,.17,1.57,.08,.87,.08-5.82,.08,.16,.08,2.77,.08-.24,.17,5.1,.08-.27,.08-4.4,.08,1.58,.17-1.48,.17,4.68,.08-.77,.08,.67,.08-.19,.08-1.2,.08,1.58,.08-.26,.08-1.51,.08,.57,.33-3.23,.17,4.53,.08-3.96,.08,1.87,.08-1.4,.08,2.97,.17-3.82,.17,4.41,.08-4.25,.08,.55,.08,.22,.08,3.85,.08-4.08,.08,3.56,.08-.45,.08-1.91,.08,1.68,.08-2.13,.08,.29,.08,2.69,.17-4.39,.08,4.11,.08-2.35,.08,1.38,.08-.63,.08,.93,.08-.36,.08,1.75,.08-5.13,.25,3.22,.08-.84,.17,.97,.08-.56,.17,1.53,.17-3.57,.17,4.36,.08-1.15,.08-3.94,.08,.81,.08,1.25,.08-1.79,.08,2.6,.08-2.89,.17,4,.08-2.14,.08,1.4,.08-1.34,.08,1.73,.08-1.68,.17,3.05,.08-4.63,.08,.16,.08-.47,.17,1.55,.08,.67,.08,2.33,.08-.34,.08-.54,.08-3.23,.08,3.86,.08-4.04,.08,2.15,.08-1.04,.08,3.26,.08-.85,.08-3.71,.08,3.73,.08-.16,.17,.9,.08-.56,.08-2.2,.08,1.01,.08-.53,.08,2.32,.08-3.66,.08,.1,.08,4.1,.08-1.95,.08,1.69,.08-3.89,.08,.3,.08-.89,.08,3.58,.08-1.18,.08,1.46,.17-1.82,.08,2.52,.08-3.56,.08,.92,.08-1.54,.08,3,.17-3.91,.33,2.29,.08,2.06,.17-2.81,.08-1.47,.17,3.84,.17-3.81,.08,4.32,.08-.8,.08-1.16,.17,2.8,.17-4.54,.08,4.42,.25-4.89,.08-.17,.08,3.03,.08-2.84,.08,4.92,.08-71.57,.08,1.89,.08,7.19,.08-4.72,.08,6.91,.08-13.58,.08,9.4,.08-4.91,.08,8.55,.08-.87,.25-27.93,.17,16.65,.08-7.07,.08,.18,.08,6.68,.08-11.66,.17,11.42,.25-11.28,.08,2.53,.08-.94,.08,8.27,.17-16.9,.08,5.25,.08,14.24,.25-20.9,.08-.03,.08,2.96,.08,16.51,.08-19.12,.08,7.32,.08-4.05,.17,10.34,.08-3.09,.08,6.8,.08-4.52,.08-10.76,.08,17.62,.08-2.43,.08,.46,.17-18.76,.17,18.32,.08-16.56,.08,.71,.08,18.29,.08-15.48,.08,2.07,.08-2.42,.08,5.88,.08-10.71,.08,20.39,.08-4.1,.25-14.79,.17,18.86,.25-19.81,.08,7.88,.08-.79,.17-2.89,.08,2.91,.08,8.56,.08-13.71,.08,3.05,.08-.21,.08-5.48,.08,4.18,.08-.57,.08-2.63,.08,17.22,.17-9.24,.08,5.41,.08-10.98,.08,1.66,.08,.89,.08-5.95,.08,15.88,.08-10.25,.25,12.37,.08-15.83,.08,6.47,.08-4.94,.17,13.02,.08-2.53,.08-.95,.08-12.73,.08,20.82,.08-21.09,.08,.11,.17,75.11,.08-4.19,.17,8.07,.08-1.71,.08-6.21,.08,8.02,.08-4.58,.08,4.05,.08-1.81,.08,1.71,.17,8.82,.08-1.87,.08,1.29,.08-1.7,.08,2.78,.08-.78,.17,.93,.08-2.18,.08,1.21,.08-.94,.17,6.1,.08-2.53,.08,2.48,.25-4.39,.08,5.33,.08-.33,.08,.08,.17-4.1,.08,.43,.08,.58,.08-.86,.17,4.37,.08,.16,.08-4.29,.08,.66,.08,.17,.08,1.94,.08-.22,.08-3.13,.08,4.93,.08-3.82,.17,3.96,.08-3.79,.08,2.22,.08-2.11,.08,.08,.08,.93,.08-1.31,.17,2.64,.08-2.39,.08,.78,.08,3.1,.08-4.78,.08,1.92,.17-1.81,.08,2.36,.08-.34,.08,.49,.08-.18,.08-2.4,.08,.58,.08,3.56,.17-4.68,.08,2.15,.08-1.02,.08,.09,.08,2.25,.08-.12,.08-1.9,.08,1.21,.08-.38,.17-1.11,.17,3.39,.17-1.94,.08,.89,.08-1.22,.08,2.77,.08-2.46,.08,.76,.08-.9,.17,1.35,.08-3.34,.08,3.87,.17-3.98,.08,2.08,.08-1.82,.08,4.04,.08-1.99,.08,.2,.08,2.42,.08-2.34,.08,.4,.17-3.06,.08,4.59,.08-1.3,.25-2.41,.17,4.02,.17-4.61,.25,3.88,.17-.39,.08-1.05,.08-2.68,.17,3.96,.17-1.03,.08-1.29,.17,1.24,.08-.93,.25,2.91,.08-1.22,.08,.86,.17-3.67,.08,.3,.08,.57,.08-1.3,.08,3.07,.08-3.24,.08,2.61h.08s.08-.03,.08-.03l.08,1.65,.08-4.72,.08,4.5,.08-1.09,.08,.12,.08,1.32,.08-.42,.08,.58,.17-4.42,.17,4,.17-4.7,.08,4.11,.08-.25,.08-3.73,.08,4.27,.08-1.79,.08,1.46,.17-3.99,.08,.9,.08,2.69,.08-.48,.08,.87,.17-3.62,.08,2.67,.08-145.56,.08,16.38,.17-15.54,.25,21.03,.17-29.64,.08-2.67,.17,14.03,.17-45.8,.08,15.95,.25-9.95,.08,32.55,.08-8.2,.17-26.29,.17,18.76,.08-3.42,.17-15.22,.08,5.38,.08,12.65,.08-25.4,.08,14.96,.08-9.56,.08,23.09,.08-5.2,.08-21.26,.08,33.04,.08-19.65,.08,1.23,.08-10.86,.17,21.45,.08-28.49,.17,33.1,.08-3.56,.08-32.47,.08,32.37,.08-16.72,.08,7.45,.08-18.78,.08,5.26,.08,6.38,.08,23.65,.08-35.06,.08,17.56,.08-19.64,.08,17.59,.08-8.02,.08,25.21,.08-27.27,.08,16.38,.08-.54,.08,9.39,.08-1.14,.08-1.57,.08-5.75,.08-22.75,.08,21.13,.08-14.37,.08,25.89,.25-36.13,.08,5.32,.08,15.79,.08-12.93,.08,23.49,.08-14.9,.08,19.68,.08-11.04,.08,4.93,.08-19.9,.08,9.23,.08-10.53,.17,26.82,.17-30.14,.08-2.84,.08,13.38,.08-7.33,.08,.06,.08,24.06,.08-.34,.08,3.77,.25-37.41,.08,22.88,.08-11.92,.08,1.33,.17,25.62,.25-37.92,.08,25.81,.08-21.7,.08,157.36,.08-3.81,.08,1.13,.08,6.75,.08-.31,.08,.71,.17-8.97,.08,7.09,.08-5.36,.08,3.92,.08-6.29,.17,29.79,.17,3.33,.08-3.56,.08,4.23,.08-.7,.08,.72,.17-3.41,.08,.23,.08,1.61,.08,7.29,.08-4.59,.17,2.85,.08-1.03,.17,2.58,.08-1.55,.08,1.01,.08-.1,.08-3.67,.17,3.43,.17-2.54,.08,4.56,.08-3.92,.17,3.74,.08-.82,.17-2.14,.08,2.44,.17-2.17,.08,1.27,.17-2.27,.08,2.15,.08-2.71,.17,5.23,.17-3.22,.08-.15,.08,.82,.08,1.94,.08-.25,.17-3.75,.17,1.1,.08,.36,.08,2.12,.17-2.65,.08,.85,.08,2.79,.08-5.02,.08,.59,.08,3.14,.17-3.57,.08,4.45,.08-2.19,.08,.25,.08,.25,.08-2.29,.17,4.15h.08s.08,.11,.08,.11l.17-3.64,.08,2.77,.17-2.6,.08,2.32,.17-2.31,.17,1.87,.17-3.45,.17,3.15,.08-.39,.08,2.09,.08-2.57,.17,2.32,.08-1.86,.08,2.49,.08-2.14,.17,2.03,.17-4.8,.08,3.81,.08-1.78,.08,1.41,.08-1.16,.08,.31,.08,.9,.08-2.32,.17,3.48,.08-3.85,.08,.55,.17,1.07,.08-.16,.17,.56,.33-1.71,.08,1.79,.08-.19,.08,.21,.08-.88,.08,.45,.08-2.35,.08,1.04,.08-1.09,.08,1.02,.08-1.41,.08,1.8,.08-1.76,.17,4.9,.17-5.01,.17,4.15,.17-2.35,.08,1.8,.17-3.55,.08,.42,.08,3.26,.08-.19,.17-.36,.08,1.58,.08-3.56,.08,2.13,.17-3.02,.08,4.86,.08-5.19,.08,1.5,.17,1.72,.08-.69,.08,1.04,.08-1.6,.08,2.85,.08-2.84,.17,3.25,.17-3.02,.08,.82,.17-72.16,.17,14.23,.08-7.23,.08,.25,.08,7.99,.17-13.68,.08,1.09,.08,9.99,.25-27.67,.08,18.26,.17-10.97,.08,7.3,.08-10.93,.08,3.02,.08,12.71,.08-12.32,.08,2.44,.08,6.17,.08-19.54,.08,2.11,.08,12.94,.08-5.32,.08,4.8,.17-13.13,.08,12.23,.08-9.56,.17,8.75,.08-11.59,.17,9.56,.08-4.41,.08,8.84,.08-1.37,.08-13.05,.08,5.45,.08-3.18,.08,11.94,.17-15.05,.17,17.34,.08-7.54,.17,7.56,.17-17.88,.08,9.08,.17-6.25,.08,3.4,.08,14.13,.08-2.44,.17,3.16,.17-8.23,.17,7.05,.08-10.01,.08,5.52,.08-11.25,.08,16.96,.17-20.38,.08,5.13,.08-.38,.08-4.3,.08,15.59,.08-16.91,.08,4.76,.08,1.01,.08,7.87,.17-6.3,.08,.72,.08-1.82,.08,13.4,.17-7.57,.25,6.35,.17-7.63,.08,9.26,.08-19.02,.08,3.9,.08,.74,.08,12.01,.25-17.43,.17,8.75,.08-5.92,.17,17.98,.08-14.53,.08,12.74,.08-.37,.17,58.27,.17-5.57,.17,6.03,.08,.95,.08-.21,.08,.59,.08-.22,.08-2.96,.08,.96,.08,10.13,.08-.99,.08,.52,.17,4.11,.08-3.66,.17,3.76,.08-4.56,.17,3.76,.08-3.94,.17,5.71,.08-.09,.17-2.09,.08,3.69,.17-4.9,.08,3.81,.17-3.79,.08,3.75,.08-2.13,.08,2.79,.17-3.02,.08,2.97,.17-3.05,.17,3.48,.08,.41,.17-4.79,.42,4.5,.08-1.72,.08,.1,.08-.31,.08-2.32,.25,4.44,.08-4.65,.08,1.2,.08-.56,.08,2.49,.08-.47,.08-.11,.08,1.77,.17-3.82,.17,4.4,.08-3.51,.08,2.51,.17-2.27,.08,2.01,.08-2.65,.08,1.43,.08-1.72,.08,.57,.08-.57,.08,4.57,.08-1.2,.08,.83,.17-4.3,.08,2.27,.08-2.06,.08,2.81,.08-.07,.08-2.99,.08,2.53,.08-1.96,.08,2.98,.08-3.83,.08,2.01,.08-.99,.08,3.6,.17-4.37,.08,.13,.08,4.47,.08-1.38,.08-.75,.08,1.46,.08-3,.08,2.94,.08-.87,.08-1.7,.08,.97,.17-2.58,.08,4.54,.08-3.19,.08,2.58,.08-.99,.08,2.05,.08-.55,.42-4.5,.17,3.93,.08-.46h.17s.08-1.86,.08-1.86l.33,3.5,.08-1.06,.08,.6,.08-3.65,.08,3.62,.08-3.29,.17,3.5,.08-3.98,.08,1.25,.08,1.85,.08-3.55,.08,4.57,.08-.84,.08-2.96,.08,.23,.17,3.48,.08-4.28,.17,3.56,.17-3.84,.08,4.66,.08-3.89,.08,1.04,.08,.79,.17-2.91,.17,4.42,.08-4.14,.08,1.31,.08,1.24,.33-2.59,.17,3.37,.08-1.86,.08,1.2,.08-.96,.17,2.38,.25-3.48,.08-62.84,.08,6,.17-11.36,.08,6.83,.08-5.19,.17,8.33,.08-10.15,.08,13.02,.08-8.06,.08,5.78,.17-18.3,.08,.07,.17-5.12,.08,.35,.08,6.64,.08-4.64,.08,1.14,.08,3.24,.17-10.98,.08,13.32,.08-15.25,.08,18.23,.08-5.45,.08,.43,.08-7.24,.08,10.59,.08-16.07,.08,1.15,.17,7.92,.08-10.15,.08,1.64,.08,7.12,.08-4.35,.25,7.97,.08-2.82,.08,8.25,.33-19.02,.25,16.61,.08-10.97,.08,13.44,.17-12.86,.17,13.31,.08-16.83,.17,16.54,.08-.27,.08-3.81,.08,1.59,.08-12.83,.08,9.74,.08-10.4,.08,13.58,.17-11.07,.17,1.87,.08-6.97,.08,14.98,.17-14.11,.17,17.82,.17-12.42,.17,9.53,.17-9.11,.08,7.86,.08-1.12,.17-13.88,.08,5.83,.08-2.33,.17,10.99,.17-11.51,.08,7.55,.17-11.46,.17,20.3,.17-7.3,.08,5.45,.08-15.92,.08,18.24,.08-6.3,.08,2.82,.08-16.07,.08,5.64,.08-5.22,.17,73.46,.17,2.61,.08-.25,.08-4.18,.08,5.75,.08-.09,.17-5.09,.08-.2,.08,2.53,.17,11.61,.08,2.58,.17-5.11,.08,5.38,.17-2.58,.08,2.06,.08-4.35,.08,3.52,.08-3.01,.25,5.98,.08-.16,.08,.96,.25-4.33,.08,2.57,.08-2.14,.08,1.74,.17-2.39,.08,3.98,.08-3.37,.08,1.3,.08-1.06,.33,4.04,.17-4.98,.17,3.68,.08-2.69,.08,.31,.17,4.06,.08-.56,.08-4.09,.08,.22,.17,2.97,.17-3.51,.25,3.76,.08-1.52,.08,1.57,.08-3.09,.08,2.27,.08-2.4,.08,2.43,.08-2.38,.08,2.64,.08-.57,.08-.94,.08,2.93,.08-4.72,.17,2.37,.17-1.93,.08,1.85,.08-2.18,.08,4.64,.08-.26,.08-2.6,.08,1.31,.08-.59,.08,.73,.08-.41,.08-2.25,.08,1.23,.08-2.17,.08,1.13,.17,2.81,.08-.39,.08-2.73,.08,4.39,.08-1.09,.08-3.63,.25,3.69,.17-3.63,.08,3.43,.08-.88,.08-2.23,.08,.34,.08-.23,.08,1.59,.08-2.12,.17,4.06,.08-2.97,.08,.91,.08-1.7,.08,4.16,.08-4.1,.08,2.96,.08-1.95,.08,3.31,.17-3.64,.17,2.7,.17-3.32,.17,3.12,.08-.14,.08-3.61,.17,5.09,.08-4.19,.08,.44,.08,3.07,.08-4.61,.17,2.6,.08,.64,.08-2.78,.08,3.52,.08-.22,.08,.88,.08-3.43,.08,.88,.08-.07,.08,2.1,.17-2.94,.08,2.19,.08-2.39,.08,2.44,.08-2.2,.08,3.9,.25-5.1,.08,3.76,.08-.86,.08,2.04,.08-4.36,.25,4.09,.08-4.49,.17,3.57,.08-.36,.08,.43,.17-3.55,.08,.39,.08,2.13,.08-1.97,.17,3.09,.08-3.93,.08,3.66,.08-.11,.08-74.48,.08,15.66,.17-14.67,.17,17.07,.08-6.82,.08,4.82,.17-12.41,.17,6.55,.17-15.86,.08-5.73,.08,11.44,.08-10.72,.25,10.99,.08-1.38,.08-5.46,.08,8.18,.08-14.4,.08,4.59,.08-7.38,.08,18.69,.08-6.34,.08,6.84,.08-5.34,.08-12.62,.08,17.66,.08-8.55,.08,6.82,.17-15.43,.08,4.09,.08-2.44,.08,8.33,.08-12.8,.17,11.23,.08-.1,.08-10.58,.08,7.36,.08-2.79,.17,10.38,.08-10.85,.08,2.49,.08,2.29,.08-2.64,.08,8.95,.17-15.92,.08,1.23,.08,12.26,.08-1.82,.08-8.66,.17,5.58,.08-8.15,.25,19.04,.08-.59,.08,1.33,.08-19.5,.08,10.87,.08-1.3,.08-8.11,.25,11.81,.08-11.57,.17,16.8,.17-4.62,.08-.31,.08-8.36,.08,9.74,.08-9.88,.08,12.6,.08-1.21,.17-16.67,.08,1.34,.08-2.35,.08,6.85,.08-.55,.17,1.14,.08,10.24,.08-8.54,.08,3.39,.17-2.96,.08,8.51,.08-4.97,.08,6.37,.08-19.72,.08,18.53,.08-3.01,.08-13.62,.17,16.26,.08-5.35,.08,65.39,.08-.73,.08,1.28,.17-6.5,.25,5.22,.08-1.23,.08-4.32,.08,6.52,.08-6.63,.08,16.09,.08-2.13,.08,3.13,.08-.13,.17-2.69,.08,3.35,.08-4.48,.17,5.45,.17-3.94,.17,4.45,.08,2.09,.08-3.18,.08,1.73,.17-1.1,.08,2.34,.08-2.32,.08,.33,.08-1.58,.08,.37,.08,3.02,.08-.11,.08-.24,.08,.39,.17-4.41,.25,3.16,.08,.53,.17-3.55,.17,3.77,.08-2.58,.08,3.43,.17-3.7,.08,3.74,.17-4.64,.08,.26,.17,3.72,.08-1.79,.17,2.02,.17-2.46,.08,3.19,.08-1.41,.08,1.7,.08-3.94,.08,.59,.08,3.11,.08-4.85h0"/>
  <path class="cls-6" d="M270.48,61.58l.08,16.38,.08-8.99,.08-6.56,.08,8.21,.08,.93,.08,11.9,.08-26.8,.08-2.84,.08-2.67,.08,8.35,.08,5.69,.08-17.36,.08-28.44,.08,15.95,.08-3.56,.08-.05,.08-6.34,.08,32.55,.08-8.2,.08-17.35,.08-8.94,.08,8.17,.08,10.59,.08-3.42,.08-15.08,.08-.13,.08,5.38,.08,12.65,.08-25.4,.08,14.96,.08-9.56,.08,23.09,.08-5.2,.08-21.26,.08,33.04,.08-19.65,.08,1.23,.08-10.86,.08,18.91,.08,2.53,.08-28.49,.08,14.28,.08,18.82,.08-3.56,.08-32.47,.08,32.37,.08-16.72,.08,7.45,.08-18.78,.08,5.26,.08,6.38,.08,23.65,.08-35.06,.08,17.56,.08-19.64,.08,17.59,.08-8.02,.08,25.21,.08-27.27,.08,16.38,.08-.54,.08,9.39,.08-1.14,.08-1.57,.08-5.75,.08-22.75,.08,21.13,.08-14.37,.08,25.89,.08-20.51,.08,4.41,.08-20.03,.08,5.32,.08,15.79,.08-12.93,.08,23.49,.08-14.9,.08,19.68,.08-11.04,.08,4.93,.08-19.9,.08,9.23,.08-10.53,.08,9.51,.08,17.31,.08-26.19,.08-3.95,.08-2.84,.08,13.38,.08-7.33,.08,.06,.08,24.06,.08-.34,.08,3.77,.08-10.05,.08-6.2,.08-21.16,.08,22.88,.08-11.92"/>
  <path id="m1db8ba08cb" class="cls-3" d="M25.22,217.84v3.5"/>
  <path id="mbf5451650f" class="cls-2" d="M49.14,217.84v2"/>
  <path id="mbf5451650f-2" data-name="mbf5451650f" class="cls-2" d="M73.06,217.84v2"/>
  <path id="mbf5451650f-3" data-name="mbf5451650f" class="cls-2" d="M96.98,217.84v2"/>
  <path id="mbf5451650f-4" data-name="mbf5451650f" class="cls-2" d="M120.9,217.84v2"/>
  <path id="mbf5451650f-5" data-name="mbf5451650f" class="cls-2" d="M144.82,217.84v2"/>
  <path id="mbf5451650f-6" data-name="mbf5451650f" class="cls-2" d="M168.74,217.84v2"/>
  <path id="mbf5451650f-7" data-name="mbf5451650f" class="cls-2" d="M192.66,217.84v2"/>
  <path id="mbf5451650f-8" data-name="mbf5451650f" class="cls-2" d="M216.58,217.84v2"/>
  <path id="mbf5451650f-9" data-name="mbf5451650f" class="cls-2" d="M240.5,217.84v2"/>
  <path id="mbf5451650f-10" data-name="mbf5451650f" class="cls-2" d="M264.42,217.84v2"/>
  <path id="mbf5451650f-11" data-name="mbf5451650f" class="cls-2" d="M288.34,217.84v2"/>
  <path id="mbf5451650f-12" data-name="mbf5451650f" class="cls-2" d="M312.26,217.84v2"/>
  <path id="mbf5451650f-13" data-name="mbf5451650f" class="cls-2" d="M336.18,217.84v2"/>
  <path id="m790d5a7fa4" class="cls-3" d="M25.22,205.31h-3.5"/>
  <path id="m790d5a7fa4-2" data-name="m790d5a7fa4" class="cls-3" d="M25.22,177.06h-3.5"/>
  <path id="m790d5a7fa4-3" data-name="m790d5a7fa4" class="cls-3" d="M25.22,148.81h-3.5"/>
  <path id="m790d5a7fa4-4" data-name="m790d5a7fa4" class="cls-3" d="M25.22,120.56h-3.5"/>
  <path id="m790d5a7fa4-5" data-name="m790d5a7fa4" class="cls-3" d="M25.22,92.31h-3.5"/>
  <path id="m790d5a7fa4-6" data-name="m790d5a7fa4" class="cls-3" d="M25.22,64.06h-3.5"/>
  <path id="m790d5a7fa4-7" data-name="m790d5a7fa4" class="cls-3" d="M25.22,35.82h-3.5"/>
  <path id="m790d5a7fa4-8" data-name="m790d5a7fa4" class="cls-3" d="M25.22,7.57h-3.5"/>
  <path class="cls-5" d="M25.22,217.84V.4"/>
  <path class="cls-5" d="M360.02,217.84V.4"/>
  <path class="cls-5" d="M25.22,.4H360.02"/>
  <text class="cls-1" transform="translate(.02 11.49)"><tspan x="0" y="0">160</tspan></text>
  <text class="cls-1" transform="translate(0 39.11)"><tspan x="0" y="0">140</tspan></text>
  <text class="cls-1" transform="translate(.99 66.92)"><tspan x="0" y="0">120</tspan></text>
  <text class="cls-1" transform="translate(.96 95.77)"><tspan x="0" y="0">100</tspan></text>
  <text class="cls-1" transform="translate(7.08 124.57)"><tspan x="0" y="0">80</tspan></text>
  <text class="cls-1" transform="translate(7.17 152.67)"><tspan x="0" y="0">60</tspan></text>
  <text class="cls-1" transform="translate(7.08 180.73)"><tspan x="0" y="0">40</tspan></text>
  <text class="cls-1" transform="translate(7.01 209.3)"><tspan x="0" y="0">20</tspan></text>
  <text class="cls-1" transform="translate(18.86 230.84)"><tspan x="0" y="0">01</tspan></text>
  <text class="cls-1" transform="translate(42.48 230.84)"><tspan x="0" y="0">02</tspan></text>
  <text class="cls-1" transform="translate(66.42 230.84)"><tspan x="0" y="0">03</tspan></text>
  <text class="cls-1" transform="translate(90.39 230.84)"><tspan x="0" y="0">04</tspan></text>
  <text class="cls-1" transform="translate(114.04 230.84)"><tspan x="0" y="0">05</tspan></text>
  <text class="cls-1" transform="translate(137.72 230.84)"><tspan x="0" y="0">06</tspan></text>
  <text class="cls-1" transform="translate(163.97 230.84)"><tspan x="0" y="0">07</tspan></text>
  <text class="cls-1" transform="translate(186.18 230.84)"><tspan x="0" y="0">08</tspan></text>
  <text class="cls-1" transform="translate(211.07 230.84)"><tspan x="0" y="0">09</tspan></text>
  <text class="cls-1" transform="translate(233.46 230.84)"><tspan x="0" y="0">10</tspan></text>
  <text class="cls-1" transform="translate(257.93 230.84)"><tspan x="0" y="0">11</tspan></text>
  <text class="cls-1" transform="translate(281.96 230.84)"><tspan x="0" y="0">12</tspan></text>
  <text class="cls-1" transform="translate(305 230.98)"><tspan x="0" y="0">13</tspan></text>
  <text class="cls-1" transform="translate(329.75 230.84)"><tspan x="0" y="0">14</tspan></text>
  <text class="cls-4" transform="translate(157.32 247.49)"><tspan x="0" y="0">April 2014</tspan></text>
  <text class="cls-4" transform="translate(160.32 267.49)"><tspan x="0" y="0">TIMESTAMP</tspan></text>
  <path class="cls-5" d="M25.22,217.84H360.02"/>
</svg>