<?xml version="1.0" encoding="utf-8" standalone="no"?>
<!DOCTYPE svg PUBLIC "-//W3C//DTD SVG 1.1//EN"
  "http://www.w3.org/Graphics/SVG/1.1/DTD/svg11.dtd">
<svg xmlns:xlink="http://www.w3.org/1999/xlink" width="432pt" height="288pt" viewBox="0 0 432 288" xmlns="http://www.w3.org/2000/svg" version="1.1">
 <metadata>
  <rdf:RDF xmlns:dc="http://purl.org/dc/elements/1.1/" xmlns:cc="http://creativecommons.org/ns#" xmlns:rdf="http://www.w3.org/1999/02/22-rdf-syntax-ns#">
   <cc:Work>
    <dc:type rdf:resource="http://purl.org/dc/dcmitype/StillImage"/>
    <dc:date>2022-10-12T11:56:12.001821</dc:date>
    <dc:format>image/svg+xml</dc:format>
    <dc:creator>
     <cc:Agent>
      <dc:title>Matplotlib v3.5.2, https://matplotlib.org/</dc:title>
     </cc:Agent>
    </dc:creator>
   </cc:Work>
  </rdf:RDF>
 </metadata>
 <defs>
  <style type="text/css">*{stroke-linejoin: round; stroke-linecap: butt}</style>
 </defs>
 <g id="figure_1">
  <g id="patch_1">
   <path d="M 0 288 
L 432 288 
L 432 0 
L 0 0 
L 0 288 
z
" style="fill: none"/>
  </g>
  <g id="axes_1">
   <g id="patch_2">
    <path d="M 54 252 
L 388.8 252 
L 388.8 34.56 
L 54 34.56 
z
" style="fill: #ffffff"/>
   </g>
   <g id="matplotlib.axis_1">
    <g id="xtick_1">
     <g id="line2d_1">
      <defs>
       <path id="m1db8ba08cb" d="M 0 0 
L 0 3.5 
" style="stroke: #000000; stroke-width: 0.8"/>
      </defs>
      <g>
       <use xlink:href="#m1db8ba08cb" x="54" y="252" style="stroke: #000000; stroke-width: 0.8"/>
      </g>
     </g>
     <g id="text_1">
      <!-- 01 -->
      <g transform="translate(47.6375 266.598437)scale(0.1 -0.1)">
       <defs>
        <path id="DejaVuSans-30" d="M 2034 4250 
Q 1547 4250 1301 3770 
Q 1056 3291 1056 2328 
Q 1056 1369 1301 889 
Q 1547 409 2034 409 
Q 2525 409 2770 889 
Q 3016 1369 3016 2328 
Q 3016 3291 2770 3770 
Q 2525 4250 2034 4250 
z
M 2034 4750 
Q 2819 4750 3233 4129 
Q 3647 3509 3647 2328 
Q 3647 1150 3233 529 
Q 2819 -91 2034 -91 
Q 1250 -91 836 529 
Q 422 1150 422 2328 
Q 422 3509 836 4129 
Q 1250 4750 2034 4750 
z
" transform="scale(0.015625)"/>
        <path id="DejaVuSans-31" d="M 794 531 
L 1825 531 
L 1825 4091 
L 703 3866 
L 703 4441 
L 1819 4666 
L 2450 4666 
L 2450 531 
L 3481 531 
L 3481 0 
L 794 0 
L 794 531 
z
" transform="scale(0.015625)"/>
       </defs>
       <use xlink:href="#DejaVuSans-30"/>
       <use xlink:href="#DejaVuSans-31" x="63.623047"/>
      </g>
      <!-- Apr -->
      <g transform="translate(45.35 277.79625)scale(0.1 -0.1)">
       <defs>
        <path id="DejaVuSans-41" d="M 2188 4044 
L 1331 1722 
L 3047 1722 
L 2188 4044 
z
M 1831 4666 
L 2547 4666 
L 4325 0 
L 3669 0 
L 3244 1197 
L 1141 1197 
L 716 0 
L 50 0 
L 1831 4666 
z
" transform="scale(0.015625)"/>
        <path id="DejaVuSans-70" d="M 1159 525 
L 1159 -1331 
L 581 -1331 
L 581 3500 
L 1159 3500 
L 1159 2969 
Q 1341 3281 1617 3432 
Q 1894 3584 2278 3584 
Q 2916 3584 3314 3078 
Q 3713 2572 3713 1747 
Q 3713 922 3314 415 
Q 2916 -91 2278 -91 
Q 1894 -91 1617 61 
Q 1341 213 1159 525 
z
M 3116 1747 
Q 3116 2381 2855 2742 
Q 2594 3103 2138 3103 
Q 1681 3103 1420 2742 
Q 1159 2381 1159 1747 
Q 1159 1113 1420 752 
Q 1681 391 2138 391 
Q 2594 391 2855 752 
Q 3116 1113 3116 1747 
z
" transform="scale(0.015625)"/>
        <path id="DejaVuSans-72" d="M 2631 2963 
Q 2534 3019 2420 3045 
Q 2306 3072 2169 3072 
Q 1681 3072 1420 2755 
Q 1159 2438 1159 1844 
L 1159 0 
L 581 0 
L 581 3500 
L 1159 3500 
L 1159 2956 
Q 1341 3275 1631 3429 
Q 1922 3584 2338 3584 
Q 2397 3584 2469 3576 
Q 2541 3569 2628 3553 
L 2631 2963 
z
" transform="scale(0.015625)"/>
       </defs>
       <use xlink:href="#DejaVuSans-41"/>
       <use xlink:href="#DejaVuSans-70" x="68.408203"/>
       <use xlink:href="#DejaVuSans-72" x="131.884766"/>
      </g>
      <!-- 2014 -->
      <g transform="translate(41.275 288.994062)scale(0.1 -0.1)">
       <defs>
        <path id="DejaVuSans-32" d="M 1228 531 
L 3431 531 
L 3431 0 
L 469 0 
L 469 531 
Q 828 903 1448 1529 
Q 2069 2156 2228 2338 
Q 2531 2678 2651 2914 
Q 2772 3150 2772 3378 
Q 2772 3750 2511 3984 
Q 2250 4219 1831 4219 
Q 1534 4219 1204 4116 
Q 875 4013 500 3803 
L 500 4441 
Q 881 4594 1212 4672 
Q 1544 4750 1819 4750 
Q 2544 4750 2975 4387 
Q 3406 4025 3406 3419 
Q 3406 3131 3298 2873 
Q 3191 2616 2906 2266 
Q 2828 2175 2409 1742 
Q 1991 1309 1228 531 
z
" transform="scale(0.015625)"/>
        <path id="DejaVuSans-34" d="M 2419 4116 
L 825 1625 
L 2419 1625 
L 2419 4116 
z
M 2253 4666 
L 3047 4666 
L 3047 1625 
L 3713 1625 
L 3713 1100 
L 3047 1100 
L 3047 0 
L 2419 0 
L 2419 1100 
L 313 1100 
L 313 1709 
L 2253 4666 
z
" transform="scale(0.015625)"/>
       </defs>
       <use xlink:href="#DejaVuSans-32"/>
       <use xlink:href="#DejaVuSans-30" x="63.623047"/>
       <use xlink:href="#DejaVuSans-31" x="127.246094"/>
       <use xlink:href="#DejaVuSans-34" x="190.869141"/>
      </g>
     </g>
    </g>
    <g id="xtick_2">
     <g id="line2d_2">
      <g>
       <use xlink:href="#m1db8ba08cb" x="388.8" y="252" style="stroke: #000000; stroke-width: 0.8"/>
      </g>
     </g>
    </g>
    <g id="xtick_3">
     <g id="line2d_3">
      <defs>
       <path id="mbf5451650f" d="M 0 0 
L 0 2 
" style="stroke: #000000; stroke-width: 0.6"/>
      </defs>
      <g>
       <use xlink:href="#mbf5451650f" x="77.920218" y="252" style="stroke: #000000; stroke-width: 0.6"/>
      </g>
     </g>
     <g id="text_2">
      <!-- 02 -->
      <g transform="translate(71.557718 264.998438)scale(0.1 -0.1)">
       <use xlink:href="#DejaVuSans-30"/>
       <use xlink:href="#DejaVuSans-32" x="63.623047"/>
      </g>
     </g>
    </g>
    <g id="xtick_4">
     <g id="line2d_4">
      <g>
       <use xlink:href="#mbf5451650f" x="101.840437" y="252" style="stroke: #000000; stroke-width: 0.6"/>
      </g>
     </g>
     <g id="text_3">
      <!-- 03 -->
      <g transform="translate(95.477937 264.998438)scale(0.1 -0.1)">
       <defs>
        <path id="DejaVuSans-33" d="M 2597 2516 
Q 3050 2419 3304 2112 
Q 3559 1806 3559 1356 
Q 3559 666 3084 287 
Q 2609 -91 1734 -91 
Q 1441 -91 1130 -33 
Q 819 25 488 141 
L 488 750 
Q 750 597 1062 519 
Q 1375 441 1716 441 
Q 2309 441 2620 675 
Q 2931 909 2931 1356 
Q 2931 1769 2642 2001 
Q 2353 2234 1838 2234 
L 1294 2234 
L 1294 2753 
L 1863 2753 
Q 2328 2753 2575 2939 
Q 2822 3125 2822 3475 
Q 2822 3834 2567 4026 
Q 2313 4219 1838 4219 
Q 1578 4219 1281 4162 
Q 984 4106 628 3988 
L 628 4550 
Q 988 4650 1302 4700 
Q 1616 4750 1894 4750 
Q 2613 4750 3031 4423 
Q 3450 4097 3450 3541 
Q 3450 3153 3228 2886 
Q 3006 2619 2597 2516 
z
" transform="scale(0.015625)"/>
       </defs>
       <use xlink:href="#DejaVuSans-30"/>
       <use xlink:href="#DejaVuSans-33" x="63.623047"/>
      </g>
     </g>
    </g>
    <g id="xtick_5">
     <g id="line2d_5">
      <g>
       <use xlink:href="#mbf5451650f" x="125.760655" y="252" style="stroke: #000000; stroke-width: 0.6"/>
      </g>
     </g>
     <g id="text_4">
      <!-- 04 -->
      <g transform="translate(119.398155 264.998438)scale(0.1 -0.1)">
       <use xlink:href="#DejaVuSans-30"/>
       <use xlink:href="#DejaVuSans-34" x="63.623047"/>
      </g>
     </g>
    </g>
    <g id="xtick_6">
     <g id="line2d_6">
      <g>
       <use xlink:href="#mbf5451650f" x="149.680873" y="252" style="stroke: #000000; stroke-width: 0.6"/>
      </g>
     </g>
     <g id="text_5">
      <!-- 05 -->
      <g transform="translate(143.318373 264.998438)scale(0.1 -0.1)">
       <defs>
        <path id="DejaVuSans-35" d="M 691 4666 
L 3169 4666 
L 3169 4134 
L 1269 4134 
L 1269 2991 
Q 1406 3038 1543 3061 
Q 1681 3084 1819 3084 
Q 2600 3084 3056 2656 
Q 3513 2228 3513 1497 
Q 3513 744 3044 326 
Q 2575 -91 1722 -91 
Q 1428 -91 1123 -41 
Q 819 9 494 109 
L 494 744 
Q 775 591 1075 516 
Q 1375 441 1709 441 
Q 2250 441 2565 725 
Q 2881 1009 2881 1497 
Q 2881 1984 2565 2268 
Q 2250 2553 1709 2553 
Q 1456 2553 1204 2497 
Q 953 2441 691 2322 
L 691 4666 
z
" transform="scale(0.015625)"/>
       </defs>
       <use xlink:href="#DejaVuSans-30"/>
       <use xlink:href="#DejaVuSans-35" x="63.623047"/>
      </g>
     </g>
    </g>
    <g id="xtick_7">
     <g id="line2d_7">
      <g>
       <use xlink:href="#mbf5451650f" x="173.601092" y="252" style="stroke: #000000; stroke-width: 0.6"/>
      </g>
     </g>
     <g id="text_6">
      <!-- 06 -->
      <g transform="translate(167.238592 264.998438)scale(0.1 -0.1)">
       <defs>
        <path id="DejaVuSans-36" d="M 2113 2584 
Q 1688 2584 1439 2293 
Q 1191 2003 1191 1497 
Q 1191 994 1439 701 
Q 1688 409 2113 409 
Q 2538 409 2786 701 
Q 3034 994 3034 1497 
Q 3034 2003 2786 2293 
Q 2538 2584 2113 2584 
z
M 3366 4563 
L 3366 3988 
Q 3128 4100 2886 4159 
Q 2644 4219 2406 4219 
Q 1781 4219 1451 3797 
Q 1122 3375 1075 2522 
Q 1259 2794 1537 2939 
Q 1816 3084 2150 3084 
Q 2853 3084 3261 2657 
Q 3669 2231 3669 1497 
Q 3669 778 3244 343 
Q 2819 -91 2113 -91 
Q 1303 -91 875 529 
Q 447 1150 447 2328 
Q 447 3434 972 4092 
Q 1497 4750 2381 4750 
Q 2619 4750 2861 4703 
Q 3103 4656 3366 4563 
z
" transform="scale(0.015625)"/>
       </defs>
       <use xlink:href="#DejaVuSans-30"/>
       <use xlink:href="#DejaVuSans-36" x="63.623047"/>
      </g>
     </g>
    </g>
    <g id="xtick_8">
     <g id="line2d_8">
      <g>
       <use xlink:href="#mbf5451650f" x="197.52131" y="252" style="stroke: #000000; stroke-width: 0.6"/>
      </g>
     </g>
     <g id="text_7">
      <!-- 07 -->
      <g transform="translate(191.15881 264.998438)scale(0.1 -0.1)">
       <defs>
        <path id="DejaVuSans-37" d="M 525 4666 
L 3525 4666 
L 3525 4397 
L 1831 0 
L 1172 0 
L 2766 4134 
L 525 4134 
L 525 4666 
z
" transform="scale(0.015625)"/>
       </defs>
       <use xlink:href="#DejaVuSans-30"/>
       <use xlink:href="#DejaVuSans-37" x="63.623047"/>
      </g>
     </g>
    </g>
    <g id="xtick_9">
     <g id="line2d_9">
      <g>
       <use xlink:href="#mbf5451650f" x="221.441528" y="252" style="stroke: #000000; stroke-width: 0.6"/>
      </g>
     </g>
     <g id="text_8">
      <!-- 08 -->
      <g transform="translate(215.079028 264.998438)scale(0.1 -0.1)">
       <defs>
        <path id="DejaVuSans-38" d="M 2034 2216 
Q 1584 2216 1326 1975 
Q 1069 1734 1069 1313 
Q 1069 891 1326 650 
Q 1584 409 2034 409 
Q 2484 409 2743 651 
Q 3003 894 3003 1313 
Q 3003 1734 2745 1975 
Q 2488 2216 2034 2216 
z
M 1403 2484 
Q 997 2584 770 2862 
Q 544 3141 544 3541 
Q 544 4100 942 4425 
Q 1341 4750 2034 4750 
Q 2731 4750 3128 4425 
Q 3525 4100 3525 3541 
Q 3525 3141 3298 2862 
Q 3072 2584 2669 2484 
Q 3125 2378 3379 2068 
Q 3634 1759 3634 1313 
Q 3634 634 3220 271 
Q 2806 -91 2034 -91 
Q 1263 -91 848 271 
Q 434 634 434 1313 
Q 434 1759 690 2068 
Q 947 2378 1403 2484 
z
M 1172 3481 
Q 1172 3119 1398 2916 
Q 1625 2713 2034 2713 
Q 2441 2713 2670 2916 
Q 2900 3119 2900 3481 
Q 2900 3844 2670 4047 
Q 2441 4250 2034 4250 
Q 1625 4250 1398 4047 
Q 1172 3844 1172 3481 
z
" transform="scale(0.015625)"/>
       </defs>
       <use xlink:href="#DejaVuSans-30"/>
       <use xlink:href="#DejaVuSans-38" x="63.623047"/>
      </g>
     </g>
    </g>
    <g id="xtick_10">
     <g id="line2d_10">
      <g>
       <use xlink:href="#mbf5451650f" x="245.361746" y="252" style="stroke: #000000; stroke-width: 0.6"/>
      </g>
     </g>
     <g id="text_9">
      <!-- 09 -->
      <g transform="translate(238.999246 264.998438)scale(0.1 -0.1)">
       <defs>
        <path id="DejaVuSans-39" d="M 703 97 
L 703 672 
Q 941 559 1184 500 
Q 1428 441 1663 441 
Q 2288 441 2617 861 
Q 2947 1281 2994 2138 
Q 2813 1869 2534 1725 
Q 2256 1581 1919 1581 
Q 1219 1581 811 2004 
Q 403 2428 403 3163 
Q 403 3881 828 4315 
Q 1253 4750 1959 4750 
Q 2769 4750 3195 4129 
Q 3622 3509 3622 2328 
Q 3622 1225 3098 567 
Q 2575 -91 1691 -91 
Q 1453 -91 1209 -44 
Q 966 3 703 97 
z
M 1959 2075 
Q 2384 2075 2632 2365 
Q 2881 2656 2881 3163 
Q 2881 3666 2632 3958 
Q 2384 4250 1959 4250 
Q 1534 4250 1286 3958 
Q 1038 3666 1038 3163 
Q 1038 2656 1286 2365 
Q 1534 2075 1959 2075 
z
" transform="scale(0.015625)"/>
       </defs>
       <use xlink:href="#DejaVuSans-30"/>
       <use xlink:href="#DejaVuSans-39" x="63.623047"/>
      </g>
     </g>
    </g>
    <g id="xtick_11">
     <g id="line2d_11">
      <g>
       <use xlink:href="#mbf5451650f" x="269.281965" y="252" style="stroke: #000000; stroke-width: 0.6"/>
      </g>
     </g>
     <g id="text_10">
      <!-- 10 -->
      <g transform="translate(262.919465 264.998438)scale(0.1 -0.1)">
       <use xlink:href="#DejaVuSans-31"/>
       <use xlink:href="#DejaVuSans-30" x="63.623047"/>
      </g>
     </g>
    </g>
    <g id="xtick_12">
     <g id="line2d_12">
      <g>
       <use xlink:href="#mbf5451650f" x="293.202183" y="252" style="stroke: #000000; stroke-width: 0.6"/>
      </g>
     </g>
     <g id="text_11">
      <!-- 11 -->
      <g transform="translate(286.839683 264.998438)scale(0.1 -0.1)">
       <use xlink:href="#DejaVuSans-31"/>
       <use xlink:href="#DejaVuSans-31" x="63.623047"/>
      </g>
     </g>
    </g>
    <g id="xtick_13">
     <g id="line2d_13">
      <g>
       <use xlink:href="#mbf5451650f" x="317.122401" y="252" style="stroke: #000000; stroke-width: 0.6"/>
      </g>
     </g>
     <g id="text_12">
      <!-- 12 -->
      <g transform="translate(310.759901 264.998438)scale(0.1 -0.1)">
       <use xlink:href="#DejaVuSans-31"/>
       <use xlink:href="#DejaVuSans-32" x="63.623047"/>
      </g>
     </g>
    </g>
    <g id="xtick_14">
     <g id="line2d_14">
      <g>
       <use xlink:href="#mbf5451650f" x="341.04262" y="252" style="stroke: #000000; stroke-width: 0.6"/>
      </g>
     </g>
     <g id="text_13">
      <!-- 13 -->
      <g transform="translate(334.68012 264.998438)scale(0.1 -0.1)">
       <use xlink:href="#DejaVuSans-31"/>
       <use xlink:href="#DejaVuSans-33" x="63.623047"/>
      </g>
     </g>
    </g>
    <g id="xtick_15">
     <g id="line2d_15">
      <g>
       <use xlink:href="#mbf5451650f" x="364.962838" y="252" style="stroke: #000000; stroke-width: 0.6"/>
      </g>
     </g>
     <g id="text_14">
      <!-- 14 -->
      <g transform="translate(358.600338 264.998438)scale(0.1 -0.1)">
       <use xlink:href="#DejaVuSans-31"/>
       <use xlink:href="#DejaVuSans-34" x="63.623047"/>
      </g>
     </g>
    </g>
    <g id="text_15">
     <!-- timestamp -->
     <g transform="translate(194.430469 302.672188)scale(0.1 -0.1)">
      <defs>
       <path id="DejaVuSans-74" d="M 1172 4494 
L 1172 3500 
L 2356 3500 
L 2356 3053 
L 1172 3053 
L 1172 1153 
Q 1172 725 1289 603 
Q 1406 481 1766 481 
L 2356 481 
L 2356 0 
L 1766 0 
Q 1100 0 847 248 
Q 594 497 594 1153 
L 594 3053 
L 172 3053 
L 172 3500 
L 594 3500 
L 594 4494 
L 1172 4494 
z
" transform="scale(0.015625)"/>
       <path id="DejaVuSans-69" d="M 603 3500 
L 1178 3500 
L 1178 0 
L 603 0 
L 603 3500 
z
M 603 4863 
L 1178 4863 
L 1178 4134 
L 603 4134 
L 603 4863 
z
" transform="scale(0.015625)"/>
       <path id="DejaVuSans-6d" d="M 3328 2828 
Q 3544 3216 3844 3400 
Q 4144 3584 4550 3584 
Q 5097 3584 5394 3201 
Q 5691 2819 5691 2113 
L 5691 0 
L 5113 0 
L 5113 2094 
Q 5113 2597 4934 2840 
Q 4756 3084 4391 3084 
Q 3944 3084 3684 2787 
Q 3425 2491 3425 1978 
L 3425 0 
L 2847 0 
L 2847 2094 
Q 2847 2600 2669 2842 
Q 2491 3084 2119 3084 
Q 1678 3084 1418 2786 
Q 1159 2488 1159 1978 
L 1159 0 
L 581 0 
L 581 3500 
L 1159 3500 
L 1159 2956 
Q 1356 3278 1631 3431 
Q 1906 3584 2284 3584 
Q 2666 3584 2933 3390 
Q 3200 3197 3328 2828 
z
" transform="scale(0.015625)"/>
       <path id="DejaVuSans-65" d="M 3597 1894 
L 3597 1613 
L 953 1613 
Q 991 1019 1311 708 
Q 1631 397 2203 397 
Q 2534 397 2845 478 
Q 3156 559 3463 722 
L 3463 178 
Q 3153 47 2828 -22 
Q 2503 -91 2169 -91 
Q 1331 -91 842 396 
Q 353 884 353 1716 
Q 353 2575 817 3079 
Q 1281 3584 2069 3584 
Q 2775 3584 3186 3129 
Q 3597 2675 3597 1894 
z
M 3022 2063 
Q 3016 2534 2758 2815 
Q 2500 3097 2075 3097 
Q 1594 3097 1305 2825 
Q 1016 2553 972 2059 
L 3022 2063 
z
" transform="scale(0.015625)"/>
       <path id="DejaVuSans-73" d="M 2834 3397 
L 2834 2853 
Q 2591 2978 2328 3040 
Q 2066 3103 1784 3103 
Q 1356 3103 1142 2972 
Q 928 2841 928 2578 
Q 928 2378 1081 2264 
Q 1234 2150 1697 2047 
L 1894 2003 
Q 2506 1872 2764 1633 
Q 3022 1394 3022 966 
Q 3022 478 2636 193 
Q 2250 -91 1575 -91 
Q 1294 -91 989 -36 
Q 684 19 347 128 
L 347 722 
Q 666 556 975 473 
Q 1284 391 1588 391 
Q 1994 391 2212 530 
Q 2431 669 2431 922 
Q 2431 1156 2273 1281 
Q 2116 1406 1581 1522 
L 1381 1569 
Q 847 1681 609 1914 
Q 372 2147 372 2553 
Q 372 3047 722 3315 
Q 1072 3584 1716 3584 
Q 2034 3584 2315 3537 
Q 2597 3491 2834 3397 
z
" transform="scale(0.015625)"/>
       <path id="DejaVuSans-61" d="M 2194 1759 
Q 1497 1759 1228 1600 
Q 959 1441 959 1056 
Q 959 750 1161 570 
Q 1363 391 1709 391 
Q 2188 391 2477 730 
Q 2766 1069 2766 1631 
L 2766 1759 
L 2194 1759 
z
M 3341 1997 
L 3341 0 
L 2766 0 
L 2766 531 
Q 2569 213 2275 61 
Q 1981 -91 1556 -91 
Q 1019 -91 701 211 
Q 384 513 384 1019 
Q 384 1609 779 1909 
Q 1175 2209 1959 2209 
L 2766 2209 
L 2766 2266 
Q 2766 2663 2505 2880 
Q 2244 3097 1772 3097 
Q 1472 3097 1187 3025 
Q 903 2953 641 2809 
L 641 3341 
Q 956 3463 1253 3523 
Q 1550 3584 1831 3584 
Q 2591 3584 2966 3190 
Q 3341 2797 3341 1997 
z
" transform="scale(0.015625)"/>
      </defs>
      <use xlink:href="#DejaVuSans-74"/>
      <use xlink:href="#DejaVuSans-69" x="39.208984"/>
      <use xlink:href="#DejaVuSans-6d" x="66.992188"/>
      <use xlink:href="#DejaVuSans-65" x="164.404297"/>
      <use xlink:href="#DejaVuSans-73" x="225.927734"/>
      <use xlink:href="#DejaVuSans-74" x="278.027344"/>
      <use xlink:href="#DejaVuSans-61" x="317.236328"/>
      <use xlink:href="#DejaVuSans-6d" x="378.515625"/>
      <use xlink:href="#DejaVuSans-70" x="475.927734"/>
     </g>
    </g>
   </g>
   <g id="matplotlib.axis_2">
    <g id="ytick_1">
     <g id="line2d_16">
      <defs>
       <path id="m790d5a7fa4" d="M 0 0 
L -3.5 0 
" style="stroke: #000000; stroke-width: 0.8"/>
      </defs>
      <g>
       <use xlink:href="#m790d5a7fa4" x="54" y="236.46929" style="stroke: #000000; stroke-width: 0.8"/>
      </g>
     </g>
     <g id="text_16">
      <!-- 20 -->
      <g transform="translate(34.275 240.268509)scale(0.1 -0.1)">
       <use xlink:href="#DejaVuSans-32"/>
       <use xlink:href="#DejaVuSans-30" x="63.623047"/>
      </g>
     </g>
    </g>
    <g id="ytick_2">
     <g id="line2d_17">
      <g>
       <use xlink:href="#m790d5a7fa4" x="54" y="208.220307" style="stroke: #000000; stroke-width: 0.8"/>
      </g>
     </g>
     <g id="text_17">
      <!-- 30 -->
      <g transform="translate(34.275 212.019525)scale(0.1 -0.1)">
       <use xlink:href="#DejaVuSans-33"/>
       <use xlink:href="#DejaVuSans-30" x="63.623047"/>
      </g>
     </g>
    </g>
    <g id="ytick_3">
     <g id="line2d_18">
      <g>
       <use xlink:href="#m790d5a7fa4" x="54" y="179.971323" style="stroke: #000000; stroke-width: 0.8"/>
      </g>
     </g>
     <g id="text_18">
      <!-- 40 -->
      <g transform="translate(34.275 183.770542)scale(0.1 -0.1)">
       <use xlink:href="#DejaVuSans-34"/>
       <use xlink:href="#DejaVuSans-30" x="63.623047"/>
      </g>
     </g>
    </g>
    <g id="ytick_4">
     <g id="line2d_19">
      <g>
       <use xlink:href="#m790d5a7fa4" x="54" y="151.722339" style="stroke: #000000; stroke-width: 0.8"/>
      </g>
     </g>
     <g id="text_19">
      <!-- 50 -->
      <g transform="translate(34.275 155.521558)scale(0.1 -0.1)">
       <use xlink:href="#DejaVuSans-35"/>
       <use xlink:href="#DejaVuSans-30" x="63.623047"/>
      </g>
     </g>
    </g>
    <g id="ytick_5">
     <g id="line2d_20">
      <g>
       <use xlink:href="#m790d5a7fa4" x="54" y="123.473356" style="stroke: #000000; stroke-width: 0.8"/>
      </g>
     </g>
     <g id="text_20">
      <!-- 60 -->
      <g transform="translate(34.275 127.272574)scale(0.1 -0.1)">
       <use xlink:href="#DejaVuSans-36"/>
       <use xlink:href="#DejaVuSans-30" x="63.623047"/>
      </g>
     </g>
    </g>
    <g id="ytick_6">
     <g id="line2d_21">
      <g>
       <use xlink:href="#m790d5a7fa4" x="54" y="95.224372" style="stroke: #000000; stroke-width: 0.8"/>
      </g>
     </g>
     <g id="text_21">
      <!-- 70 -->
      <g transform="translate(34.275 99.023591)scale(0.1 -0.1)">
       <use xlink:href="#DejaVuSans-37"/>
       <use xlink:href="#DejaVuSans-30" x="63.623047"/>
      </g>
     </g>
    </g>
    <g id="ytick_7">
     <g id="line2d_22">
      <g>
       <use xlink:href="#m790d5a7fa4" x="54" y="66.975388" style="stroke: #000000; stroke-width: 0.8"/>
      </g>
     </g>
     <g id="text_22">
      <!-- 80 -->
      <g transform="translate(34.275 70.774607)scale(0.1 -0.1)">
       <use xlink:href="#DejaVuSans-38"/>
       <use xlink:href="#DejaVuSans-30" x="63.623047"/>
      </g>
     </g>
    </g>
    <g id="ytick_8">
     <g id="line2d_23">
      <g>
       <use xlink:href="#m790d5a7fa4" x="54" y="38.726405" style="stroke: #000000; stroke-width: 0.8"/>
      </g>
     </g>
     <g id="text_23">
      <!-- 90 -->
      <g transform="translate(34.275 42.525623)scale(0.1 -0.1)">
       <use xlink:href="#DejaVuSans-39"/>
       <use xlink:href="#DejaVuSans-30" x="63.623047"/>
      </g>
     </g>
    </g>
   </g>
   <g id="line2d_24">
    <path d="M 54 241.201225 
L 54.083056 230.903316 
L 54.166113 240.354073 
L 54.249169 230.950331 
L 54.332225 231.076221 
L 54.581394 235.590102 
L 54.664451 232.332492 
L 54.747507 238.848538 
L 54.830563 236.834479 
L 54.913619 235.120232 
L 54.996676 237.472802 
L 55.079732 237.288664 
L 55.162788 238.387004 
L 55.328901 232.507941 
L 55.411957 239.841898 
L 55.495014 231.560373 
L 55.57807 234.332677 
L 55.661126 232.816434 
L 55.744183 235.834358 
L 55.827239 233.310865 
L 55.910295 241.936029 
L 55.993352 232.871721 
L 56.076408 241.665534 
L 56.24252 230.910311 
L 56.408633 239.742573 
L 56.491689 233.470792 
L 56.574746 239.259992 
L 56.657802 232.338584 
L 56.740858 240.957007 
L 56.823915 240.695844 
L 56.906971 231.055072 
L 56.990027 234.504981 
L 57.073084 232.549606 
L 57.15614 238.454297 
L 57.239196 234.475096 
L 57.322253 235.404396 
L 57.405309 235.303736 
L 57.488365 234.406748 
L 57.737534 239.001273 
L 57.82059 233.43443 
L 57.903647 239.5623 
L 57.986703 234.295765 
L 58.069759 239.482521 
L 58.235872 233.677406 
L 58.401985 241.441752 
L 58.485041 240.639137 
L 58.651154 232.520688 
L 58.73421 241.610641 
L 58.817266 233.823476 
L 58.900323 238.262325 
L 58.983379 236.711911 
L 59.066435 231.623352 
L 59.149491 238.367944 
L 59.232548 236.860969 
L 59.315604 241.964481 
L 59.39866 241.197055 
L 59.481717 239.197107 
L 59.564773 241.804368 
L 59.647829 234.984802 
L 59.730886 237.300959 
L 59.813942 235.925269 
L 59.896998 240.145645 
L 59.980055 238.775175 
L 60.146167 231.211559 
L 60.229224 241.549398 
L 60.31228 232.058106 
L 60.478392 235.747025 
L 60.561449 236.466143 
L 60.644505 241.334962 
L 60.727561 241.103515 
L 60.810618 235.329026 
L 60.893674 238.266394 
L 60.97673 231.754331 
L 61.142843 240.500065 
L 61.225899 234.043055 
L 61.308956 238.804312 
L 61.558125 231.946468 
L 61.724237 234.476482 
L 61.807293 234.439508 
L 61.89035 231.430523 
L 62.056462 242.106521 
L 62.305631 234.640625 
L 62.471744 235.413215 
L 62.5548 241.935543 
L 62.637857 233.884191 
L 62.720913 238.463325 
L 62.803969 234.604225 
L 62.887026 235.829977 
L 62.970082 106.916229 
L 63.053138 114.913243 
L 63.136194 116.456034 
L 63.302307 84.799913 
L 63.46842 116.109682 
L 63.551476 104.638148 
L 63.717589 90.123837 
L 63.883701 120.082297 
L 63.966758 64.454542 
L 64.049814 80.042315 
L 64.13287 84.519278 
L 64.215927 95.110899 
L 64.465096 53.691464 
L 64.714264 91.947278 
L 64.797321 71.612442 
L 64.880377 79.017152 
L 64.963433 63.518053 
L 65.212602 86.528409 
L 65.295659 76.646532 
L 65.378715 86.452951 
L 65.461771 82.847449 
L 65.544828 46.436698 
L 65.627884 70.842609 
L 65.71094 66.899431 
L 65.877053 46.066824 
L 65.960109 63.512506 
L 66.043165 53.140218 
L 66.209278 76.0161 
L 66.292334 71.638935 
L 66.458447 59.021692 
L 66.62456 83.804999 
L 66.707616 61.269664 
L 66.790672 84.025486 
L 66.956785 58.289359 
L 67.039841 57.964489 
L 67.205954 50.181031 
L 67.28901 67.031479 
L 67.372066 56.625235 
L 67.455123 61.644505 
L 67.621235 88.462538 
L 67.953461 51.169402 
L 68.119573 83.909964 
L 68.20263 46.038701 
L 68.285686 84.701134 
L 68.451799 63.11908 
L 68.534855 65.116269 
L 68.700968 87.006938 
L 68.784024 84.816887 
L 68.86708 63.117997 
L 68.950136 64.97326 
L 69.033193 79.011925 
L 69.199305 52.511166 
L 69.282362 87.697244 
L 69.448474 58.421117 
L 69.531531 78.172548 
L 69.614587 75.665917 
L 69.7807 48.991702 
L 69.863756 52.969612 
L 69.946812 63.218479 
L 70.029869 56.570195 
L 70.112925 73.085615 
L 70.195981 60.604422 
L 70.362094 80.990178 
L 70.44515 57.857598 
L 70.528206 64.423717 
L 70.611263 73.365884 
L 70.694319 48.383995 
L 70.777375 88.628779 
L 70.860432 75.30256 
L 70.943488 87.003708 
L 71.026544 54.928878 
L 71.109601 57.84055 
L 71.192657 74.598078 
L 71.275713 59.035801 
L 71.35877 71.678941 
L 71.441826 55.393225 
L 71.607938 70.940287 
L 71.690995 47.326397 
L 71.857107 84.130631 
L 71.940164 201.042043 
L 72.02322 194.085496 
L 72.189333 210.488616 
L 72.355445 202.463287 
L 72.438502 208.682738 
L 72.604614 193.571544 
L 72.770727 205.19694 
L 72.853783 204.365731 
L 72.936839 234.560072 
L 73.019896 224.839002 
L 73.186008 231.116141 
L 73.269065 227.66857 
L 73.352121 230.423136 
L 73.435177 227.813562 
L 73.518234 235.239673 
L 73.684346 224.11472 
L 73.767403 227.806831 
L 73.850459 223.936758 
L 73.933515 239.146541 
L 74.016572 235.374652 
L 74.099628 233.935356 
L 74.182684 234.167583 
L 74.431853 239.431278 
L 74.514909 236.365964 
L 74.597966 239.016618 
L 74.681022 232.401545 
L 74.847135 240.221085 
L 75.096304 231.975462 
L 75.262416 237.952484 
L 75.345473 232.757754 
L 75.511585 240.974881 
L 75.677698 231.565526 
L 75.84381 238.510583 
L 75.926867 240.44757 
L 76.009923 240.357357 
L 76.176036 235.332871 
L 76.259092 241.158477 
L 76.342148 231.443338 
L 76.425205 233.529378 
L 76.508261 235.435297 
L 76.591317 232.700266 
L 76.674374 241.163325 
L 76.923543 232.744085 
L 77.006599 233.254737 
L 77.089655 238.977953 
L 77.172711 231.475719 
L 77.255768 240.703997 
L 77.42188 231.135987 
L 77.504937 240.107177 
L 77.587993 233.948705 
L 77.671049 241.654027 
L 77.837162 236.274413 
L 77.920218 235.558032 
L 78.003275 231.543376 
L 78.169387 236.680842 
L 78.3355 231.378452 
L 78.418556 241.869748 
L 78.501613 231.016996 
L 78.584669 241.145829 
L 78.667725 232.916847 
L 78.833838 240.62551 
L 78.99995 234.842639 
L 79.166063 241.50252 
L 79.332176 231.922297 
L 79.498288 239.674614 
L 79.581345 237.118143 
L 79.664401 241.572608 
L 79.830514 232.781772 
L 79.996626 238.129168 
L 80.079682 233.08186 
L 80.162739 235.851349 
L 80.245795 232.786388 
L 80.328851 234.983859 
L 80.411908 233.255624 
L 80.57802 237.439461 
L 80.661077 231.294688 
L 80.910246 239.627666 
L 80.993302 235.049487 
L 81.076358 235.660153 
L 81.242471 241.445777 
L 81.408583 233.489675 
L 81.574696 239.556648 
L 81.657752 234.58766 
L 81.740809 241.213925 
L 81.823865 237.126546 
L 81.906921 240.273109 
L 81.989978 240.034775 
L 82.073034 239.833248 
L 82.15609 237.749454 
L 82.239147 241.54111 
L 82.405259 236.337001 
L 82.488316 236.658058 
L 82.571372 237.793782 
L 82.654428 232.637071 
L 82.737484 240.476954 
L 82.820541 236.404919 
L 82.903597 241.418044 
L 82.986653 241.315057 
L 83.06971 235.634636 
L 83.152766 235.723309 
L 83.235822 232.197665 
L 83.318879 235.815341 
L 83.401935 231.273839 
L 83.484991 241.568855 
L 83.568048 241.01164 
L 83.651104 241.621161 
L 83.73416 240.025534 
L 83.900273 234.824384 
L 83.983329 241.603993 
L 84.066386 231.43 
L 84.149442 232.602961 
L 84.315554 241.246899 
L 84.398611 240.199432 
L 84.564723 240.72603 
L 84.64778 236.259551 
L 84.730836 239.341111 
L 84.813892 238.072254 
L 84.896949 230.938079 
L 84.980005 234.386614 
L 85.063061 231.395991 
L 85.146118 240.508256 
L 85.229174 237.801066 
L 85.31223 235.850843 
L 85.478343 242.07177 
L 85.561399 234.543451 
L 85.644455 234.866787 
L 85.727512 237.47734 
L 85.810568 236.586308 
L 85.893624 237.42475 
L 85.976681 241.84784 
L 86.059737 238.329524 
L 86.22585 241.006934 
L 86.308906 231.308535 
L 86.391962 235.346566 
L 86.475019 233.885567 
L 86.558075 238.555605 
L 86.641131 237.676684 
L 86.807244 241.023414 
L 86.973356 89.44409 
L 87.222525 101.831181 
L 87.305582 84.644827 
L 87.388638 117.289101 
L 87.471694 109.303182 
L 87.554751 106.639349 
L 87.720863 81.952438 
L 87.80392 110.837249 
L 87.886976 57.344604 
L 87.970032 59.259842 
L 88.053089 85.826831 
L 88.136145 78.168648 
L 88.219201 77.715305 
L 88.302258 52.788792 
L 88.385314 87.745616 
L 88.46837 60.639334 
L 88.551426 81.024537 
L 88.634483 63.633229 
L 88.717539 77.262056 
L 88.800595 70.319662 
L 88.883652 53.388029 
L 88.966708 54.666037 
L 89.049764 51.868978 
L 89.132821 88.116493 
L 89.215877 59.703049 
L 89.298933 84.505693 
L 89.465046 66.148399 
L 89.548102 72.70098 
L 89.631159 67.450242 
L 89.714215 46.023811 
L 89.797271 84.719998 
L 89.880327 59.325767 
L 90.04644 83.814034 
L 90.129496 82.652612 
L 90.212553 46.964532 
L 90.295609 50.109797 
L 90.378665 48.871021 
L 90.461722 45.056756 
L 90.544778 80.414428 
L 90.627834 73.772645 
L 90.710891 59.607332 
L 90.877003 70.717401 
L 90.96006 73.454784 
L 91.043116 62.791912 
L 91.126172 63.613746 
L 91.209228 82.327509 
L 91.375341 64.613369 
L 91.458397 63.853533 
L 91.541454 80.129165 
L 91.62451 56.081981 
L 91.707566 88.484705 
L 91.873679 54.321688 
L 92.039792 77.780787 
L 92.122848 58.175095 
L 92.205904 63.940421 
L 92.288961 53.597149 
L 92.372017 56.36399 
L 92.538129 67.52056 
L 92.621186 83.565011 
L 92.870355 62.489435 
L 92.953411 66.357991 
L 93.119524 89.284352 
L 93.20258 67.147537 
L 93.285636 76.666821 
L 93.368693 56.373746 
L 93.451749 88.494206 
L 93.617862 47.023832 
L 93.700918 81.693588 
L 93.783974 68.258942 
L 93.867031 85.442848 
L 93.950087 61.295215 
L 94.033143 64.691877 
L 94.116199 71.162742 
L 94.199256 66.009617 
L 94.282312 49.051327 
L 94.448425 88.555088 
L 94.531481 50.629189 
L 94.614537 63.490262 
L 94.697594 49.318729 
L 94.78065 62.594064 
L 94.863706 52.956704 
L 94.946763 70.154123 
L 95.112875 48.30668 
L 95.278988 81.403462 
L 95.362044 77.425443 
L 95.4451 80.596245 
L 95.611213 75.725179 
L 95.777326 62.998398 
L 95.860382 203.899364 
L 95.943438 200.483795 
L 96.026495 210.135379 
L 96.109551 210.023046 
L 96.192607 208.503636 
L 96.275664 202.243698 
L 96.35872 207.741316 
L 96.441776 206.488603 
L 96.524833 204.372806 
L 96.607889 196.932192 
L 96.690945 211.359582 
L 96.774001 199.869856 
L 96.857058 227.552313 
L 96.940114 225.909886 
L 97.02317 224.212814 
L 97.106227 235.762454 
L 97.189283 234.071093 
L 97.272339 224.80233 
L 97.355396 230.214508 
L 97.438452 228.872108 
L 97.770677 223.400372 
L 97.93679 237.575357 
L 98.019846 230.719307 
L 98.102903 240.329207 
L 98.185959 238.224945 
L 98.269015 230.515276 
L 98.435128 238.345626 
L 98.518184 239.300514 
L 98.60124 230.958135 
L 98.684297 235.112666 
L 98.767353 233.089688 
L 98.850409 239.160696 
L 99.016522 233.246041 
L 99.099578 238.325831 
L 99.182635 237.212194 
L 99.265691 239.494228 
L 99.348747 230.787307 
L 99.431804 234.544953 
L 99.51486 231.264362 
L 99.597916 238.430427 
L 99.680972 232.997558 
L 99.764029 233.179586 
L 99.847085 234.247342 
L 99.930141 231.14847 
L 100.096254 240.591802 
L 100.262367 233.821457 
L 100.345423 235.566084 
L 100.428479 239.731071 
L 100.511536 236.364653 
L 100.594592 238.539269 
L 100.843761 233.687084 
L 100.926817 239.484776 
L 101.009873 237.528433 
L 101.175986 239.864437 
L 101.342099 231.833166 
L 101.425155 237.925048 
L 101.591268 231.971696 
L 101.674324 232.546629 
L 101.75738 240.04321 
L 101.840437 231.313377 
L 102.006549 238.285805 
L 102.089606 241.413638 
L 102.172662 236.625522 
L 102.255718 240.887277 
L 102.421831 238.537764 
L 102.587943 232.226421 
L 102.671 238.70134 
L 102.754056 232.416147 
L 102.837112 232.432726 
L 102.920169 233.478842 
L 103.003225 240.461492 
L 103.169338 231.440699 
L 103.33545 238.371951 
L 103.418507 236.462744 
L 103.501563 234.822656 
L 103.584619 236.349849 
L 103.667676 240.763667 
L 103.750732 238.59289 
L 103.916844 232.385413 
L 103.999901 240.567652 
L 104.082957 231.357504 
L 104.166013 238.403525 
L 104.332126 233.623768 
L 104.498239 231.4325 
L 104.581295 238.583223 
L 104.664351 232.418313 
L 104.747408 240.631078 
L 104.91352 233.73504 
L 104.996577 234.46109 
L 105.079633 239.268033 
L 105.162689 232.254054 
L 105.328802 241.513036 
L 105.411858 234.012024 
L 105.494914 236.746405 
L 105.577971 232.524624 
L 105.744083 240.217607 
L 105.82714 232.66763 
L 105.993252 239.981251 
L 106.076309 233.979041 
L 106.159365 236.343711 
L 106.242421 235.290596 
L 106.325478 236.911123 
L 106.49159 232.745365 
L 106.574646 234.103282 
L 106.657703 240.928094 
L 106.740759 232.640379 
L 106.823815 234.536913 
L 106.906872 234.242997 
L 106.989928 238.017528 
L 107.072984 232.183585 
L 107.156041 233.922683 
L 107.239097 240.84686 
L 107.40521 232.103349 
L 107.488266 241.585783 
L 107.571322 231.25547 
L 107.654379 234.444826 
L 107.737435 234.984795 
L 107.903548 239.307841 
L 107.986604 231.474212 
L 108.06966 238.748729 
L 108.152716 233.356192 
L 108.401885 241.998008 
L 108.567998 231.093183 
L 108.734111 238.082959 
L 108.817167 238.230991 
L 108.900223 236.237153 
L 108.98328 237.139753 
L 109.066336 232.176409 
L 109.315505 240.555544 
L 109.398561 231.01453 
L 109.564674 241.290103 
L 109.64773 234.625804 
L 109.730786 235.391689 
L 109.813843 237.42811 
L 109.896899 237.348486 
L 109.979955 233.248184 
L 110.063012 239.907614 
L 110.146068 232.850558 
L 110.229124 234.788508 
L 110.478293 239.219078 
L 110.56135 233.620501 
L 110.727462 238.493561 
L 110.893575 81.828736 
L 110.976631 103.361302 
L 111.059687 84.711786 
L 111.2258 117.980723 
L 111.391913 103.997789 
L 111.558025 120.074755 
L 111.641082 84.930383 
L 111.724138 87.662797 
L 111.807194 63.132466 
L 111.973307 90.399325 
L 112.056363 92.7124 
L 112.222476 54.955164 
L 112.388588 90.45294 
L 112.471645 73.211813 
L 112.554701 80.38272 
L 112.637757 79.243123 
L 112.80387 58.504951 
L 112.969983 89.195962 
L 113.053039 46.122471 
L 113.219152 88.376477 
L 113.302208 82.264367 
L 113.385264 89.044665 
L 113.551377 54.745279 
L 113.634433 75.463779 
L 113.717489 70.839022 
L 113.800546 59.319865 
L 113.883602 66.845063 
L 114.049715 50.722214 
L 114.132771 89.371237 
L 114.215827 54.694418 
L 114.298884 69.019226 
L 114.38194 45.178295 
L 114.464996 68.003552 
L 114.548053 45.266082 
L 114.714165 78.595594 
L 114.797222 65.294652 
L 114.880278 44.791234 
L 114.963334 50.873703 
L 115.04639 85.22362 
L 115.129447 57.704186 
L 115.295559 89.307878 
L 115.378616 71.391083 
L 115.461672 79.015418 
L 115.544728 52.620713 
L 115.627785 74.380254 
L 115.710841 52.229641 
L 115.793897 89.557313 
L 115.876954 75.672081 
L 115.96001 78.684586 
L 116.043066 79.02798 
L 116.126123 86.502562 
L 116.209179 81.127031 
L 116.292235 64.475606 
L 116.375291 76.415923 
L 116.458348 70.719678 
L 116.541404 72.551385 
L 116.707517 48.668259 
L 116.956686 84.749356 
L 117.039742 46.484682 
L 117.122798 86.854394 
L 117.205855 76.123348 
L 117.288911 76.104549 
L 117.371967 75.09505 
L 117.455024 82.151101 
L 117.53808 54.179244 
L 117.621136 84.039877 
L 117.704193 60.880055 
L 117.870305 86.386876 
L 117.953361 48.47031 
L 118.036418 80.981471 
L 118.119474 52.455865 
L 118.285587 86.055984 
L 118.368643 46.390344 
L 118.451699 78.412744 
L 118.534756 50.720469 
L 118.617812 81.945043 
L 118.700868 50.97821 
L 118.783925 88.976733 
L 119.033094 47.323432 
L 119.11615 48.480211 
L 119.199206 52.528956 
L 119.282262 49.429864 
L 119.365319 80.570251 
L 119.448375 76.72999 
L 119.531431 76.513751 
L 119.697544 71.797205 
L 119.863657 208.719679 
L 119.946713 199.112913 
L 120.029769 208.580707 
L 120.112826 206.000026 
L 120.278938 197.211076 
L 120.361995 198.24108 
L 120.445051 199.939361 
L 120.528107 208.793921 
L 120.611163 201.719978 
L 120.69422 210.029225 
L 120.777276 231.241573 
L 120.860332 230.784033 
L 120.943389 235.513474 
L 121.026445 232.549841 
L 121.109501 223.923046 
L 121.192558 223.94857 
L 121.35867 235.471854 
L 121.524783 231.05358 
L 121.607839 224.022642 
L 121.690896 234.230359 
L 121.773952 232.064255 
L 121.857008 239.641189 
L 121.940065 229.544812 
L 122.023121 236.48313 
L 122.106177 231.92866 
L 122.189233 236.934684 
L 122.27229 233.636111 
L 122.438402 239.209154 
L 122.521459 230.044594 
L 122.604515 230.280833 
L 122.687571 230.63002 
L 122.770628 234.77395 
L 122.853684 232.698075 
L 122.93674 241.091182 
L 123.185909 234.658006 
L 123.352022 240.188895 
L 123.518134 232.628638 
L 123.684247 240.373259 
L 123.933416 238.678299 
L 124.016472 234.799977 
L 124.099529 235.273314 
L 124.182585 234.197302 
L 124.265641 237.970215 
L 124.348698 232.750496 
L 124.431754 239.761951 
L 124.597867 233.011302 
L 124.763979 240.867677 
L 124.847035 232.122137 
L 124.930092 238.233614 
L 125.013148 234.380386 
L 125.096204 241.82284 
L 125.179261 234.310578 
L 125.345373 241.479354 
L 125.42843 235.217365 
L 125.511486 239.387816 
L 125.594542 237.73772 
L 125.677599 241.198619 
L 125.760655 240.456202 
L 125.843711 238.752065 
L 125.926768 241.104841 
L 126.009824 231.82712 
L 126.09288 242.050758 
L 126.175936 236.651663 
L 126.258993 240.726441 
L 126.342049 238.642438 
L 126.425105 231.65499 
L 126.508162 240.292004 
L 126.591218 231.205574 
L 126.674274 239.793694 
L 126.757331 233.739691 
L 126.840387 235.941856 
L 126.923443 232.124837 
L 127.172612 239.910491 
L 127.255669 240.240763 
L 127.338725 231.763132 
L 127.421781 238.414649 
L 127.504838 237.914709 
L 127.587894 233.533388 
L 127.67095 238.290519 
L 127.754006 231.361168 
L 127.920119 235.368379 
L 128.003175 232.16533 
L 128.086232 241.55856 
L 128.169288 239.214383 
L 128.252344 236.864365 
L 128.335401 239.554322 
L 128.501513 231.73241 
L 128.667626 238.253128 
L 128.750682 231.253955 
L 128.833739 237.092435 
L 128.916795 236.593039 
L 128.999851 238.145586 
L 129.082907 231.841559 
L 129.165964 235.690121 
L 129.332076 232.946001 
L 129.415133 238.256332 
L 129.498189 237.218517 
L 129.581245 232.531701 
L 129.664302 238.014449 
L 129.830414 231.486256 
L 129.913471 235.077063 
L 130.16264 232.570482 
L 130.328752 241.539831 
L 130.494865 234.505915 
L 130.577921 237.030311 
L 130.660977 233.656108 
L 130.744034 238.085331 
L 130.82709 234.946736 
L 130.910146 240.012619 
L 130.993203 233.651517 
L 131.159315 239.813242 
L 131.242372 238.820609 
L 131.325428 233.660113 
L 131.491541 239.678019 
L 131.574597 231.189316 
L 131.657653 234.038465 
L 131.74071 231.303852 
L 131.823766 237.292974 
L 131.906822 236.750646 
L 131.989878 231.972558 
L 132.072935 236.186243 
L 132.155991 234.127123 
L 132.239047 239.269636 
L 132.322104 237.071259 
L 132.40516 240.724154 
L 132.488216 239.791596 
L 132.571273 242.108427 
L 132.654329 241.675408 
L 132.737385 231.076177 
L 132.820442 239.380589 
L 132.986554 232.637601 
L 133.152667 240.388616 
L 133.235723 233.891667 
L 133.318779 235.33649 
L 133.567948 231.097346 
L 133.734061 238.258681 
L 133.817117 234.791701 
L 133.900174 241.345735 
L 133.98323 231.978862 
L 134.066286 240.77013 
L 134.149343 238.414596 
L 134.232399 232.901496 
L 134.398512 237.671166 
L 134.481568 236.769456 
L 134.564624 232.463049 
L 134.64768 238.277176 
L 134.730737 86.672739 
L 134.813793 116.697474 
L 134.979906 87.521869 
L 135.062962 113.098295 
L 135.146018 103.550159 
L 135.229075 113.725205 
L 135.312131 92.936724 
L 135.395187 99.516156 
L 135.478244 95.675233 
L 135.5613 112.53472 
L 135.644356 111.948494 
L 135.976581 58.062411 
L 136.142694 76.587526 
L 136.22575 53.889261 
L 136.308807 64.142904 
L 136.391863 54.89566 
L 136.641032 93.360306 
L 136.724088 58.173984 
L 136.807145 85.345129 
L 136.890201 77.192097 
L 137.056314 65.437284 
L 137.13937 63.81242 
L 137.222426 83.325548 
L 137.471595 47.223701 
L 137.554651 58.104514 
L 137.637708 49.344943 
L 137.80382 63.106095 
L 137.886877 81.149917 
L 137.969933 59.721699 
L 138.052989 61.676715 
L 138.136046 62.620696 
L 138.219102 67.707687 
L 138.302158 65.952901 
L 138.385215 74.720528 
L 138.468271 66.374724 
L 138.551327 80.900156 
L 138.634384 53.469744 
L 138.800496 85.783973 
L 138.966609 59.876105 
L 139.132721 77.117555 
L 139.215778 64.401014 
L 139.298834 73.943212 
L 139.38189 47.469406 
L 139.464947 47.931338 
L 139.631059 74.807123 
L 139.714116 56.268751 
L 139.797172 87.925052 
L 140.046341 47.97961 
L 140.129397 89.041847 
L 140.29551 56.109155 
L 140.461622 85.724445 
L 140.544679 45.632774 
L 140.627735 66.172233 
L 140.710791 61.816575 
L 140.793848 78.882253 
L 140.876904 67.72341 
L 140.95996 70.179855 
L 141.043017 86.19139 
L 141.126073 84.778298 
L 141.209129 51.724495 
L 141.375242 80.764815 
L 141.541355 54.830741 
L 141.624411 86.776673 
L 141.707467 63.504236 
L 141.87358 87.926989 
L 141.956636 87.191029 
L 142.039692 51.872177 
L 142.205805 87.534201 
L 142.371918 51.427906 
L 142.454974 77.714557 
L 142.53803 70.514278 
L 142.621087 87.770536 
L 142.787199 63.467491 
L 142.870256 63.770593 
L 143.119424 84.755441 
L 143.202481 72.995972 
L 143.285537 85.077658 
L 143.45165 45.900643 
L 143.534706 45.728882 
L 143.617762 50.474861 
L 143.700819 200.748271 
L 143.783875 198.939007 
L 143.866931 206.453866 
L 143.949988 200.206283 
L 144.033044 203.372354 
L 144.1161 202.895642 
L 144.199157 197.910095 
L 144.282213 206.513301 
L 144.365269 205.860252 
L 144.448325 194.893281 
L 144.531382 210.593702 
L 144.614438 202.83025 
L 144.780551 228.292834 
L 144.863607 229.102231 
L 144.946663 232.856661 
L 145.02972 231.672971 
L 145.112776 225.234173 
L 145.445001 235.814465 
L 145.528058 223.821349 
L 145.777226 239.976366 
L 145.943339 230.108204 
L 146.109452 239.439478 
L 146.275564 232.031494 
L 146.358621 236.196174 
L 146.441677 230.718319 
L 146.524733 233.392961 
L 146.60779 230.493717 
L 146.773902 240.384394 
L 146.856959 238.358828 
L 146.940015 239.58387 
L 147.023071 231.556353 
L 147.106128 233.241562 
L 147.189184 234.195303 
L 147.355296 239.785402 
L 147.438353 233.286398 
L 147.604465 239.311439 
L 147.687522 235.096006 
L 147.770578 241.614079 
L 147.936691 236.770686 
L 148.019747 240.396799 
L 148.102803 230.933396 
L 148.268916 240.595921 
L 148.351972 239.768203 
L 148.435029 233.371852 
L 148.518085 237.257616 
L 148.601141 235.675169 
L 148.684197 241.871884 
L 148.767254 241.72019 
L 149.016423 232.104564 
L 149.099479 241.129387 
L 149.265592 231.788219 
L 149.348648 237.724548 
L 149.431704 232.733768 
L 149.514761 240.598327 
L 149.597817 231.537717 
L 149.680873 233.628309 
L 149.76393 231.482391 
L 149.930042 238.01277 
L 150.013098 231.518021 
L 150.096155 239.005294 
L 150.179211 238.365672 
L 150.345324 233.471324 
L 150.42838 231.617205 
L 150.511436 239.804903 
L 150.594493 233.102034 
L 150.677549 233.773817 
L 150.760605 241.398234 
L 150.843662 237.743623 
L 150.926718 238.923952 
L 151.009774 238.678469 
L 151.092831 231.012187 
L 151.175887 234.855963 
L 151.258943 234.009638 
L 151.342 231.083705 
L 151.425056 237.85686 
L 151.508112 233.058619 
L 151.591168 237.209064 
L 151.674225 232.29371 
L 151.757281 240.07773 
L 151.840337 231.410618 
L 151.923394 239.647056 
L 152.00645 238.432928 
L 152.089506 233.574422 
L 152.172563 237.669814 
L 152.255619 235.246546 
L 152.338675 237.095587 
L 152.421732 233.730608 
L 152.587844 241.458535 
L 152.753957 236.759592 
L 152.837013 240.220529 
L 153.003126 237.599441 
L 153.086182 241.470582 
L 153.252295 232.126366 
L 153.335351 240.404454 
L 153.501464 234.607804 
L 153.58452 237.380775 
L 153.667576 234.196969 
L 153.916745 242.036 
L 153.999802 234.302931 
L 154.082858 234.646183 
L 154.165914 241.685173 
L 154.332027 231.056425 
L 154.415083 237.364935 
L 154.498139 236.447308 
L 154.581196 231.837246 
L 154.747308 235.541931 
L 154.913421 232.352099 
L 154.996477 236.956437 
L 155.079534 236.750556 
L 155.16259 237.756868 
L 155.245646 231.195701 
L 155.411759 241.1787 
L 155.494815 232.367994 
L 155.660928 241.342196 
L 155.910097 232.200875 
L 155.993153 239.814031 
L 156.076209 232.780373 
L 156.242322 241.502013 
L 156.325378 231.13763 
L 156.491491 238.832297 
L 156.657604 232.425643 
L 156.823716 239.941922 
L 156.906773 240.660634 
L 156.989829 238.753397 
L 157.072885 233.304861 
L 157.322054 240.241264 
L 157.40511 238.359379 
L 157.488167 231.498324 
L 157.571223 238.243024 
L 157.654279 230.953687 
L 157.820392 240.094607 
L 157.903448 232.049566 
L 157.986505 236.917258 
L 158.152617 231.003546 
L 158.235674 241.552126 
L 158.31873 241.026478 
L 158.401786 233.978219 
L 158.567899 240.036556 
L 158.650955 118.571248 
L 158.734011 119.244157 
L 158.817068 90.328811 
L 158.900124 114.918731 
L 159.066237 96.805759 
L 159.232349 119.042077 
L 159.315406 89.982433 
L 159.398462 119.679574 
L 159.564575 85.763954 
L 159.730687 72.196876 
L 159.8968 78.612507 
L 160.062912 56.484145 
L 160.145969 80.953353 
L 160.395138 53.49738 
L 160.56125 75.823419 
L 160.644307 78.273981 
L 160.727363 47.715519 
L 160.810419 84.378687 
L 160.893476 64.744821 
L 161.059588 78.259875 
L 161.142645 72.600833 
L 161.225701 45.921978 
L 161.308757 88.32545 
L 161.391813 64.802677 
L 161.47487 87.085197 
L 161.557926 83.852746 
L 161.724039 66.774365 
L 161.973208 85.892595 
L 162.056264 76.130051 
L 162.13932 46.184201 
L 162.222377 47.170648 
L 162.305433 74.700855 
L 162.471546 48.755749 
L 162.554602 89.539483 
L 162.720714 46.768915 
L 162.803771 85.496605 
L 162.886827 82.327968 
L 162.969883 46.209641 
L 163.135996 88.981879 
L 163.551278 44.642754 
L 163.634334 76.589923 
L 163.71739 65.258832 
L 163.800447 65.480138 
L 163.966559 81.938862 
L 164.049615 45.407011 
L 164.132672 51.01764 
L 164.381841 79.313001 
L 164.547953 58.174326 
L 164.63101 66.292039 
L 164.714066 44.817678 
L 164.880179 72.80928 
L 164.963235 54.676847 
L 165.046291 81.871973 
L 165.129348 72.197205 
L 165.212404 73.894698 
L 165.29546 70.059737 
L 165.378516 54.24169 
L 165.461573 67.692904 
L 165.544629 53.68871 
L 165.710742 74.114013 
L 165.793798 52.965314 
L 165.959911 79.433239 
L 166.042967 66.772298 
L 166.20908 89.164247 
L 166.292136 60.273028 
L 166.375192 66.4744 
L 166.458249 69.438324 
L 166.541305 45.869645 
L 166.624361 63.757389 
L 166.707418 50.548965 
L 166.790474 83.271732 
L 166.956586 50.343401 
L 167.039643 63.219231 
L 167.122699 57.121592 
L 167.288812 85.396087 
L 167.537981 50.384958 
L 167.621037 207.198925 
L 167.704093 194.132278 
L 167.78715 194.28769 
L 167.870206 207.133182 
L 167.953262 205.317648 
L 168.119375 194.134303 
L 168.285487 205.806783 
L 168.4516 199.175783 
L 168.534656 206.66596 
L 168.700769 235.363558 
L 168.783825 235.393461 
L 168.866882 231.128629 
L 168.949938 231.543914 
L 169.032994 232.0228 
L 169.116051 229.803187 
L 169.282163 233.584181 
L 169.36522 232.100804 
L 169.448276 223.679366 
L 169.614388 235.753056 
L 169.697445 234.227654 
L 169.780501 229.520708 
L 169.863557 238.103215 
L 170.02967 232.614227 
L 170.112726 233.871512 
L 170.195783 239.873811 
L 170.278839 233.066789 
L 170.361895 240.157105 
L 170.528008 232.341198 
L 170.611064 239.479699 
L 170.694121 232.319381 
L 170.777177 241.530384 
L 170.860233 232.294507 
L 171.109402 240.356121 
L 171.192458 231.051327 
L 171.275515 241.049983 
L 171.358571 239.614543 
L 171.524684 234.832974 
L 171.60774 235.908332 
L 171.690796 240.649189 
L 171.773853 238.793321 
L 171.856909 239.369885 
L 171.939965 239.655009 
L 172.106078 234.107366 
L 172.189134 239.610784 
L 172.272191 237.922973 
L 172.355247 237.648824 
L 172.438303 231.026119 
L 172.521359 231.272575 
L 172.604416 233.066359 
L 172.770528 241.340382 
L 173.102754 233.319628 
L 173.18581 232.408762 
L 173.268866 232.56087 
L 173.351923 238.044356 
L 173.434979 234.342364 
L 173.601092 241.430879 
L 173.684148 234.191685 
L 173.767204 242.00804 
L 174.016373 234.284203 
L 174.099429 233.460825 
L 174.182486 238.682941 
L 174.265542 232.948032 
L 174.348598 238.797947 
L 174.431655 237.07578 
L 174.680824 230.962225 
L 174.76388 239.574859 
L 174.846936 234.635164 
L 174.929993 235.229929 
L 175.013049 231.778846 
L 175.096105 240.352258 
L 175.179161 233.624073 
L 175.262218 235.697883 
L 175.345274 239.015474 
L 175.42833 236.758165 
L 175.511387 238.347547 
L 175.677499 232.073741 
L 175.760556 235.686172 
L 175.843612 234.98088 
L 175.926668 236.257447 
L 176.009725 241.540937 
L 176.175837 236.559667 
L 176.34195 240.065232 
L 176.425006 236.422591 
L 176.591119 239.202575 
L 176.674175 236.87624 
L 176.757231 240.613029 
L 176.840288 231.635937 
L 176.923344 232.314406 
L 177.0064 234.123262 
L 177.089457 240.918914 
L 177.255569 232.989498 
L 177.338626 233.443659 
L 177.421682 240.831319 
L 177.587795 232.691556 
L 177.670851 235.595228 
L 177.753907 234.814946 
L 177.836964 236.939766 
L 177.92002 236.144909 
L 178.003076 241.730642 
L 178.086132 234.899065 
L 178.169189 241.198766 
L 178.252245 237.203599 
L 178.335301 238.812203 
L 178.418358 235.955973 
L 178.501414 240.611537 
L 178.667527 233.13578 
L 178.833639 240.940391 
L 178.916696 240.474821 
L 178.999752 232.207902 
L 179.248921 240.913287 
L 179.415033 232.311044 
L 179.49809 232.760923 
L 179.581146 235.044923 
L 179.664202 241.268468 
L 179.747259 240.849046 
L 179.830315 241.561915 
L 179.913371 239.209676 
L 179.996428 240.586167 
L 180.16254 237.768087 
L 180.245597 231.463765 
L 180.328653 235.222086 
L 180.411709 232.684223 
L 180.494766 234.092404 
L 180.577822 240.847847 
L 180.660878 233.803485 
L 180.743935 239.010581 
L 180.826991 234.897428 
L 180.910047 238.266355 
L 180.993103 230.845796 
L 181.07616 239.141062 
L 181.159216 238.965026 
L 181.242272 231.602869 
L 181.325329 241.840615 
L 181.491441 233.923194 
L 181.74061 231.095182 
L 181.823667 241.381486 
L 181.906723 232.832637 
L 181.989779 234.816047 
L 182.072836 234.804384 
L 182.155892 240.668785 
L 182.322004 231.017433 
L 182.405061 231.815908 
L 182.488117 237.157089 
L 182.65423 106.164662 
L 182.737286 88.334704 
L 182.820342 93.132852 
L 182.986455 117.966553 
L 183.235624 84.409657 
L 183.401737 108.110203 
L 183.567849 92.780331 
L 183.650905 53.036608 
L 183.733962 79.890457 
L 183.817018 74.725493 
L 183.900074 80.099845 
L 183.983131 65.753388 
L 184.066187 66.642493 
L 184.149243 64.314893 
L 184.2323 83.920307 
L 184.315356 81.836685 
L 184.398412 90.185038 
L 184.481469 66.93721 
L 184.564525 89.006958 
L 184.730638 51.721945 
L 184.813694 50.772352 
L 185.062863 87.336923 
L 185.228975 53.898058 
L 185.312032 79.803269 
L 185.395088 71.867069 
L 185.561201 50.221801 
L 185.644257 78.840496 
L 185.727313 64.963611 
L 185.893426 85.219418 
L 185.976482 48.686899 
L 186.059539 52.777544 
L 186.142595 55.507528 
L 186.225651 87.617133 
L 186.308708 51.729239 
L 186.47482 74.361514 
L 186.557876 64.929475 
L 186.640933 85.495362 
L 186.723989 55.432404 
L 186.807045 63.304589 
L 186.890102 81.191845 
L 186.973158 81.117642 
L 187.056214 81.297649 
L 187.139271 87.047593 
L 187.305383 51.650134 
L 187.38844 88.832688 
L 187.471496 87.408991 
L 187.637609 52.546244 
L 187.720665 74.81698 
L 187.803721 73.783094 
L 187.886777 62.63174 
L 188.05289 88.381741 
L 188.135946 56.3548 
L 188.219003 61.307337 
L 188.302059 63.336371 
L 188.385115 56.063031 
L 188.468172 59.066467 
L 188.551228 80.271086 
L 188.634284 73.645111 
L 188.717341 83.876609 
L 188.800397 83.707258 
L 188.96651 50.769572 
L 189.049566 46.062998 
L 189.298735 84.80135 
L 189.381791 52.837338 
L 189.464847 63.417927 
L 189.547904 61.629542 
L 189.63096 54.254218 
L 189.714016 57.78804 
L 189.797073 51.858882 
L 189.880129 87.034193 
L 190.046242 51.117878 
L 190.129298 76.642152 
L 190.212354 60.627846 
L 190.295411 75.375379 
L 190.378467 46.276314 
L 190.461523 88.064277 
L 190.54458 63.36897 
L 190.627636 82.048967 
L 190.710692 57.383471 
L 190.793748 81.624702 
L 190.876805 78.935717 
L 191.042917 48.225617 
L 191.20903 83.055241 
L 191.292086 55.270148 
L 191.375143 66.947473 
L 191.458199 48.363465 
L 191.541255 208.959505 
L 191.624312 199.932246 
L 191.790424 208.776074 
L 191.873481 199.254243 
L 191.956537 200.87677 
L 192.039593 197.963413 
L 192.122649 206.015319 
L 192.205706 203.511166 
L 192.288762 204.279537 
L 192.371818 193.818506 
L 192.537931 232.286237 
L 192.704044 228.872064 
L 192.7871 232.824028 
L 192.870156 224.433817 
L 192.953213 232.654914 
L 193.036269 224.680274 
L 193.119325 234.707776 
L 193.285438 224.538914 
L 193.368494 233.881694 
L 193.45155 223.762605 
L 193.534607 235.658516 
L 193.617663 229.956067 
L 193.866832 238.719924 
L 193.949888 237.384279 
L 194.032945 239.822447 
L 194.116001 239.234066 
L 194.199057 239.687728 
L 194.36517 231.693266 
L 194.531283 240.39538 
L 194.614339 234.569632 
L 194.780452 240.766768 
L 194.863508 239.980645 
L 194.946564 231.387125 
L 195.02962 232.54817 
L 195.112677 237.855026 
L 195.195733 234.428937 
L 195.278789 235.774878 
L 195.444902 234.124083 
L 195.527958 234.959014 
L 195.694071 241.629093 
L 195.860184 231.992965 
L 195.94324 235.629007 
L 196.109353 230.854564 
L 196.192409 240.219701 
L 196.275465 234.245962 
L 196.358521 234.443715 
L 196.524634 230.970298 
L 196.690747 239.356047 
L 196.773803 233.084235 
L 196.856859 240.899706 
L 197.022972 231.822503 
L 197.106028 237.782632 
L 197.189085 234.982033 
L 197.272141 237.247953 
L 197.355197 237.161807 
L 197.438254 238.601586 
L 197.604366 231.540672 
L 197.687422 231.488985 
L 197.770479 240.144129 
L 197.853535 232.234839 
L 197.936591 233.786411 
L 198.102704 241.358798 
L 198.18576 239.090827 
L 198.268817 231.811505 
L 198.517986 239.21337 
L 198.601042 233.990293 
L 198.684098 241.801325 
L 198.850211 235.037029 
L 198.933267 240.468255 
L 199.016323 232.819481 
L 199.09938 239.463329 
L 199.182436 234.748575 
L 199.265492 237.540524 
L 199.348549 235.384037 
L 199.514661 241.927979 
L 199.597718 231.841379 
L 199.680774 239.072377 
L 199.846887 230.826835 
L 199.929943 239.73 
L 200.012999 239.122765 
L 200.179112 231.20991 
L 200.262168 231.770757 
L 200.345225 236.436798 
L 200.428281 233.134664 
L 200.511337 240.585214 
L 200.594393 231.074433 
L 200.67745 231.222287 
L 200.760506 240.269016 
L 200.843562 238.735727 
L 200.926619 240.987376 
L 201.009675 239.048788 
L 201.092731 232.899118 
L 201.258844 241.120237 
L 201.3419 238.252078 
L 201.424957 231.029854 
L 201.674126 240.237269 
L 201.757182 230.97569 
L 201.840238 232.843827 
L 202.006351 241.327339 
L 202.089407 241.479241 
L 202.172463 240.758863 
L 202.338576 231.624438 
L 202.421632 236.506088 
L 202.504689 232.594146 
L 202.587745 237.080749 
L 202.753858 233.849222 
L 202.836914 240.153368 
L 202.91997 238.037492 
L 203.003027 234.917832 
L 203.086083 241.320244 
L 203.335252 230.862155 
L 203.418308 236.757051 
L 203.501364 232.897977 
L 203.584421 237.236902 
L 203.667477 233.120195 
L 203.750533 235.391142 
L 203.83359 232.100919 
L 203.916646 237.475603 
L 204.082759 235.000132 
L 204.414984 241.930705 
L 204.49804 232.248505 
L 204.664153 239.729147 
L 204.747209 233.802186 
L 204.830265 238.503035 
L 204.913322 236.400988 
L 204.996378 240.282778 
L 205.079434 231.27435 
L 205.162491 232.496563 
L 205.245547 232.358615 
L 205.328603 237.522709 
L 205.41166 233.504715 
L 205.577772 242.021696 
L 205.660829 241.893401 
L 205.743885 235.490726 
L 205.826941 236.97331 
L 205.909998 236.265724 
L 205.993054 242.034756 
L 206.159166 234.005209 
L 206.242223 237.116828 
L 206.325279 233.845308 
L 206.408335 239.486067 
L 206.491392 88.843686 
L 206.574448 97.476763 
L 206.657504 111.986251 
L 206.740561 110.989004 
L 206.906673 88.198346 
L 207.072786 110.159932 
L 207.155842 86.77409 
L 207.238899 94.371115 
L 207.321955 102.868652 
L 207.405011 101.339026 
L 207.571124 68.19581 
L 207.65418 79.948215 
L 207.737236 52.024859 
L 207.820293 74.623947 
L 207.903349 74.373954 
L 207.986405 70.868042 
L 208.069462 55.483551 
L 208.152518 60.56655 
L 208.235574 75.89772 
L 208.318631 64.166839 
L 208.5678 82.154725 
L 208.650856 69.951582 
L 208.733912 79.750994 
L 208.816968 49.69365 
L 208.900025 75.726048 
L 208.983081 48.012391 
L 209.066137 66.846258 
L 209.149194 62.421421 
L 209.23225 66.402146 
L 209.315306 84.982225 
L 209.398363 73.910342 
L 209.481419 85.342781 
L 209.564475 61.695924 
L 209.647532 69.644897 
L 209.730588 54.697187 
L 209.896701 82.389454 
L 210.062813 47.98875 
L 210.14587 57.747267 
L 210.395038 86.016923 
L 210.478095 45.13284 
L 210.644207 76.726686 
L 210.727264 63.152157 
L 210.81032 84.676152 
L 210.893376 45.97962 
L 210.976433 81.725288 
L 211.059489 60.340502 
L 211.142545 78.531909 
L 211.308658 54.520753 
L 211.474771 61.811295 
L 211.557827 49.248122 
L 211.640883 86.030709 
L 211.723939 74.628247 
L 211.806996 78.362686 
L 211.890052 44.929857 
L 211.973108 71.985398 
L 212.056165 56.473025 
L 212.139221 58.63736 
L 212.222277 79.999071 
L 212.305334 78.78255 
L 212.38839 76.871343 
L 212.471446 70.994422 
L 212.637559 88.688321 
L 212.803672 45.932953 
L 212.969784 74.276714 
L 213.05284 89.255992 
L 213.218953 52.268345 
L 213.302009 82.950135 
L 213.385066 82.359938 
L 213.468122 53.864556 
L 213.551178 61.71968 
L 213.634235 87.547345 
L 213.717291 61.436908 
L 213.800347 75.612414 
L 213.883404 72.90922 
L 214.049516 52.922084 
L 214.132573 71.479532 
L 214.215629 46.765275 
L 214.298685 71.203547 
L 214.381742 54.689299 
L 214.464798 67.704196 
L 214.63091 48.545337 
L 214.713967 85.623557 
L 214.797023 47.246694 
L 214.880079 52.261835 
L 214.963136 53.80871 
L 215.046192 80.493791 
L 215.212305 51.150051 
L 215.295361 76.505533 
L 215.378417 46.534063 
L 215.461474 210.708761 
L 215.54453 208.899939 
L 215.710643 201.200249 
L 215.793699 199.946309 
L 215.876755 211.303409 
L 215.959811 194.247397 
L 216.042868 210.804077 
L 216.125924 209.023734 
L 216.20898 211.356827 
L 216.375093 194.755425 
L 216.458149 227.589386 
L 216.541206 225.606132 
L 216.624262 235.849229 
L 216.707318 229.157811 
L 216.790375 230.20129 
L 216.873431 229.702599 
L 216.956487 235.103412 
L 217.039544 227.355408 
L 217.1226 229.648781 
L 217.205656 226.333935 
L 217.537881 238.904086 
L 217.620938 230.804443 
L 217.78705 239.079759 
L 217.870107 229.763726 
L 218.036219 240.055239 
L 218.119276 233.645784 
L 218.202332 237.969022 
L 218.368445 231.435889 
L 218.451501 230.760212 
L 218.617613 236.709512 
L 218.70067 233.320181 
L 218.783726 240.370966 
L 218.866782 235.665429 
L 218.949839 235.673013 
L 219.032895 240.859153 
L 219.282064 232.154392 
L 219.448177 241.044179 
L 219.531233 239.099071 
L 219.614289 232.176283 
L 219.697346 240.612328 
L 219.780402 233.926791 
L 219.863458 240.926045 
L 219.946515 235.022309 
L 220.029571 238.042994 
L 220.112627 233.147308 
L 220.195683 239.427131 
L 220.27874 234.840618 
L 220.361796 239.404599 
L 220.527909 232.235222 
L 220.610965 240.67624 
L 220.694021 232.315265 
L 220.860134 240.672751 
L 220.94319 237.277347 
L 221.026247 240.291319 
L 221.192359 233.532776 
L 221.275416 240.913637 
L 221.524584 231.540825 
L 221.607641 236.316544 
L 221.690697 231.381318 
L 221.85681 237.664895 
L 221.939866 232.534736 
L 222.105979 236.78678 
L 222.189035 236.578755 
L 222.272091 232.550761 
L 222.355148 232.718486 
L 222.52126 238.352934 
L 222.687373 235.64699 
L 222.770429 239.425973 
L 222.853485 233.147717 
L 223.102654 240.912053 
L 223.185711 239.420234 
L 223.268767 231.392596 
L 223.43488 240.211046 
L 223.517936 236.913672 
L 223.684049 241.721802 
L 223.933218 235.884961 
L 224.016274 238.090116 
L 224.09933 237.064748 
L 224.182387 231.209127 
L 224.348499 239.201229 
L 224.431555 239.368008 
L 224.597668 233.536818 
L 224.680724 239.791504 
L 224.763781 234.104329 
L 224.846837 241.880102 
L 225.01295 233.352127 
L 225.096006 238.291542 
L 225.179062 235.749087 
L 225.262119 239.802905 
L 225.345175 233.734841 
L 225.428231 241.528354 
L 225.511288 232.485702 
L 225.594344 239.879548 
L 225.6774 232.238745 
L 225.760456 238.13565 
L 225.843513 233.953056 
L 225.926569 238.511971 
L 226.009625 231.882653 
L 226.092682 240.688139 
L 226.175738 240.101886 
L 226.258794 236.548047 
L 226.341851 241.193216 
L 226.424907 239.90459 
L 226.59102 231.085151 
L 226.674076 237.867509 
L 226.757132 231.68633 
L 226.923245 239.071107 
L 227.172414 230.942373 
L 227.25547 239.12416 
L 227.338526 234.525088 
L 227.421583 241.53124 
L 227.504639 240.834933 
L 227.587695 242.074811 
L 227.670752 230.825588 
L 227.753808 233.05372 
L 227.836864 233.229437 
L 228.086033 240.409862 
L 228.252146 237.870765 
L 228.335202 233.57309 
L 228.584371 241.915366 
L 228.667427 240.962775 
L 228.83354 231.574386 
L 228.916596 234.916698 
L 228.999653 233.05878 
L 229.248822 240.894207 
L 229.331878 232.2214 
L 229.414934 233.269697 
L 229.497991 240.219421 
L 229.581047 236.330751 
L 229.664103 236.61195 
L 229.830216 231.42756 
L 230.079385 241.550458 
L 230.162441 241.408258 
L 230.245497 240.002144 
L 230.328554 241.75218 
L 230.41161 91.524887 
L 230.494666 92.294127 
L 230.577723 114.856385 
L 230.660779 87.962482 
L 230.743835 114.136812 
L 230.826892 108.512728 
L 230.909948 110.518129 
L 230.993004 105.779953 
L 231.076061 110.299648 
L 231.159117 101.298659 
L 231.242173 104.43143 
L 231.325229 82.180841 
L 231.408286 93.224409 
L 231.491342 89.44278 
L 231.574398 93.36034 
L 231.657455 68.237961 
L 231.740511 93.286537 
L 231.823567 59.004811 
L 231.906624 73.231726 
L 231.98968 72.571065 
L 232.072736 71.054692 
L 232.155793 88.187469 
L 232.238849 87.009134 
L 232.321905 81.698632 
L 232.404962 64.130809 
L 232.571074 85.568474 
L 232.65413 47.210312 
L 232.737187 89.80735 
L 232.820243 54.731998 
L 232.903299 55.390731 
L 233.069412 84.701609 
L 233.152468 84.252246 
L 233.235525 59.461293 
L 233.318581 61.915442 
L 233.484694 47.496869 
L 233.650806 82.782863 
L 233.733863 78.82864 
L 233.816919 51.798538 
L 233.983032 86.544689 
L 234.066088 58.069676 
L 234.149144 71.646942 
L 234.2322 48.284233 
L 234.398313 85.537579 
L 234.481369 46.792096 
L 234.564426 77.939826 
L 234.647482 74.385591 
L 234.730538 71.446236 
L 234.813595 87.30869 
L 234.896651 67.187086 
L 234.979707 84.050932 
L 235.228876 54.700658 
L 235.311933 53.330101 
L 235.394989 82.650658 
L 235.478045 73.017616 
L 235.561101 72.710192 
L 235.644158 82.741161 
L 235.727214 53.49727 
L 235.81027 57.620302 
L 235.893327 80.979804 
L 235.976383 73.0099 
L 236.059439 84.802352 
L 236.142496 61.191784 
L 236.225552 84.098788 
L 236.308608 45.023856 
L 236.391665 54.291306 
L 236.474721 71.938549 
L 236.640834 48.385755 
L 236.806946 81.689556 
L 236.973059 51.468117 
L 237.056115 60.459427 
L 237.139171 60.165126 
L 237.305284 49.170787 
L 237.38834 48.001917 
L 237.471397 85.287945 
L 237.637509 56.105204 
L 237.720566 55.363169 
L 237.803622 62.152433 
L 237.886678 82.036464 
L 237.969735 53.532923 
L 238.052791 57.027167 
L 238.135847 85.681776 
L 238.218903 68.611556 
L 238.30196 81.711485 
L 238.385016 74.321245 
L 238.468072 88.757418 
L 238.634185 64.72112 
L 238.883354 51.77566 
L 239.049467 84.129073 
L 239.132523 51.086573 
L 239.215579 82.496011 
L 239.298636 45.5171 
L 239.464748 202.554679 
L 239.547805 193.866743 
L 239.630861 209.849693 
L 239.713917 206.130969 
L 239.796973 200.07152 
L 239.88003 205.282305 
L 239.963086 194.825832 
L 240.046142 210.423723 
L 240.212255 200.927724 
L 240.295311 199.809303 
L 240.378368 232.781714 
L 240.461424 231.403523 
L 240.54448 225.340073 
L 240.627537 233.550203 
L 240.710593 225.552847 
L 240.793649 228.896599 
L 240.876706 226.371412 
L 240.959762 226.98622 
L 241.042818 233.391139 
L 241.208931 225.035801 
L 241.4581 235.666248 
L 241.541156 239.24659 
L 241.707269 229.886789 
L 241.790325 237.199311 
L 241.956438 230.701971 
L 242.12255 239.935375 
L 242.205607 232.515029 
L 242.288663 237.29429 
L 242.371719 232.985833 
L 242.454775 236.849187 
L 242.537832 236.365379 
L 242.620888 233.042763 
L 242.703944 237.533727 
L 242.787001 236.843823 
L 242.953113 237.704293 
L 243.119226 232.692043 
L 243.202282 237.767559 
L 243.368395 234.484051 
L 243.451451 239.022794 
L 243.534508 238.931367 
L 243.617564 231.512959 
L 243.70062 233.886778 
L 243.783677 235.542037 
L 243.866733 234.744273 
L 243.949789 241.738883 
L 244.032845 235.079256 
L 244.115902 236.307503 
L 244.198958 235.897603 
L 244.365071 241.188525 
L 244.448127 239.92425 
L 244.531183 231.364233 
L 244.61424 237.490298 
L 244.697296 236.834982 
L 244.863409 241.684759 
L 244.946465 234.003909 
L 245.029521 236.027906 
L 245.112578 236.36005 
L 245.195634 239.361588 
L 245.27869 233.692328 
L 245.361746 240.218082 
L 245.444803 239.972902 
L 245.527859 236.913227 
L 245.693972 239.322856 
L 245.860084 234.763371 
L 245.943141 232.802379 
L 246.109253 241.293255 
L 246.19231 239.026768 
L 246.275366 231.045424 
L 246.524535 242.035946 
L 246.607591 236.263573 
L 246.690647 241.695028 
L 246.939816 231.176344 
L 247.105929 236.941559 
L 247.188985 231.440778 
L 247.355098 241.385751 
L 247.438154 236.856577 
L 247.521211 239.404416 
L 247.604267 236.810489 
L 247.687323 236.972511 
L 247.77038 235.541087 
L 247.936492 240.262898 
L 248.102605 232.738132 
L 248.268717 238.295668 
L 248.351774 231.548057 
L 248.43483 231.811512 
L 248.600943 241.673684 
L 248.767055 232.767427 
L 248.850112 231.182611 
L 248.933168 232.064297 
L 249.182337 241.804494 
L 249.431506 235.017248 
L 249.514562 235.822368 
L 249.597618 233.727602 
L 249.680675 238.957834 
L 249.763731 235.735352 
L 249.846787 241.123115 
L 250.179013 230.925227 
L 250.262069 238.97903 
L 250.345125 236.48975 
L 250.428182 238.395527 
L 250.511238 237.140451 
L 250.594294 232.435899 
L 250.677351 234.387802 
L 250.760407 232.14786 
L 250.843463 239.819494 
L 250.926519 232.250461 
L 251.009576 241.443797 
L 251.092632 232.078276 
L 251.258745 238.564375 
L 251.424857 231.48967 
L 251.507914 241.579177 
L 251.674026 232.440172 
L 251.840139 239.868695 
L 252.089308 231.775256 
L 252.25542 236.411486 
L 252.338477 230.950901 
L 252.504589 241.461023 
L 252.670702 237.191668 
L 252.753758 240.346151 
L 252.836815 231.411986 
L 252.919871 233.454006 
L 253.002927 239.087551 
L 253.252096 231.483018 
L 253.335153 232.156966 
L 253.418209 236.297624 
L 253.501265 233.365827 
L 253.750434 240.822549 
L 253.83349 240.693783 
L 253.916547 236.135572 
L 254.082659 241.881378 
L 254.165716 233.951298 
L 254.248772 241.752002 
L 254.331828 97.213764 
L 254.414885 99.368397 
L 254.497941 82.862956 
L 254.664054 117.639998 
L 254.913223 81.785906 
L 255.079335 107.778043 
L 255.162391 85.251111 
L 255.245448 112.736219 
L 255.328504 68.694461 
L 255.41156 77.888852 
L 255.494617 93.875205 
L 255.826842 54.079082 
L 255.909898 83.924518 
L 255.992955 60.099723 
L 256.076011 93.249247 
L 256.159067 72.083827 
L 256.242124 92.58327 
L 256.32518 48.83146 
L 256.408236 56.364927 
L 256.491292 61.235095 
L 256.574349 53.779587 
L 256.657405 61.703691 
L 256.740461 47.262988 
L 256.823518 58.718811 
L 256.906574 49.252624 
L 257.072687 85.535557 
L 257.155743 67.065394 
L 257.238799 85.094892 
L 257.321856 63.07104 
L 257.404912 68.036914 
L 257.487968 61.713018 
L 257.571025 89.365084 
L 257.654081 81.022741 
L 257.820194 46.908985 
L 257.90325 72.500948 
L 257.986306 70.660738 
L 258.069362 57.554309 
L 258.152419 62.560944 
L 258.235475 76.323884 
L 258.318531 71.059613 
L 258.401588 79.786074 
L 258.484644 45.971269 
L 258.5677 83.720345 
L 258.650757 72.821005 
L 258.733813 88.45579 
L 258.816869 79.601723 
L 258.899926 54.355829 
L 259.066038 86.005522 
L 259.149095 68.184024 
L 259.232151 89.172904 
L 259.315207 85.75323 
L 259.398263 53.082714 
L 259.48132 54.716671 
L 259.564376 48.223537 
L 259.647432 50.963484 
L 259.730489 58.707396 
L 259.813545 87.219091 
L 259.979658 51.370459 
L 260.062714 53.468858 
L 260.228827 79.058059 
L 260.311883 51.369354 
L 260.394939 56.710267 
L 260.477996 45.248143 
L 260.561052 82.539543 
L 260.644108 79.376953 
L 260.727164 80.003688 
L 260.810221 53.755363 
L 260.976333 86.563641 
L 261.05939 44.443636 
L 261.142446 88.454841 
L 261.225502 51.825217 
L 261.308559 73.06101 
L 261.391615 51.535389 
L 261.474671 64.507069 
L 261.640784 47.712629 
L 261.72384 89.163743 
L 261.806897 86.166464 
L 261.889953 78.25918 
L 262.056065 49.426584 
L 262.139122 68.786377 
L 262.222178 62.140821 
L 262.305234 81.05477 
L 262.471347 45.853012 
L 262.554403 77.434423 
L 262.63746 67.209334 
L 262.720516 85.682347 
L 262.803572 64.302595 
L 262.886629 66.849668 
L 262.969685 83.046362 
L 263.052741 69.593987 
L 263.135798 74.473672 
L 263.218854 65.988755 
L 263.384967 211.456606 
L 263.468023 197.85171 
L 263.551079 198.719368 
L 263.717192 210.653153 
L 263.883304 194.341258 
L 263.966361 207.268416 
L 264.049417 205.761087 
L 264.132473 208.286983 
L 264.21553 201.179572 
L 264.298586 234.057707 
L 264.381642 231.509481 
L 264.464699 227.196231 
L 264.630811 231.126416 
L 264.713868 230.698822 
L 264.796924 228.903491 
L 264.87998 235.943088 
L 264.963036 235.023724 
L 265.046093 224.864509 
L 265.129149 235.031709 
L 265.212205 227.072326 
L 265.295262 230.253169 
L 265.378318 237.76671 
L 265.461374 236.611855 
L 265.710543 230.000146 
L 265.7936 232.341405 
L 265.876656 239.896473 
L 265.959712 233.156094 
L 266.208881 240.330046 
L 266.291937 239.705728 
L 266.374994 232.899658 
L 266.541106 238.449994 
L 266.624163 237.514928 
L 266.707219 232.174308 
L 266.790275 233.371007 
L 266.956388 240.54092 
L 267.039444 239.01387 
L 267.122501 231.420902 
L 267.288613 236.036376 
L 267.37167 235.324798 
L 267.454726 237.930332 
L 267.537782 232.941536 
L 267.703895 240.749802 
L 267.786951 240.610489 
L 267.953064 231.47725 
L 268.03612 238.582674 
L 268.119176 232.235379 
L 268.202233 233.428015 
L 268.368345 241.69861 
L 268.451402 240.95827 
L 268.534458 233.876058 
L 268.617514 239.852704 
L 268.700571 237.913308 
L 268.866683 233.910255 
L 268.94974 240.829612 
L 269.115852 236.627145 
L 269.198908 235.997025 
L 269.281965 232.871944 
L 269.365021 240.179193 
L 269.448077 232.99092 
L 269.531134 234.289842 
L 269.61419 235.837973 
L 269.697246 234.214706 
L 269.863359 240.55525 
L 269.946415 234.59621 
L 270.029472 236.190503 
L 270.112528 234.894412 
L 270.195584 238.299838 
L 270.278641 231.871863 
L 270.444753 241.154074 
L 270.693922 233.145689 
L 270.776978 236.530341 
L 270.860035 232.008803 
L 270.943091 239.094542 
L 271.026147 237.479489 
L 271.109204 231.965307 
L 271.19226 231.99175 
L 271.275316 234.370811 
L 271.358373 232.412956 
L 271.441429 241.115985 
L 271.524485 232.344995 
L 271.690598 240.104013 
L 271.773654 239.414305 
L 271.85671 237.396213 
L 271.939767 239.280719 
L 272.022823 238.496803 
L 272.105879 240.593885 
L 272.271992 235.652512 
L 272.355048 237.12632 
L 272.438105 238.201306 
L 272.604217 232.022787 
L 272.687274 233.567676 
L 272.77033 238.367614 
L 272.853386 233.707193 
L 273.019499 240.646547 
L 273.185612 232.992378 
L 273.351724 241.404349 
L 273.43478 240.630823 
L 273.517837 232.415618 
L 273.600893 234.957593 
L 273.683949 239.258017 
L 273.767006 235.84447 
L 273.850062 236.157652 
L 273.933118 234.712927 
L 274.016175 239.484162 
L 274.099231 232.351685 
L 274.182287 238.623348 
L 274.265344 234.275681 
L 274.3484 241.936885 
L 274.431456 237.908213 
L 274.514513 238.144909 
L 274.597569 235.977934 
L 274.680625 241.297197 
L 274.763681 233.190924 
L 274.846738 239.658252 
L 275.01285 233.043116 
L 275.095907 235.770106 
L 275.178963 233.747408 
L 275.262019 234.640334 
L 275.345076 238.101745 
L 275.428132 232.979314 
L 275.511188 238.789081 
L 275.677301 233.696395 
L 275.843414 238.697936 
L 276.092582 231.611349 
L 276.175639 235.959866 
L 276.258695 234.644788 
L 276.341751 231.912462 
L 276.424808 241.005548 
L 276.507864 239.496693 
L 276.673977 232.811109 
L 276.757033 232.435007 
L 276.923146 241.109582 
L 277.006202 237.172334 
L 277.089258 239.51188 
L 277.172315 238.828685 
L 277.255371 233.392777 
L 277.338427 241.265662 
L 277.421484 232.767756 
L 277.50454 237.2866 
L 277.587596 235.383807 
L 277.670652 241.106053 
L 277.753709 238.307066 
L 277.836765 241.105503 
L 277.919821 231.254034 
L 278.002878 232.997358 
L 278.16899 239.592469 
L 278.252047 84.221423 
L 278.335103 106.844553 
L 278.418159 113.898678 
L 278.584272 83.82498 
L 278.667328 119.936323 
L 278.750385 110.93505 
L 278.833441 84.029616 
L 278.999553 115.732821 
L 279.331779 52.072249 
L 279.497891 92.428732 
L 279.580948 52.14819 
L 279.74706 83.075932 
L 279.830117 71.217581 
L 280.079286 95.613734 
L 280.245398 53.197015 
L 280.328454 65.082422 
L 280.411511 45.903361 
L 280.577623 78.194875 
L 280.66068 83.617838 
L 280.743736 83.424016 
L 280.826792 77.982301 
L 280.992905 50.10183 
L 281.075961 46.987011 
L 281.159018 80.358811 
L 281.242074 50.03323 
L 281.408187 84.724558 
L 281.491243 50.542123 
L 281.574299 61.102207 
L 281.657355 82.382012 
L 281.740412 70.414286 
L 281.823468 76.850646 
L 281.906524 56.556692 
L 281.989581 69.349562 
L 282.072637 45.158458 
L 282.155693 87.347231 
L 282.23875 73.581128 
L 282.404862 66.888029 
L 282.487919 75.347031 
L 282.654031 50.095733 
L 282.737088 47.204986 
L 282.820144 53.243211 
L 282.9032 51.187774 
L 282.986257 64.745609 
L 283.069313 52.303544 
L 283.152369 75.908799 
L 283.235425 71.57461 
L 283.318482 75.261073 
L 283.401538 68.460204 
L 283.484594 76.677223 
L 283.567651 46.123151 
L 283.733763 85.153097 
L 283.81682 65.774202 
L 283.899876 87.003676 
L 283.982932 84.588206 
L 284.149045 68.597469 
L 284.232101 69.994478 
L 284.315158 53.432103 
L 284.398214 56.153797 
L 284.564326 74.493785 
L 284.647383 75.272791 
L 284.730439 54.593544 
L 284.896552 88.997016 
L 284.979608 53.61956 
L 285.145721 83.66097 
L 285.228777 78.927789 
L 285.311833 47.427384 
L 285.39489 50.726903 
L 285.561002 67.779211 
L 285.644059 66.057229 
L 285.727115 45.495583 
L 285.810171 45.923796 
L 285.893227 79.845174 
L 285.976284 52.914429 
L 286.05934 80.659935 
L 286.142396 79.923437 
L 286.225453 59.016359 
L 286.308509 71.269269 
L 286.391565 47.470377 
L 286.474622 85.55156 
L 286.640734 48.05899 
L 286.723791 48.710202 
L 286.806847 82.49979 
L 286.889903 73.003232 
L 286.97296 61.591384 
L 287.056016 82.370266 
L 287.139072 45.821642 
L 287.305185 208.59185 
L 287.471297 210.066071 
L 287.554354 195.168053 
L 287.63741 208.109608 
L 287.720466 204.084041 
L 287.803523 203.495261 
L 287.886579 200.780472 
L 287.969635 210.313272 
L 288.052692 207.510553 
L 288.135748 194.769463 
L 288.301861 226.129651 
L 288.384917 235.771776 
L 288.55103 228.07015 
L 288.634086 232.534628 
L 288.717142 224.505995 
L 288.883255 235.107291 
L 289.049367 223.896251 
L 289.132424 235.033817 
L 289.21548 234.738906 
L 289.298536 237.388569 
L 289.381593 236.353275 
L 289.464649 238.820026 
L 289.630762 229.81416 
L 289.796874 239.939345 
L 289.879931 233.72483 
L 289.962987 236.962085 
L 290.046043 230.995006 
L 290.295212 239.705235 
L 290.378268 233.146597 
L 290.461325 238.859579 
L 290.544381 233.163977 
L 290.627437 239.537406 
L 290.710494 238.222643 
L 290.79355 236.589955 
L 290.876606 231.166129 
L 290.959663 231.296294 
L 291.042719 239.526227 
L 291.125775 237.807857 
L 291.208832 240.3805 
L 291.458 231.882278 
L 291.541057 231.551502 
L 291.624113 237.731956 
L 291.707169 236.5085 
L 291.790226 231.933445 
L 291.873282 232.946052 
L 291.956338 242.028918 
L 292.122451 237.29982 
L 292.37162 241.682293 
L 292.454676 234.838112 
L 292.620789 241.517709 
L 292.703845 239.498851 
L 292.869958 232.485995 
L 293.03607 237.406992 
L 293.119127 231.057853 
L 293.202183 239.852788 
L 293.285239 239.685615 
L 293.368296 238.821106 
L 293.451352 240.166999 
L 293.534408 237.83241 
L 293.617465 231.82703 
L 293.783577 237.464258 
L 293.866634 231.560625 
L 293.94969 241.571461 
L 294.032746 239.743052 
L 294.198859 235.163592 
L 294.281915 241.672103 
L 294.531084 234.231174 
L 294.61414 234.908365 
L 294.780253 241.062348 
L 294.863309 237.29289 
L 294.946366 240.664214 
L 295.029422 231.411325 
L 295.195535 238.534187 
L 295.278591 233.460162 
L 295.444704 238.615828 
L 295.610816 232.32062 
L 295.693872 234.514368 
L 295.776929 241.588408 
L 295.943041 233.494165 
L 296.026098 240.576658 
L 296.109154 239.5352 
L 296.19221 232.147251 
L 296.275267 241.89172 
L 296.358323 233.613576 
L 296.607492 242.038899 
L 296.690548 232.86022 
L 296.773605 238.053212 
L 297.10583 231.316901 
L 297.271942 237.602418 
L 297.354999 231.342624 
L 297.604168 240.690092 
L 297.687224 232.598564 
L 297.77028 238.026582 
L 297.853337 234.656048 
L 298.019449 239.871261 
L 298.102506 235.320273 
L 298.185562 241.433393 
L 298.351675 235.94256 
L 298.434731 237.191933 
L 298.600843 232.763871 
L 298.6839 233.404354 
L 298.766956 241.680516 
L 298.850012 239.925511 
L 299.016125 231.555978 
L 299.099181 232.684415 
L 299.182238 232.598789 
L 299.265294 238.692958 
L 299.34835 237.2665 
L 299.431407 236.800301 
L 299.597519 241.76803 
L 299.680576 231.419469 
L 299.846688 239.407762 
L 299.929744 241.176937 
L 300.012801 231.627327 
L 300.095857 235.568293 
L 300.178913 234.581842 
L 300.26197 231.818639 
L 300.345026 238.213719 
L 300.428082 235.096307 
L 300.511139 241.680669 
L 300.594195 240.008633 
L 300.677251 232.726347 
L 300.760308 233.454916 
L 300.843364 238.156967 
L 300.92642 237.86128 
L 301.009477 236.090139 
L 301.092533 242.116364 
L 301.175589 239.393124 
L 301.258645 239.766152 
L 301.341702 239.288731 
L 301.424758 233.012679 
L 301.590871 239.954974 
L 301.756983 232.33765 
L 301.923096 241.231659 
L 302.089209 233.670925 
L 302.255321 88.703405 
L 302.338378 83.217274 
L 302.587547 101.129976 
L 302.670603 118.544079 
L 302.753659 82.267188 
L 302.919772 114.23508 
L 303.002828 94.469445 
L 303.085884 109.161514 
L 303.251997 69.951029 
L 303.335053 76.13448 
L 303.41811 59.01889 
L 303.501166 84.059558 
L 303.584222 76.007216 
L 303.833391 61.30513 
L 303.916448 78.367048 
L 303.999504 67.352092 
L 304.08256 89.073207 
L 304.165616 48.893679 
L 304.248673 73.585178 
L 304.331729 58.019588 
L 304.414785 89.881064 
L 304.497842 81.576451 
L 304.663954 51.337521 
L 304.747011 67.106842 
L 304.830067 49.018469 
L 305.079236 85.415045 
L 305.162292 53.583424 
L 305.245349 78.669606 
L 305.411461 48.700274 
L 305.494517 47.233727 
L 305.577574 66.333291 
L 305.743686 54.67322 
L 305.826743 83.904105 
L 305.909799 62.688953 
L 305.992855 88.270297 
L 306.075912 67.356456 
L 306.158968 82.626432 
L 306.242024 81.357555 
L 306.491193 61.463769 
L 306.57425 86.260153 
L 306.657306 66.862805 
L 306.740362 81.371012 
L 306.906475 60.820652 
L 306.989531 64.467075 
L 307.072587 56.261642 
L 307.155644 74.416074 
L 307.2387 55.004424 
L 307.321756 70.024909 
L 307.404813 67.701036 
L 307.487869 60.292582 
L 307.570925 88.754609 
L 307.653982 60.026282 
L 307.737038 61.626637 
L 307.903151 85.706762 
L 307.986207 85.474401 
L 308.069263 47.858129 
L 308.15232 58.422522 
L 308.235376 83.831751 
L 308.484545 51.810408 
L 308.567601 87.603144 
L 308.650657 78.881198 
L 308.733714 49.361706 
L 308.81677 89.162264 
L 308.899826 80.473703 
L 308.982883 46.230611 
L 309.315108 88.300765 
L 309.398164 78.512907 
L 309.481221 49.733317 
L 309.564277 70.776381 
L 309.730389 48.070055 
L 309.896502 80.929556 
L 310.062615 48.531139 
L 310.145671 53.218252 
L 310.228727 86.599253 
L 310.311784 58.271501 
L 310.39484 63.725825 
L 310.477896 48.558809 
L 310.560953 84.038695 
L 310.727065 49.824385 
L 310.976234 86.389946 
L 311.05929 77.003018 
L 311.142347 205.743332 
L 311.225403 194.523004 
L 311.308459 206.499759 
L 311.391516 203.277995 
L 311.474572 199.473455 
L 311.557628 208.678031 
L 311.806797 195.938025 
L 312.055966 209.327078 
L 312.222079 234.339512 
L 312.305135 226.213402 
L 312.388192 232.665915 
L 312.471248 224.20218 
L 312.554304 226.90583 
L 312.63736 226.477387 
L 312.720417 233.244997 
L 312.969586 226.272875 
L 313.052642 234.701647 
L 313.135698 229.763411 
L 313.218755 230.598181 
L 313.301811 237.770586 
L 313.384867 231.378751 
L 313.634036 237.260482 
L 313.800149 232.453342 
L 313.883205 236.143916 
L 314.049318 232.807133 
L 314.132374 233.801059 
L 314.21543 241.285001 
L 314.298487 232.113584 
L 314.464599 238.895588 
L 314.547656 239.130062 
L 314.713768 231.80608 
L 314.796825 237.579321 
L 314.879881 233.362756 
L 314.962937 240.775752 
L 315.12905 230.853865 
L 315.212106 233.356281 
L 315.295162 239.689103 
L 315.378219 236.398748 
L 315.461275 239.427874 
L 315.627388 233.247178 
L 315.710444 233.34738 
L 315.7935 239.490357 
L 315.876557 231.63952 
L 316.042669 237.773161 
L 316.208782 235.270952 
L 316.374895 236.61209 
L 316.457951 236.402693 
L 316.541007 240.115558 
L 316.624064 232.924009 
L 316.790176 240.627891 
L 316.956289 231.571063 
L 317.039345 231.403086 
L 317.205458 240.587801 
L 317.288514 236.261382 
L 317.37157 240.846648 
L 317.454627 231.565409 
L 317.537683 240.044712 
L 317.620739 239.262935 
L 317.869908 233.139719 
L 318.036021 240.189475 
L 318.119077 239.099724 
L 318.202133 236.366313 
L 318.28519 240.452918 
L 318.368246 235.207626 
L 318.451302 235.726372 
L 318.617415 231.523406 
L 318.700471 231.810981 
L 318.783528 231.428817 
L 318.94964 240.632452 
L 319.032697 238.703483 
L 319.198809 231.135278 
L 319.281866 232.409064 
L 319.364922 240.875931 
L 319.447978 231.413536 
L 319.614091 242.013884 
L 319.697147 237.120217 
L 319.780203 241.598524 
L 319.86326 235.973487 
L 319.946316 238.293564 
L 320.195485 232.301988 
L 320.361598 237.214511 
L 320.52771 231.886377 
L 320.610767 240.765848 
L 320.693823 236.10846 
L 320.859935 241.587314 
L 321.026048 232.370128 
L 321.109104 240.278353 
L 321.275217 232.476062 
L 321.358273 231.787412 
L 321.44133 239.121473 
L 321.524386 231.904785 
L 321.607442 238.495728 
L 321.690499 235.877892 
L 321.856611 241.623248 
L 321.939668 233.979162 
L 322.188837 239.967492 
L 322.271893 234.548885 
L 322.354949 242.11455 
L 322.438005 233.012844 
L 322.521062 241.223599 
L 322.604118 239.955332 
L 322.770231 236.64038 
L 322.936343 238.49517 
L 323.0194 231.227228 
L 323.185512 241.854304 
L 323.351625 232.231844 
L 323.517738 241.050639 
L 323.600794 233.549647 
L 323.68385 235.271377 
L 323.766906 235.674787 
L 323.849963 241.513694 
L 323.933019 240.531505 
L 324.016075 235.084532 
L 324.099132 239.770762 
L 324.265244 235.962145 
L 324.348301 238.915571 
L 324.431357 231.402268 
L 324.514413 232.599585 
L 324.59747 233.95656 
L 324.680526 241.237788 
L 324.763582 240.919861 
L 324.846639 236.550858 
L 324.929695 240.303091 
L 325.012751 231.065085 
L 325.095807 240.327873 
L 325.178864 236.610899 
L 325.26192 238.004667 
L 325.344976 234.89428 
L 325.428033 240.661028 
L 325.511089 237.256686 
L 325.594145 239.015032 
L 325.677202 232.087856 
L 325.760258 241.660485 
L 325.843314 231.794338 
L 325.926371 232.706592 
L 326.009427 238.756659 
L 326.092483 89.760022 
L 326.17554 118.884296 
L 326.258596 82.937839 
L 326.424709 108.43184 
L 326.507765 106.153532 
L 326.590821 117.532276 
L 326.673877 82.074037 
L 326.756934 118.573935 
L 326.83999 94.922851 
L 326.923046 103.074175 
L 327.006103 83.627428 
L 327.089159 84.891131 
L 327.172215 72.34838 
L 327.255272 74.528691 
L 327.338328 64.860988 
L 327.421384 92.694622 
L 327.504441 87.180171 
L 327.587497 86.269314 
L 327.670553 63.314038 
L 327.75361 87.384057 
L 327.836666 70.533087 
L 327.919722 86.239545 
L 328.085835 48.465192 
L 328.335004 80.279375 
L 328.41806 88.558411 
L 328.750285 48.381815 
L 328.833342 72.99131 
L 328.916398 59.621605 
L 329.165567 77.730206 
L 329.497792 47.354267 
L 329.663905 87.913543 
L 329.830017 65.23941 
L 329.913074 82.214543 
L 330.079186 45.116879 
L 330.162243 46.88617 
L 330.245299 80.716655 
L 330.328355 50.06789 
L 330.411412 57.789065 
L 330.494468 69.115186 
L 330.577524 65.194516 
L 330.660581 51.232059 
L 330.826693 72.759072 
L 330.992806 63.453946 
L 331.075862 81.038746 
L 331.158918 48.866728 
L 331.241975 59.113647 
L 331.325031 60.962987 
L 331.408087 85.087486 
L 331.491144 62.277969 
L 331.657256 86.027502 
L 331.740313 65.751887 
L 331.823369 71.379961 
L 331.906425 62.972349 
L 331.989482 85.551835 
L 332.072538 70.096981 
L 332.155594 81.676528 
L 332.23865 44.961637 
L 332.321707 64.213694 
L 332.404763 58.505798 
L 332.570876 85.294524 
L 332.653932 45.469175 
L 332.736988 76.638209 
L 332.820045 70.421271 
L 332.903101 60.204017 
L 332.986157 88.460261 
L 333.069214 52.952641 
L 333.318383 86.79039 
L 333.401439 82.230316 
L 333.484495 49.120968 
L 333.567551 58.567846 
L 333.733664 86.609923 
L 333.81672 58.360337 
L 333.899777 63.703117 
L 334.148946 79.775004 
L 334.315058 45.702054 
L 334.398115 81.632613 
L 334.481171 62.585963 
L 334.73034 78.087614 
L 334.813396 52.279913 
L 334.896452 67.641897 
L 334.979509 65.013602 
L 335.145621 208.323222 
L 335.228678 210.056997 
L 335.311734 198.699393 
L 335.39479 208.062413 
L 335.477847 199.134089 
L 335.560903 204.552449 
L 335.643959 204.093264 
L 335.727016 203.127778 
L 335.810072 204.962271 
L 335.893128 209.791057 
L 335.976185 206.01226 
L 336.059241 227.61739 
L 336.142297 227.591446 
L 336.225354 232.394985 
L 336.30841 230.194461 
L 336.391466 233.56913 
L 336.474522 233.354936 
L 336.557579 235.725636 
L 336.640635 224.668494 
L 336.723691 233.350702 
L 336.806748 233.137745 
L 336.889804 232.478801 
L 336.97286 234.404891 
L 337.055917 233.501959 
L 337.138973 240.029269 
L 337.222029 239.345904 
L 337.305086 233.438391 
L 337.388142 236.968592 
L 337.471198 232.70722 
L 337.637311 237.936366 
L 337.720367 233.368142 
L 337.803423 239.553354 
L 337.88648 234.692043 
L 337.969536 235.840585 
L 338.052592 238.833624 
L 338.301761 230.53362 
L 338.55093 239.318052 
L 338.633987 238.95599 
L 338.717043 236.431365 
L 338.800099 237.705007 
L 338.883156 231.49972 
L 339.049268 237.84645 
L 339.132324 237.732328 
L 339.215381 232.607729 
L 339.46455 238.290968 
L 339.547606 232.819416 
L 339.630662 241.63636 
L 339.713719 232.221173 
L 339.879831 237.565887 
L 340.045944 234.566352 
L 340.129 241.965052 
L 340.212057 232.259252 
L 340.461226 240.546905 
L 340.627338 236.500002 
L 340.710394 237.547405 
L 340.793451 234.439269 
L 340.876507 237.352451 
L 340.959563 231.24361 
L 341.04262 235.347495 
L 341.125676 232.994914 
L 341.208732 240.88341 
L 341.291789 237.629857 
L 341.374845 238.312845 
L 341.540958 232.388854 
L 341.70707 241.299021 
L 341.790127 232.510842 
L 341.873183 239.713967 
L 341.956239 234.562447 
L 342.039295 235.984785 
L 342.122352 232.707728 
L 342.205408 240.705633 
L 342.288464 240.652592 
L 342.454577 231.425393 
L 342.62069 238.424774 
L 342.786802 231.605396 
L 342.869859 232.662143 
L 342.952915 230.870527 
L 343.035971 241.864071 
L 343.119028 240.843836 
L 343.28514 232.846907 
L 343.451253 239.416099 
L 343.534309 233.22658 
L 343.617365 241.481995 
L 343.783478 236.403648 
L 343.866534 235.787375 
L 343.949591 233.886032 
L 344.032647 238.109474 
L 344.115703 235.196003 
L 344.19876 235.504583 
L 344.281816 235.931248 
L 344.364872 234.881886 
L 344.530985 241.16259 
L 344.614041 240.771365 
L 344.697097 239.581397 
L 344.86321 232.622425 
L 344.946266 234.194757 
L 345.029323 233.203249 
L 345.112379 238.153205 
L 345.195435 237.546664 
L 345.278492 237.670642 
L 345.444604 241.427364 
L 345.610717 230.941341 
L 345.77683 241.591567 
L 345.859886 233.310696 
L 345.942942 239.264968 
L 346.025999 232.744449 
L 346.109055 234.164889 
L 346.192111 231.43336 
L 346.275167 237.498375 
L 346.358224 234.639097 
L 346.44128 236.866417 
L 346.524336 234.993691 
L 346.690449 239.987619 
L 346.939618 232.959593 
L 347.105731 234.618511 
L 347.188787 240.837859 
L 347.271843 233.976416 
L 347.3549 236.465842 
L 347.521012 231.724919 
L 347.604068 241.49584 
L 347.687125 232.846171 
L 347.770181 241.693122 
L 347.936294 235.991318 
L 348.01935 240.445608 
L 348.102406 233.686044 
L 348.185463 242.024682 
L 348.268519 240.213986 
L 348.517688 231.761392 
L 348.849913 242.104573 
L 348.932969 240.761336 
L 349.099082 234.490394 
L 349.182138 237.402091 
L 349.265195 233.862711 
L 349.431307 241.280926 
L 349.514364 239.949381 
L 349.59742 232.627448 
L 349.680476 233.927868 
L 349.763533 232.00864 
L 349.846589 240.790738 
L 349.929645 230.929975 
L 350.012702 112.038361 
L 350.095758 119.630911 
L 350.178814 81.763867 
L 350.261871 109.285007 
L 350.344927 94.419093 
L 350.427983 113.295587 
L 350.594096 85.351703 
L 350.677152 107.78256 
L 350.760208 94.333246 
L 350.843265 112.864481 
L 351.009377 80.925557 
L 351.092434 86.416474 
L 351.17549 81.945696 
L 351.258546 87.83553 
L 351.341603 56.134168 
L 351.507715 84.922717 
L 351.590772 76.01707 
L 351.673828 81.623274 
L 351.83994 53.095722 
L 351.922997 76.471899 
L 352.006053 52.111126 
L 352.172166 83.730776 
L 352.255222 59.767197 
L 352.338278 67.727765 
L 352.504391 50.823782 
L 352.587447 71.007446 
L 352.670504 50.307559 
L 352.75356 57.069487 
L 352.836616 68.843288 
L 352.919673 63.69386 
L 353.002729 75.120568 
L 353.085785 45.414996 
L 353.251898 87.839218 
L 353.334954 75.073583 
L 353.41801 61.679655 
L 353.584123 88.740415 
L 353.667179 69.502691 
L 353.750236 74.799636 
L 353.833292 70.032034 
L 353.999405 82.180202 
L 354.082461 58.482706 
L 354.165517 66.371194 
L 354.248574 80.578916 
L 354.414686 62.881054 
L 354.497742 86.359524 
L 354.580799 82.960353 
L 354.663855 86.313602 
L 354.746911 52.916779 
L 354.829968 55.623877 
L 354.913024 55.583042 
L 355.079137 59.330658 
L 355.162193 68.026114 
L 355.245249 60.555803 
L 355.328306 87.850541 
L 355.494418 54.427218 
L 355.743587 77.045703 
L 355.9097 58.272353 
L 355.992756 50.210586 
L 356.075812 74.103732 
L 356.158869 54.784405 
L 356.241925 64.204401 
L 356.324981 49.674137 
L 356.491094 66.180726 
L 356.57415 63.457674 
L 356.740263 45.974505 
L 356.906376 87.161394 
L 356.989432 47.199296 
L 357.072488 65.625495 
L 357.155545 61.782403 
L 357.238601 67.770245 
L 357.321657 85.341809 
L 357.404713 54.858641 
L 357.48777 55.801692 
L 357.653882 75.733476 
L 357.736939 51.70597 
L 357.819995 86.304542 
L 357.903051 49.750522 
L 357.986108 77.973967 
L 358.15222 47.269255 
L 358.318333 70.843107 
L 358.401389 58.40884 
L 358.567502 77.043029 
L 358.650558 44.526207 
L 358.899727 73.516145 
L 359.06584 211.048712 
L 359.231952 197.833147 
L 359.315009 201.894736 
L 359.398065 196.409356 
L 359.481121 211.00587 
L 359.564178 204.979562 
L 359.647234 207.324123 
L 359.73029 203.523797 
L 359.813347 210.301682 
L 359.896403 194.360124 
L 359.979459 233.191891 
L 360.062516 224.345003 
L 360.145572 230.6274 
L 360.228628 223.544966 
L 360.311684 229.005399 
L 360.394741 224.237113 
L 360.477797 235.949615 
L 360.64391 224.588712 
L 360.810022 234.800785 
L 360.976135 230.095335 
L 361.225304 239.265792 
L 361.30836 240.889596 
L 361.391417 231.524776 
L 361.474473 239.885425 
L 361.640585 230.315902 
L 361.723642 238.484465 
L 361.806698 233.201003 
L 361.889754 239.988127 
L 361.972811 235.020082 
L 362.055867 240.013763 
L 362.138923 233.519123 
L 362.22198 238.454886 
L 362.388092 235.069182 
L 362.471149 239.930406 
L 362.554205 233.454585 
L 362.637261 238.438888 
L 362.720318 234.354557 
L 362.803374 240.077897 
L 362.88643 234.062244 
L 362.969486 240.620409 
L 363.052543 237.259303 
L 363.135599 239.274263 
L 363.218655 233.605819 
L 363.301712 239.106541 
L 363.467824 231.983393 
L 363.550881 239.848435 
L 363.633937 235.127404 
L 363.716993 241.078147 
L 363.883106 234.002289 
L 363.966162 234.656679 
L 364.049219 235.049105 
L 364.132275 238.916114 
L 364.215331 237.836976 
L 364.298387 240.945851 
L 364.381444 233.983099 
L 364.4645 236.414492 
L 364.547556 234.099023 
L 364.630613 239.295823 
L 364.713669 238.4426 
L 364.796725 238.332102 
L 364.879782 241.818389 
L 365.128951 231.979979 
L 365.37812 241.770781 
L 365.461176 232.184435 
L 365.544232 241.972077 
L 365.627289 231.443795 
L 365.793401 238.255366 
L 365.876457 231.675794 
L 365.959514 241.843479 
L 366.04257 235.549222 
L 366.125626 235.916373 
L 366.208683 239.640856 
L 366.457852 233.9028 
L 366.540908 242.110987 
L 366.623964 231.533024 
L 366.707021 240.260017 
L 366.790077 239.479723 
L 366.873133 239.141944 
L 366.95619 241.691735 
L 367.039246 240.728648 
L 367.122302 230.973734 
L 367.288415 240.816231 
L 367.371471 240.910129 
L 367.537584 232.462808 
L 367.703696 241.882818 
L 367.786753 239.59826 
L 367.869809 241.480483 
L 367.952865 240.950766 
L 368.035922 237.243221 
L 368.118978 239.521103 
L 368.202034 236.289108 
L 368.285091 239.254711 
L 368.368147 231.491398 
L 368.451203 231.882288 
L 368.617316 238.11424 
L 368.783428 237.465324 
L 368.866485 233.897736 
L 368.949541 237.01575 
L 369.115654 231.4512 
L 369.19871 238.323032 
L 369.281766 235.783467 
L 369.364823 241.044987 
L 369.447879 239.853868 
L 369.530935 237.447092 
L 369.613992 239.78908 
L 369.697048 232.21431 
L 369.780104 240.330517 
L 370.029273 234.301306 
L 370.112329 237.790559 
L 370.195386 232.298621 
L 370.444555 241.359295 
L 370.610667 232.845106 
L 370.693724 235.175023 
L 370.77678 232.715989 
L 371.025949 241.964962 
L 371.275118 233.189471 
L 371.358174 238.7772 
L 371.44123 236.518399 
L 371.939568 241.493853 
L 372.022625 239.88029 
L 372.105681 242.01512 
L 372.188737 235.031322 
L 372.271794 238.544173 
L 372.35485 231.122947 
L 372.437906 239.930163 
L 372.520963 238.211365 
L 372.604019 238.075627 
L 372.687075 242.023588 
L 372.770131 232.636378 
L 372.853188 241.757562 
L 372.936244 231.495437 
L 373.0193 232.039009 
L 373.102357 236.067907 
L 373.185413 235.976678 
L 373.268469 234.731662 
L 373.351526 237.745579 
L 373.434582 234.805738 
L 373.517638 241.613222 
L 373.600695 241.508371 
L 373.849864 232.087108 
L 374.015976 88.478481 
L 374.099032 112.013749 
L 374.182089 104.943328 
L 374.265145 107.92005 
L 374.348201 104.710065 
L 374.431258 114.301648 
L 374.59737 89.285477 
L 374.680427 103.120351 
L 374.763483 101.234782 
L 374.929596 64.721057 
L 375.012652 74.173646 
L 375.095708 84.378354 
L 375.178765 56.879023 
L 375.344877 85.980709 
L 375.427934 83.877494 
L 375.51099 60.465055 
L 375.594046 93.740907 
L 375.677102 52.180631 
L 375.760159 89.961422 
L 375.843215 60.774783 
L 375.926271 73.058788 
L 376.009328 68.681044 
L 376.092384 51.229781 
L 376.341553 88.580036 
L 376.424609 90.689466 
L 376.590722 60.21825 
L 376.756835 85.683927 
L 377.006003 57.672772 
L 377.172116 86.225708 
L 377.255172 47.365235 
L 377.338229 78.051088 
L 377.504341 50.837071 
L 377.587398 54.943782 
L 377.670454 82.196799 
L 377.75351 52.71913 
L 377.836567 55.091495 
L 378.168792 84.115517 
L 378.334904 63.176898 
L 378.417961 73.385749 
L 378.501017 68.143089 
L 378.584073 73.19707 
L 378.750186 48.897715 
L 378.833242 82.216238 
L 378.916299 72.346108 
L 378.999355 83.217612 
L 379.165468 56.642158 
L 379.248524 47.46542 
L 379.33158 76.980385 
L 379.414637 46.638398 
L 379.497693 86.725105 
L 379.580749 62.3304 
L 379.663806 87.002156 
L 379.746862 49.189137 
L 379.829918 65.63898 
L 379.996031 51.991099 
L 380.162143 87.832269 
L 380.2452 49.85291 
L 380.411312 83.746947 
L 380.577425 62.534326 
L 380.660481 88.17672 
L 380.743538 77.15181 
L 380.826594 88.094041 
L 381.075763 45.16076 
L 381.241875 82.269219 
L 381.324932 48.632125 
L 381.491044 82.62576 
L 381.574101 47.914499 
L 381.657157 55.338662 
L 381.82327 57.521213 
L 381.906326 80.519623 
L 381.989382 80.037498 
L 382.072439 58.464941 
L 382.155495 79.643546 
L 382.404664 54.141288 
L 382.48772 69.087966 
L 382.653833 51.670326 
L 382.819945 79.25018 
L 382.903002 206.656246 
L 382.986058 205.918078 
L 383.069114 209.498458 
L 383.152171 206.671653 
L 383.235227 207.82223 
L 383.40134 195.186243 
L 383.484396 209.721264 
L 383.567452 198.588227 
L 383.650509 199.184573 
L 383.733565 209.879027 
L 383.816621 194.930694 
L 383.982734 231.414165 
L 384.06579 226.442902 
L 384.148846 232.76021 
L 384.231903 227.240565 
L 384.314959 235.514743 
L 384.398015 225.394144 
L 384.481072 230.345464 
L 384.564128 227.959614 
L 384.647184 233.217425 
L 384.813297 226.244189 
L 384.896353 235.423284 
L 384.97941 233.751147 
L 385.062466 235.618683 
L 385.145522 230.553394 
L 385.228579 235.137995 
L 385.311635 231.158345 
L 385.394691 231.62646 
L 385.560804 238.236474 
L 385.64386 236.200043 
L 385.726916 231.338749 
L 385.809973 238.264845 
L 385.976085 232.722729 
L 386.059142 237.861692 
L 386.142198 234.583476 
L 386.308311 240.634275 
L 386.391367 232.855711 
L 386.474423 240.751343 
L 386.55748 238.793797 
L 386.640536 232.166248 
L 386.723592 237.941262 
L 386.806648 230.827223 
L 386.889705 230.989045 
L 387.055817 241.606791 
L 387.138874 234.095696 
L 387.304986 240.930714 
L 387.388043 234.067878 
L 387.471099 241.717671 
L 387.554155 232.227964 
L 387.720268 240.630319 
L 387.803324 240.083341 
L 387.886381 231.256621 
L 387.969437 234.275288 
L 388.052493 233.052413 
L 388.218606 238.308397 
L 388.301662 239.459241 
L 388.467775 235.872686 
L 388.550831 234.969155 
L 388.633887 239.203432 
L 388.716944 231.38786 
L 388.8 240.190754 
L 388.8 240.190754 
" clip-path="url(#p9ca05bb6ae)" style="fill: none; stroke: #1f77b4; stroke-width: 1.5; stroke-linecap: square"/>
   </g>
   <g id="patch_3">
    <path d="M 54 252 
L 54 34.56 
" style="fill: none; stroke: #000000; stroke-width: 0.8; stroke-linejoin: miter; stroke-linecap: square"/>
   </g>
   <g id="patch_4">
    <path d="M 388.8 252 
L 388.8 34.56 
" style="fill: none; stroke: #000000; stroke-width: 0.8; stroke-linejoin: miter; stroke-linecap: square"/>
   </g>
   <g id="patch_5">
    <path d="M 54 252 
L 388.8 252 
" style="fill: none; stroke: #000000; stroke-width: 0.8; stroke-linejoin: miter; stroke-linecap: square"/>
   </g>
   <g id="patch_6">
    <path d="M 54 34.56 
L 388.8 34.56 
" style="fill: none; stroke: #000000; stroke-width: 0.8; stroke-linejoin: miter; stroke-linecap: square"/>
   </g>
  </g>
 </g>
 <defs>
  <clipPath id="p9ca05bb6ae">
   <rect x="54" y="34.56" width="334.8" height="217.44"/>
  </clipPath>
 </defs>
</svg>
