<?xml version="1.0" encoding="UTF-8"?>
<svg id="Layer_1" data-name="Layer 1" xmlns="http://www.w3.org/2000/svg" xmlns:xlink="http://www.w3.org/1999/xlink" viewBox="0 0 432 307.1">
  <defs>
    <style>
      .cls-1, .cls-2, .cls-3 {
        fill: none;
      }

      .cls-4 {
        font-family: AnonymousPro, 'Anonymous Pro';
      }

      .cls-4, .cls-5, .cls-6, .cls-7, .cls-8 {
        fill: #fff;
      }

      .cls-4, .cls-7 {
        font-size: 12px;
      }

      .cls-9 {
        clip-path: url(#clippath);
      }

      .cls-5 {
        stroke-width: .6px;
      }

      .cls-5, .cls-2, .cls-3, .cls-6, .cls-8 {
        stroke: #fff;
      }

      .cls-5, .cls-2, .cls-6 {
        stroke-linejoin: round;
      }

      .cls-2 {
        stroke-width: 1.5px;
      }

      .cls-2, .cls-8 {
        stroke-linecap: square;
      }

      .cls-3 {
        stroke-miterlimit: 10;
      }

      .cls-6, .cls-8 {
        stroke-width: .8px;
      }

      .cls-7 {
        font-family: SourceCodePro-Medium, 'Source Code Pro';
      }
    </style>
    <clipPath id="clippath">
      <rect class="cls-3" x="54" y="34.56" width="334.8" height="217.44"/>
    </clipPath>
  </defs>
  <path class="cls-1" d="M0,288H432V0H0V288Z"/>
  <path id="m1db8ba08cb" class="cls-6" d="M54,252v3.5"/>
  <path id="mbf5451650f" class="cls-5" d="M77.92,252v2"/>
  <path id="mbf5451650f-2" data-name="mbf5451650f" class="cls-5" d="M101.84,252v2"/>
  <path id="mbf5451650f-3" data-name="mbf5451650f" class="cls-5" d="M125.76,252v2"/>
  <path id="mbf5451650f-4" data-name="mbf5451650f" class="cls-5" d="M149.68,252v2"/>
  <path id="mbf5451650f-5" data-name="mbf5451650f" class="cls-5" d="M173.6,252v2"/>
  <path id="mbf5451650f-6" data-name="mbf5451650f" class="cls-5" d="M197.52,252v2"/>
  <path id="mbf5451650f-7" data-name="mbf5451650f" class="cls-5" d="M221.44,252v2"/>
  <path id="mbf5451650f-8" data-name="mbf5451650f" class="cls-5" d="M245.36,252v2"/>
  <path id="mbf5451650f-9" data-name="mbf5451650f" class="cls-5" d="M269.28,252v2"/>
  <path id="mbf5451650f-10" data-name="mbf5451650f" class="cls-5" d="M293.2,252v2"/>
  <path id="mbf5451650f-11" data-name="mbf5451650f" class="cls-5" d="M317.12,252v2"/>
  <path id="mbf5451650f-12" data-name="mbf5451650f" class="cls-5" d="M341.04,252v2"/>
  <path id="mbf5451650f-13" data-name="mbf5451650f" class="cls-5" d="M364.96,252v2"/>
  <path id="m790d5a7fa4" class="cls-6" d="M54,236.47h-3.5"/>
  <path id="m790d5a7fa4-2" data-name="m790d5a7fa4" class="cls-6" d="M54,208.22h-3.5"/>
  <path id="m790d5a7fa4-3" data-name="m790d5a7fa4" class="cls-6" d="M54,179.97h-3.5"/>
  <path id="m790d5a7fa4-4" data-name="m790d5a7fa4" class="cls-6" d="M54,151.72h-3.5"/>
  <path id="m790d5a7fa4-5" data-name="m790d5a7fa4" class="cls-6" d="M54,123.47h-3.5"/>
  <path id="m790d5a7fa4-6" data-name="m790d5a7fa4" class="cls-6" d="M54,95.22h-3.5"/>
  <path id="m790d5a7fa4-7" data-name="m790d5a7fa4" class="cls-6" d="M54,66.98h-3.5"/>
  <path id="m790d5a7fa4-8" data-name="m790d5a7fa4" class="cls-6" d="M54,38.73h-3.5"/>
  <g>
    <g class="cls-9">
      <path class="cls-2" d="M54,241.2l.08-10.3,.08,9.45,.08-9.4,.08,.13,.25,4.51,.08-3.26,.08,6.52,.08-2.01,.08-1.71,.08,2.35,.08-.18,.08,1.1,.17-5.88,.08,7.33,.08-8.28,.08,2.77,.08-1.52,.08,3.02,.08-2.52,.08,8.63,.08-9.06,.08,8.79,.17-10.76,.17,8.83,.08-6.27,.08,5.79,.08-6.92,.08,8.62,.08-.26,.08-9.64,.08,3.45,.08-1.96,.08,5.9,.08-3.98,.08,.93,.08-.1,.08-.9,.25,4.59,.08-5.57,.08,6.13,.08-5.27,.08,5.19,.17-5.81,.17,7.76,.08-.8,.17-8.12,.08,9.09,.08-7.79,.08,4.44,.08-1.55,.08-5.09,.08,6.74,.08-1.51,.08,5.1,.08-.77,.08-2,.08,2.61,.08-6.82,.08,2.32,.08-1.38,.08,4.22,.08-1.37,.17-7.56,.08,10.34,.08-9.49,.17,3.69,.08,.72,.08,4.87,.08-.23,.08-5.77,.08,2.94,.08-6.51,.17,8.75,.08-6.46,.08,4.76,.25-6.86,.17,2.53,.08-.04,.08-3.01,.17,10.68,.25-7.47,.17,.77,.08,6.52,.08-8.05,.08,4.58,.08-3.86,.08,1.23,.08-128.91,.08,8,.08,1.54,.17-31.66,.17,31.31,.08-11.47,.17-14.51,.17,29.96,.08-55.63,.08,15.59,.08,4.48,.08,10.59,.25-41.42,.25,38.26,.08-20.33,.08,7.4,.08-15.5,.25,23.01,.08-9.88,.08,9.81,.08-3.61,.08-36.41,.08,24.41,.08-3.94,.17-20.83,.08,17.45,.08-10.37,.17,22.88,.08-4.38,.17-12.62,.17,24.78,.08-22.54,.08,22.76,.17-25.74,.08-.32,.17-7.78,.08,16.85,.08-10.41,.08,5.02,.17,26.82,.33-37.29,.17,32.74,.08-37.87,.08,38.66,.17-21.58,.08,2,.17,21.89,.08-2.19,.08-21.7,.08,1.86,.08,14.04,.17-26.5,.08,35.19,.17-29.28,.08,19.75,.08-2.51,.17-26.67,.08,3.98,.08,10.25,.08-6.65,.08,16.52,.08-12.48,.17,20.39,.08-23.13,.08,6.57,.08,8.94,.08-24.98,.08,40.24,.08-13.33,.08,11.7,.08-32.07,.08,2.91,.08,16.76,.08-15.56,.08,12.64,.08-16.29,.17,15.55,.08-23.61,.17,36.8,.08,116.91,.08-6.96,.17,16.4,.17-8.03,.08,6.22,.17-15.11,.17,11.63,.08-.83,.08,30.19,.08-9.72,.17,6.28,.08-3.45,.08,2.75,.08-2.61,.08,7.43,.17-11.12,.08,3.69,.08-3.87,.08,15.21,.08-3.77,.08-1.44,.08,.23,.25,5.26,.08-3.07,.08,2.65,.08-6.62,.17,7.82,.25-8.25,.17,5.98,.08-5.19,.17,8.22,.17-9.41,.17,6.95,.08,1.94,.08-.09,.17-5.02,.08,5.83,.08-9.72,.08,2.09,.08,1.91,.08-2.74,.08,8.46,.25-8.42,.08,.51,.08,5.72,.08-7.5,.08,9.23,.17-9.57,.08,8.97,.08-6.16,.08,7.71,.17-5.38,.08-.72,.08-4.01,.17,5.14,.17-5.3,.08,10.49,.08-10.85,.08,10.13,.08-8.23,.17,7.71,.17-5.78,.17,6.66,.17-9.58,.17,7.75,.08-2.56,.08,4.45,.17-8.79,.17,5.35,.08-5.05,.08,2.77,.08-3.06,.08,2.2,.08-1.73,.17,4.18,.08-6.14,.25,8.33,.08-4.58,.08,.61,.17,5.79,.17-7.96,.17,6.07,.08-4.97,.08,6.63,.08-4.09,.08,3.15,.08-.24,.08-.2,.08-2.08,.08,3.79,.17-5.2,.08,.32,.08,1.14,.08-5.16,.08,7.84,.08-4.07,.08,5.01,.08-.1,.08-5.68,.08,.09,.08-3.53,.08,3.62,.08-4.54,.08,10.3,.08-.56,.08,.61,.08-1.6,.17-5.2,.08,6.78,.08-10.17,.08,1.17,.17,8.64,.08-1.05,.17,.53,.08-4.47,.08,3.08,.08-1.27,.08-7.13,.08,3.45,.08-2.99,.08,9.11,.08-2.71,.08-1.95,.17,6.22,.08-7.53,.08,.32,.08,2.61,.08-.89,.08,.84,.08,4.42,.08-3.52,.17,2.68,.08-9.7,.08,4.04,.08-1.46,.08,4.67,.08-.88,.17,3.35,.17-151.58,.25,12.39,.08-17.19,.08,32.64,.08-7.99,.08-2.66,.17-24.69,.08,28.88,.08-53.49,.08,1.92,.08,26.57,.08-7.66,.08-.45,.08-24.93,.08,34.96,.08-27.11,.08,20.39,.08-17.39,.08,13.63,.08-6.94,.08-16.93,.08,1.28,.08-2.8,.08,36.25,.08-28.41,.08,24.8,.17-18.36,.08,6.55,.08-5.25,.08-21.43,.08,38.7,.08-25.39,.17,24.49,.08-1.16,.08-35.69,.08,3.15,.08-1.24,.08-3.81,.08,35.36,.08-6.64,.08-14.17,.17,11.11,.08,2.74,.08-10.66,.08,.82,.08,18.71,.17-17.71,.08-.76,.08,16.28,.08-24.05,.08,32.4,.17-34.16,.17,23.46,.08-19.61,.08,5.77,.08-10.34,.08,2.77,.17,11.16,.08,16.04,.25-21.08,.08,3.87,.17,22.93,.08-22.14,.08,9.52,.08-20.29,.08,32.12,.17-41.47,.08,34.67,.08-13.43,.08,17.18,.08-24.15,.08,3.4,.08,6.47,.08-5.15,.08-16.96,.17,39.5,.08-37.93,.08,12.86,.08-14.17,.08,13.28,.08-9.64,.08,17.2,.17-21.85,.17,33.1,.08-3.98,.08,3.17,.17-4.87,.17-12.73,.08,140.9,.08-3.42,.08,9.65,.08-.11,.08-1.52,.08-6.26,.08,5.5,.08-1.25,.08-2.12,.08-7.44,.08,14.43,.08-11.49,.08,27.68,.08-1.64,.08-1.7,.08,11.55,.08-1.69,.08-9.27,.08,5.41,.08-1.34,.33-5.47,.17,14.17,.08-6.86,.08,9.61,.08-2.1,.08-7.71,.17,7.83,.08,.95,.08-8.34,.08,4.15,.08-2.02,.08,6.07,.17-5.91,.08,5.08,.08-1.11,.08,2.28,.08-8.71,.08,3.76,.08-3.28,.08,7.17,.08-5.43,.08,.18,.08,1.07,.08-3.1,.17,9.44,.17-6.77,.08,1.74,.08,4.16,.08-3.37,.08,2.17,.25-4.85,.08,5.8,.08-1.96,.17,2.34,.17-8.03,.08,6.09,.17-5.95,.08,.57,.08,7.5,.08-8.73,.17,6.97,.08,3.13,.08-4.79,.08,4.26,.17-2.35,.17-6.31,.08,6.47,.08-6.29,.08,.02,.08,1.05,.08,6.98,.17-9.02,.17,6.93,.08-1.91,.08-1.64,.08,1.53,.08,4.41,.08-2.17,.17-6.21,.08,8.18,.08-9.21,.08,7.05,.17-4.78,.17-2.19,.08,7.15,.08-6.16,.08,8.21,.17-6.9,.08,.73,.08,4.81,.08-7.01,.17,9.26,.08-7.5,.08,2.73,.08-4.22,.17,7.69,.08-7.55,.17,7.31,.08-6,.08,2.36,.08-1.05,.08,1.62,.17-4.17,.08,1.36,.08,6.82,.08-8.29,.08,1.9,.08-.29,.08,3.77,.08-5.83,.08,1.74,.08,6.92,.17-8.74,.08,9.48,.08-10.33,.08,3.19,.08,.54,.17,4.32,.08-7.83,.08,7.27,.08-5.39,.25,8.64,.17-10.9,.17,6.99,.08,.15,.08-1.99,.08,.9,.08-4.96,.25,8.38,.08-9.54,.17,10.28,.08-6.66,.08,.77,.08,2.04,.08-.08,.08-4.1,.08,6.66,.08-7.06,.08,1.94,.25,4.43,.08-5.6,.17,4.87,.17-156.66,.08,21.53,.08-18.65,.17,33.27,.17-13.98,.17,16.08,.08-35.14,.08,2.73,.08-24.53,.17,27.27,.08,2.31,.17-37.76,.17,35.5,.08-17.24,.08,7.17,.08-1.14,.17-20.74,.17,30.69,.08-43.07,.17,42.25,.08-6.11,.08,6.78,.17-34.3,.08,20.72,.08-4.62,.08-11.52,.08,7.53,.17-16.12,.08,38.65,.08-34.68,.08,14.32,.08-23.84,.08,22.83,.08-22.74,.17,33.33,.08-13.3,.08-20.5,.08,6.08,.08,34.35,.08-27.52,.17,31.6,.08-17.92,.08,7.62,.08-26.39,.08,21.76,.08-22.15,.08,37.33,.08-13.89,.08,3.01,.08,.34,.08,7.47,.08-5.38,.08-16.65,.08,11.94,.08-5.7,.08,1.83,.17-23.88,.25,36.08,.08-38.26,.08,40.37,.08-10.73,.08-.02,.08-1.01,.08,7.06,.08-27.97,.08,29.86,.08-23.16,.17,25.51,.08-37.92,.08,32.51,.08-28.53,.17,33.6,.08-39.67,.08,32.02,.08-27.69,.08,31.22,.08-30.97,.08,38,.25-41.65,.08,1.16,.08,4.05,.08-3.1,.08,31.14,.08-3.84,.08-.22,.17-4.72,.17,136.92,.08-9.61,.08,9.47,.08-2.58,.17-8.79,.08,1.03,.08,1.7,.08,8.85,.08-7.07,.08,8.31,.08,21.21,.08-.46,.08,4.73,.08-2.96,.08-8.63,.08,.03,.17,11.52,.17-4.42,.08-7.03,.08,10.21,.08-2.17,.08,7.58,.08-10.1,.08,6.94,.08-4.55,.08,5.01,.08-3.3,.17,5.57,.08-9.16,.08,.24,.08,.35,.08,4.14,.08-2.08,.08,8.39,.25-6.43,.17,5.53,.17-7.56,.17,7.74,.25-1.69,.08-3.88,.08,.47,.08-1.08,.08,3.77,.08-5.22,.08,7.01,.17-6.75,.17,7.86,.08-8.75,.08,6.11,.08-3.85,.08,7.44,.08-7.51,.17,7.17,.08-6.26,.08,4.17,.08-1.65,.08,3.46,.08-.74,.08-1.7,.08,2.35,.08-9.28,.08,10.22,.08-5.4,.08,4.07,.08-2.08,.08-6.99,.08,8.64,.08-9.09,.08,8.59,.08-6.05,.08,2.2,.08-3.82,.25,7.79,.08,.33,.08-8.48,.08,6.65,.08-.5,.08-4.38,.08,4.76,.08-6.93,.17,4.01,.08-3.2,.08,9.39,.08-2.34,.08-2.35,.08,2.69,.17-7.82,.17,6.52,.08-7,.08,5.84,.08-.5,.08,1.55,.08-6.3,.08,3.85,.17-2.74,.08,5.31,.08-1.04,.08-4.69,.08,5.48,.17-6.53,.08,3.59,.25-2.51,.17,8.97,.17-7.03,.08,2.52,.08-3.37,.08,4.43,.08-3.14,.08,5.07,.08-6.36,.17,6.16,.08-.99,.08-5.16,.17,6.02,.08-8.49,.08,2.85,.08-2.73,.08,5.99,.08-.54,.08-4.78,.08,4.21,.08-2.06,.08,5.14,.08-2.2,.08,3.65,.08-.93,.08,2.32,.08-.43,.08-10.6,.08,8.3,.17-6.74,.17,7.75,.08-6.5,.08,1.44,.25-4.24,.17,7.16,.08-3.47,.08,6.55,.08-9.37,.08,8.79,.08-2.36,.08-5.51,.17,4.77,.08-.9,.08-4.31,.08,5.81,.08-151.6,.08,30.02,.17-29.18,.08,25.58,.08-9.55,.08,10.18,.08-20.79,.08,6.58,.08-3.84,.08,16.86,.08-.59,.33-53.89,.17,18.53,.08-22.7,.08,10.25,.08-9.25,.25,38.46,.08-35.19,.08,27.17,.08-8.15,.17-11.75,.08-1.62,.08,19.51,.25-36.1,.08,10.88,.08-8.76,.17,13.76,.08,18.04,.08-21.43,.08,1.96,.08,.94,.08,5.09,.08-1.75,.08,8.77,.08-8.35,.08,14.53,.08-27.43,.17,32.31,.17-25.91,.17,17.24,.08-12.72,.08,9.54,.08-26.47,.08,.46,.17,26.88,.08-18.54,.08,31.66,.25-39.95,.08,41.06,.17-32.93,.17,29.62,.08-40.09,.08,20.54,.08-4.36,.08,17.07,.08-11.16,.08,2.46,.08,16.01,.08-1.41,.08-33.05,.17,29.04,.17-25.93,.08,31.95,.08-23.27,.17,24.42,.08-.74,.08-35.32,.17,35.66,.17-36.11,.08,26.29,.08-7.2,.08,17.26,.17-24.3,.08,.3,.25,20.98,.08-11.76,.08,12.08,.17-39.18,.08-.17,.08,4.75,.08,150.27,.08-1.81,.08,7.51,.08-6.25,.08,3.17,.08-.48,.08-4.99,.08,8.6,.08-.65,.08-10.97,.08,15.7,.08-7.76,.17,25.46,.08,.81,.08,3.75,.08-1.18,.08-6.44,.33,10.58,.08-11.99,.25,16.16,.17-9.87,.17,9.33,.17-7.41,.08,4.16,.08-5.48,.08,2.67,.08-2.9,.17,9.89,.08-2.03,.08,1.23,.08-8.03,.08,1.69,.08,.95,.17,5.59,.08-6.5,.17,6.03,.08-4.22,.08,6.52,.17-4.84,.08,3.63,.08-9.46,.17,9.66,.08-.83,.08-6.4,.08,3.89,.08-1.58,.08,6.2,.08-.15,.25-9.62,.08,9.02,.17-9.34,.08,5.94,.08-4.99,.08,7.86,.08-9.06,.08,2.09,.08-2.15,.17,6.53,.08-6.49,.08,7.49,.08-.64,.17-4.89,.08-1.85,.08,8.19,.08-6.7,.08,.67,.08,7.62,.08-3.65,.08,1.18,.08-.25,.08-7.67,.08,3.84,.08-.85,.08-2.93,.08,6.77,.08-4.8,.08,4.15,.08-4.92,.08,7.78,.08-8.67,.08,8.24,.08-1.21,.08-4.86,.08,4.1,.08-2.42,.08,1.85,.08-3.36,.17,7.73,.17-4.7,.08,3.46,.17-2.62,.08,3.87,.17-9.34,.08,8.28,.17-5.8,.08,2.77,.08-3.18,.25,7.84,.08-7.73,.08,.34,.08,7.04,.17-10.63,.08,6.31,.08-.92,.08-4.61,.17,3.7,.17-3.19,.08,4.6,.08-.21,.08,1.01,.08-6.56,.17,9.98,.08-8.81,.17,8.97,.25-9.14,.08,7.61,.08-7.03,.17,8.72,.08-10.36,.17,7.69,.17-6.41,.17,7.52,.08,.72,.08-1.91,.08-5.45,.25,6.94,.08-1.88,.08-6.86,.08,6.74,.08-7.29,.17,9.14,.08-8.05,.08,4.87,.17-5.91,.08,10.55,.08-.53,.08-7.05,.17,6.06,.08-121.47,.08,.67,.08-28.92,.08,24.59,.17-18.11,.17,22.24,.08-29.06,.08,29.7,.17-33.92,.17-13.57,.17,6.42,.17-22.13,.08,24.47,.25-27.46,.17,22.33,.08,2.45,.08-30.56,.08,36.66,.08-19.63,.17,13.52,.08-5.66,.08-26.68,.08,42.4,.08-23.52,.08,22.28,.08-3.23,.17-17.08,.25,19.12,.08-9.76,.08-29.95,.08,.99,.08,27.53,.17-25.95,.08,40.78,.17-42.77,.08,38.73,.08-3.17,.08-36.12,.17,42.77,.42-44.34,.08,31.95,.08-11.33,.08,.22,.17,16.46,.08-36.53,.08,5.61,.25,28.3,.17-21.14,.08,8.12,.08-21.47,.17,27.99,.08-18.13,.08,27.2,.08-9.67,.08,1.7,.08-3.83,.08-15.82,.08,13.45,.08-14,.17,20.43,.08-21.15,.17,26.47,.08-12.66,.17,22.39,.08-28.89,.08,6.2,.08,2.96,.08-23.57,.08,17.89,.08-13.21,.08,32.72,.17-32.93,.08,12.88,.08-6.1,.17,28.27,.25-35.01,.08,156.81,.08-13.07,.08,.16,.08,12.85,.08-1.82,.17-11.18,.17,11.67,.17-6.63,.08,7.49,.17,28.7,.08,.03,.08-4.26,.08,.42,.08,.48,.08-2.22,.17,3.78,.08-1.48,.08-8.42,.17,12.07,.08-1.53,.08-4.71,.08,8.58,.17-5.49,.08,1.26,.08,6,.08-6.81,.08,7.09,.17-7.82,.08,7.14,.08-7.16,.08,9.21,.08-9.24,.25,8.06,.08-9.3,.08,10,.08-1.44,.17-4.78,.08,1.08,.08,4.74,.08-1.86,.08,.58,.08,.29,.17-5.55,.08,5.5,.08-1.69,.08-.27,.08-6.62,.08,.25,.08,1.79,.17,8.27,.33-8.02,.08-.91,.08,.15,.08,5.48,.08-3.7,.17,7.09,.08-7.24,.08,7.82,.25-7.72,.08-.82,.08,5.22,.08-5.73,.08,5.85,.08-1.72,.25-6.11,.08,8.61,.08-4.94,.08,.59,.08-3.45,.08,8.57,.08-6.73,.08,2.07,.08,3.32,.08-2.26,.08,1.59,.17-6.27,.08,3.61,.08-.71,.08,1.28,.08,5.28,.17-4.98,.17,3.51,.08-3.64,.17,2.78,.08-2.33,.08,3.74,.08-8.98,.08,.68,.08,1.81,.08,6.8,.17-7.93,.08,.45,.08,7.39,.17-8.14,.08,2.9,.08-.78,.08,2.12,.08-.79,.08,5.59,.08-6.83,.08,6.3,.08-4,.08,1.61,.08-2.86,.08,4.66,.17-7.48,.17,7.8,.08-.47,.08-8.27,.25,8.71,.17-8.6,.08,.45,.08,2.28,.08,6.22,.08-.42,.08,.71,.08-2.35,.08,1.38,.17-2.82,.08-6.3,.08,3.76,.08-2.54,.08,1.41,.08,6.76,.08-7.04,.08,5.21,.08-4.11,.08,3.37,.08-7.42,.08,8.3,.08-.18,.08-7.36,.08,10.24,.17-7.92,.25-2.83,.08,10.29,.08-8.55,.08,1.98h.08s.08,5.85,.08,5.85l.17-9.65,.08,.8,.08,5.34,.17-130.99,.08-17.83,.08,4.8,.17,24.83,.25-33.56,.17,23.7,.17-15.33,.08-39.74,.08,26.85,.08-5.16,.08,5.37,.08-14.35,.08,.89,.08-2.33,.08,19.61,.08-2.08,.08,8.35,.08-23.25,.08,22.07,.17-37.29,.08-.95,.25,36.56,.17-33.44,.08,25.91,.08-7.94,.17-21.65,.08,28.62,.08-13.88,.17,20.26,.08-36.53,.08,4.09,.08,2.73,.08,32.11,.08-35.89,.17,22.63,.08-9.43,.08,20.57,.08-30.06,.08,7.87,.08,17.89,.08-.07,.08,.18,.08,5.75,.17-35.4,.08,37.18,.08-1.42,.17-34.86,.08,22.27,.08-1.03,.08-11.15,.17,25.75,.08-32.03,.08,4.95,.08,2.03,.08-7.27,.08,3,.08,21.2,.08-6.63,.08,10.23,.08-.17,.17-32.94,.08-4.71,.25,38.74,.08-31.96,.08,10.58,.08-1.79,.08-7.38,.08,3.53,.08-5.93,.08,35.18,.17-35.92,.08,25.52,.08-16.01,.08,14.75,.08-29.1,.08,41.79,.08-24.7,.08,18.68,.08-24.67,.08,24.24,.08-2.69,.17-30.71,.17,34.83,.08-27.79,.08,11.68,.08-18.58,.08,160.6,.08-9.03,.17,8.84,.08-9.52,.08,1.62,.08-2.91,.08,8.05,.08-2.5,.08,.77,.08-10.46,.17,38.47,.17-3.41,.08,3.95,.08-8.39,.08,8.22,.08-7.97,.08,10.03,.17-10.17,.08,9.34,.08-10.12,.08,11.9,.08-5.7,.25,8.76,.08-1.34,.08,2.44,.08-.59,.08,.45,.17-7.99,.17,8.7,.08-5.83,.17,6.2,.08-.79,.08-8.59,.08,1.16,.08,5.31,.08-3.43,.08,1.35,.17-1.65,.08,.83,.17,6.67,.17-9.64,.08,3.64,.17-4.77,.08,9.37,.08-5.97,.08,.2,.17-3.47,.17,8.39,.08-6.27,.08,7.82,.17-9.08,.08,5.96,.08-2.8,.08,2.27,.08-.09,.08,1.44,.17-7.06,.08-.05,.08,8.66,.08-7.91,.08,1.55,.17,7.57,.08-2.27,.08-7.28,.25,7.4,.08-5.22,.08,7.81,.17-6.76,.08,5.43,.08-7.65,.08,6.64,.08-4.71,.08,2.79,.08-2.16,.17,6.54,.08-10.09,.08,7.23,.17-8.25,.08,8.9,.08-.61,.17-7.91,.08,.56,.08,4.67,.08-3.3,.08,7.45,.08-9.51,.08,.15,.08,9.05,.08-1.53,.08,2.25,.08-1.94,.08-6.15,.17,8.22,.08-2.87,.08-7.22,.25,9.21,.08-9.26,.08,1.87,.17,8.48,.08,.15,.08-.72,.17-9.13,.08,4.88,.08-3.91,.08,4.49,.17-3.23,.08,6.3,.08-2.12,.08-3.12,.08,6.4,.25-10.46,.08,5.89,.08-3.86,.08,4.34,.08-4.12,.08,2.27,.08-3.29,.08,5.37,.17-2.48,.33,6.93,.08-9.68,.17,7.48,.08-5.93,.08,4.7,.08-2.1,.08,3.88,.08-9.01,.08,1.22,.08-.14,.08,5.16,.08-4.02,.17,8.52,.08-.13,.08-6.4,.08,1.48,.08-.71,.08,5.77,.17-8.03,.08,3.11,.08-3.27,.08,5.64,.08-150.64,.08,8.63,.08,14.51,.08-1,.17-22.79,.17,21.96,.08-23.39,.08,7.6,.08,8.5,.08-1.53,.17-33.14,.08,11.75,.08-27.92,.08,22.6,.08-.25,.08-3.51,.08-15.38,.08,5.08,.08,15.33,.08-11.73,.25,17.99,.08-12.2,.08,9.8,.08-30.06,.08,26.03,.08-27.71,.08,18.83,.08-4.42,.08,3.98,.08,18.58,.08-11.07,.08,11.43,.08-23.65,.08,7.95,.08-14.95,.17,27.69,.17-34.4,.08,9.76,.25,28.27,.08-40.88,.17,31.59,.08-13.57,.08,21.52,.08-38.7,.08,35.75,.08-21.38,.08,18.19,.17-24.01,.17,7.29,.08-12.56,.08,36.78,.08-11.4,.08,3.73,.08-33.43,.08,27.06,.08-15.51,.08,2.16,.08,21.36,.08-1.22,.08-1.91,.08-5.88,.17,17.69,.17-42.76,.17,28.34,.08,14.98,.17-36.99,.08,30.68,.08-.59,.08-28.5,.08,7.86,.08,25.83,.08-26.11,.08,14.18,.08-2.7,.17-19.99,.08,18.56,.08-24.71,.08,24.44,.08-16.51,.08,13.01,.17-19.16,.08,37.08,.08-38.38,.08,5.02,.08,1.55,.08,26.69,.17-29.34,.08,25.36,.08-29.97,.08,164.17,.08-1.81,.17-7.7,.08-1.25,.08,11.36,.08-17.06,.08,16.56,.08-1.78,.08,2.33,.17-16.6,.08,32.83,.08-1.98,.08,10.24,.08-6.69,.08,1.04,.08-.5,.08,5.4,.08-7.75,.08,2.29,.08-3.31,.33,12.57,.08-8.1,.17,8.28,.08-9.32,.17,10.29,.08-6.41,.08,4.32,.17-6.53,.08-.68,.17,5.95,.08-3.39,.08,7.05,.08-4.71h.08s.08,5.19,.08,5.19l.25-8.7,.17,8.89,.08-1.95,.08-6.92,.08,8.44,.08-6.69,.08,7,.08-5.9,.08,3.02,.08-4.9,.08,6.28,.08-4.59,.08,4.56,.17-7.17,.08,8.44,.08-8.36,.17,8.36,.08-3.4,.08,3.01,.17-6.76,.08,7.38,.25-9.37,.08,4.78,.08-4.94,.17,6.28,.08-5.13,.17,4.25,.08-.21,.08-4.03,.08,.17,.17,5.63,.17-2.71,.08,3.78,.08-6.28,.25,7.76,.08-1.49,.08-8.03,.17,8.82,.08-3.3,.17,4.81,.25-5.84,.08,2.21,.08-1.03,.08-5.86,.17,7.99,.08,.17,.17-5.83,.08,6.25,.08-5.69,.08,7.78,.17-8.53,.08,4.94,.08-2.54,.08,4.05,.08-6.07,.08,7.79,.08-9.04,.08,7.39,.08-7.64,.08,5.9,.08-4.18,.08,4.56,.08-6.63,.08,8.81,.08-.59,.08-3.55,.08,4.65,.08-1.29,.17-8.82,.08,6.78,.08-6.18,.17,7.38,.25-8.13,.08,8.18,.08-4.6,.08,7.01,.08-.7,.08,1.24,.08-11.25,.08,2.23,.08,.18,.25,7.18,.17-2.54,.08-4.3,.25,8.34,.08-.95,.17-9.39,.08,3.34,.08-1.86,.25,7.84,.08-8.67,.08,1.05,.08,6.95,.08-3.89,.08,.28,.17-5.18,.25,10.12,.08-.14,.08-1.41,.08,1.75,.08-150.23,.08,.77,.08,22.56,.08-26.89,.08,26.17,.08-5.62,.08,2.01,.08-4.74,.08,4.52,.08-9,.08,3.13,.08-22.25,.08,11.04,.08-3.78,.08,3.92,.08-25.12,.08,25.05,.08-34.28,.08,14.23,.08-.66,.08-1.52,.08,17.13,.08-1.18,.08-5.31,.08-17.57,.17,21.44,.08-38.36,.08,42.6,.08-35.08,.08,.66,.17,29.31,.08-.45,.08-24.79,.08,2.45,.17-14.42,.17,35.29,.08-3.95,.08-27.03,.17,34.75,.08-28.48,.08,13.58,.08-23.36,.17,37.25,.08-38.75,.08,31.15,.08-3.55,.08-2.94,.08,15.86,.08-20.12,.08,16.86,.25-29.35,.08-1.37,.08,29.32,.08-9.63,.08-.31,.08,10.03,.08-29.24,.08,4.12,.08,23.36,.08-7.97,.08,11.79,.08-23.61,.08,22.91,.08-39.07,.08,9.27,.08,17.65,.17-23.55,.17,33.3,.17-30.22,.08,8.99,.08-.29,.17-10.99,.08-1.17,.08,37.29,.17-29.18,.08-.74,.08,6.79,.08,19.88,.08-28.5,.08,3.49,.08,28.65,.08-17.07,.08,13.1,.08-7.39,.08,14.44,.17-24.04,.25-12.95,.17,32.35,.08-33.04,.08,31.41,.08-36.98,.17,157.04,.08-8.69,.08,15.98,.08-3.72,.08-6.06,.08,5.21,.08-10.46,.08,15.6,.17-9.5,.08-1.12,.08,32.97,.08-1.38,.08-6.06,.08,8.21,.08-8,.08,3.34,.08-2.53,.08,.61,.08,6.4,.17-8.36,.25,10.63,.08,3.58,.17-9.36,.08,7.31,.17-6.5,.17,9.23,.08-7.42,.08,4.78,.08-4.31,.08,3.86,.08-.48,.08-3.32,.08,4.49,.08-.69,.17,.86,.17-5.01,.08,5.08,.17-3.28,.08,4.54,.08-.09,.08-7.42,.08,2.37,.08,1.66,.08-.8,.08,6.99,.08-6.66,.08,1.23,.08-.41,.17,5.29,.08-1.26,.08-8.56,.08,6.13,.08-.66,.17,4.85,.08-7.68,.08,2.02,.08,.33,.08,3,.08-5.67,.08,6.53,.08-.25,.08-3.06,.17,2.41,.17-4.56,.08-1.96,.17,8.49,.08-2.27,.08-7.98,.25,10.99,.08-5.77,.08,5.43,.25-10.52,.17,5.77,.08-5.5,.17,9.94,.08-4.53,.08,2.55,.08-2.59,.08,.16,.08-1.43,.17,4.72,.17-7.52,.17,5.56,.08-6.75,.08,.26,.17,9.86,.17-8.91,.08-1.58,.08,.88,.25,9.74,.25-6.79,.08,.81,.08-2.09,.08,5.23,.08-3.22,.08,5.39,.33-10.2,.08,8.05,.08-2.49,.08,1.91,.08-1.26,.08-4.7,.08,1.95,.08-2.24,.08,7.67,.08-7.57,.08,9.19,.08-9.37,.17,6.49,.17-7.07,.08,10.09,.17-9.14,.17,7.43,.25-8.09,.17,4.64,.08-5.46,.17,10.51,.17-4.27,.08,3.15,.08-8.93,.08,2.04,.08,5.63,.25-7.6,.08,.67,.08,4.14,.08-2.93,.25,7.46,.08-.13,.08-4.56,.17,5.75,.08-7.93,.08,7.8,.08-144.54,.08,2.15,.08-16.51,.17,34.78,.25-35.85,.17,25.99,.08-22.53,.08,27.49,.08-44.04,.08,9.19,.08,15.99,.33-39.8,.08,29.85,.08-23.82,.08,33.15,.08-21.17,.08,20.5,.08-43.75,.08,7.53,.08,4.87,.08-7.46,.08,7.92,.08-14.44,.08,11.46,.08-9.47,.17,36.28,.08-18.47,.08,18.03,.08-22.02,.08,4.97,.08-6.32,.08,27.65,.08-8.34,.17-34.11,.08,25.59,.08-1.84,.08-13.11,.08,5.01,.08,13.76,.08-5.26,.08,8.73,.08-33.81,.08,37.75,.08-10.9,.08,15.63,.08-8.85,.08-25.25,.17,31.65,.08-17.82,.08,20.99,.08-3.42,.08-32.67,.08,1.63,.08-6.49,.08,2.74,.08,7.74,.08,28.51,.17-35.85,.08,2.1,.17,25.59,.08-27.69,.08,5.34,.08-11.46,.08,37.29,.08-3.16,.08,.63,.08-26.25,.17,32.81,.08-42.12,.08,44.01,.08-36.63,.08,21.24,.08-21.53,.08,12.97,.17-16.79,.08,41.45,.08-3,.08-7.91,.17-28.83,.08,19.36,.08-6.65,.08,18.91,.17-35.2,.08,31.58,.08-10.23,.08,18.47,.08-21.38,.08,2.55,.08,16.2,.08-13.45,.08,4.88,.08-8.48,.17,145.47,.08-13.6,.08,.87,.17,11.93,.17-16.31,.08,12.93,.08-1.51,.08,2.53,.08-7.11,.08,32.88,.08-2.55,.08-4.31,.17,3.93,.08-.43,.08-1.8,.08,7.04,.08-.92,.08-10.16,.08,10.17,.08-7.96,.08,3.18,.08,7.51,.08-1.15,.25-6.61,.08,2.34,.08,7.56,.08-6.74,.25,7.17,.08-.62,.08-6.81,.17,5.55,.08-.94,.08-5.34,.08,1.2,.17,7.17,.08-1.53,.08-7.59,.17,4.62,.08-.71,.08,2.61,.08-4.99,.17,7.81,.08-.14,.17-9.13,.08,7.11,.08-6.35,.08,1.19,.17,8.27,.08-.74,.08-7.08,.08,5.98,.08-1.94,.17-4,.08,6.92,.17-4.2,.08-.63,.08-3.13,.08,7.31,.08-7.19,.08,1.3,.08,1.55,.08-1.62,.17,6.34,.08-5.96,.08,1.59,.08-1.3,.08,3.41,.08-6.43,.17,9.28,.25-8.01,.08,3.38,.08-4.52,.08,7.09,.08-1.62,.08-5.51,.08,.03,.08,2.38,.08-1.96,.08,8.7,.08-8.77,.17,7.76,.08-.69,.08-2.02,.08,1.88,.08-.78,.08,2.1,.17-4.94,.08,1.47,.08,1.07,.17-6.18,.08,1.54,.08,4.8,.08-4.66,.17,6.94,.17-7.65,.17,8.41,.08-.77,.08-8.22,.08,2.54,.08,4.3,.08-3.41,.08,.31,.08-1.44,.08,4.77,.08-7.13,.08,6.27,.08-4.35,.08,7.66,.08-4.03,.08,.24,.08-2.17,.08,5.32,.08-8.11,.08,6.47,.17-6.62,.08,2.73,.08-2.02,.08,.89,.08,3.46,.08-5.12,.08,5.81,.17-5.09,.17,5,.25-7.09,.08,4.35,.08-1.32,.08-2.73,.08,9.09,.08-1.51,.17-6.69,.08-.38,.17,8.67,.08-3.94,.08,2.34,.08-.68,.08-5.44,.08,7.87,.08-8.5,.08,4.52,.08-1.9,.08,5.72,.08-2.8,.08,2.8,.08-9.85,.08,1.74,.17,6.6,.08-155.37,.08,22.62,.08,7.05,.17-30.07,.08,36.11,.08-9,.08-26.91,.17,31.7,.33-63.66,.17,40.36,.08-40.28,.17,30.93,.08-11.86,.25,24.4,.17-42.42,.08,11.89,.08-19.18,.17,32.29,.08,5.42,.08-.19,.08-5.44,.17-27.88,.08-3.11,.08,33.37,.08-30.33,.17,34.69,.08-34.18,.08,10.56,.08,21.28,.08-11.97,.08,6.44,.08-20.29,.08,12.79,.08-24.19,.08,42.19,.08-13.77,.17-6.69,.08,8.46,.17-25.25,.08-2.89,.08,6.04,.08-2.06,.08,13.56,.08-12.44,.08,23.61,.08-4.33,.08,3.69,.08-6.8,.08,8.22,.08-30.55,.17,39.03,.08-19.38,.08,21.23,.08-2.42,.17-15.99,.08,1.4,.08-16.56,.08,2.72,.17,18.34,.08,.78,.08-20.68,.17,34.4,.08-35.38,.17,30.04,.08-4.73,.08-31.5,.08,3.3,.17,17.05,.08-1.72,.08-20.56,.08,.43,.08,33.92,.08-26.93,.08,27.75,.08-.74,.08-20.91,.08,12.25,.08-23.8,.08,38.08,.17-37.49,.08,.65,.08,33.79,.08-9.5,.08-11.41,.08,20.78,.08-36.55,.17,162.77,.17,1.47,.08-14.9,.08,12.94,.08-4.03,.08-.59,.08-2.71,.08,9.53,.08-2.8,.08-12.74,.17,31.36,.08,9.64,.17-7.7,.08,4.46,.08-8.03,.17,10.6,.17-11.21,.08,11.14,.08-.29,.08,2.65,.08-1.04,.08,2.47,.17-9.01,.17,10.13,.08-6.21,.08,3.24,.08-5.97,.25,8.71,.08-6.56,.08,5.71,.08-5.7,.08,6.37,.08-1.31,.08-1.63,.08-5.42,.08,.13,.08,8.23,.08-1.72,.08,2.57,.25-8.5,.08-.33,.08,6.18,.08-1.22,.08-4.58,.08,1.01,.08,9.08,.17-4.73,.25,4.38,.08-6.84,.17,6.68,.08-2.02,.17-7.01,.17,4.92,.08-6.35,.08,8.79,.08-.17,.08-.86,.08,1.35,.08-2.33,.08-6.01,.17,5.64,.08-5.9,.08,10.01,.08-1.83,.17-4.58,.08,6.51,.25-7.44,.08,.68,.17,6.15,.08-3.77,.08,3.37,.08-9.25,.17,7.12,.08-5.07,.17,5.16,.17-6.3,.08,2.19,.08,7.07,.17-8.09,.08,7.08,.08-1.04,.08-7.39,.08,9.74,.08-8.28,.25,8.43,.08-9.18,.08,5.19,.33-6.74,.17,6.29,.08-6.26,.25,9.35,.08-8.09,.08,5.43,.08-3.37,.17,5.22,.08-4.55,.08,6.11,.17-5.49,.08,1.25,.17-4.43,.08,.64,.08,8.28,.08-1.76,.17-8.37,.08,1.13,.08-.09,.08,6.09,.08-1.43,.08-.47,.17,4.97,.08-10.35,.17,7.99,.08,1.77,.08-9.55,.08,3.94,.08-.99,.08-2.76,.08,6.4,.08-3.12,.08,6.58,.08-1.67,.08-7.28,.08,.73,.08,4.7,.08-.3,.08-1.77,.08,6.03,.08-2.72,.08,.37,.08-.48,.08-6.28,.17,6.94,.17-7.62,.17,8.89,.17-7.56,.17-144.97,.08-5.49,.25,17.91,.08,17.41,.08-36.28,.17,31.97,.08-19.77,.08,14.69,.17-39.21,.08,6.18,.08-17.12,.08,25.04,.08-8.05,.25-14.7,.08,17.06,.08-11.01,.08,21.72,.08-40.18,.08,24.69,.08-15.57,.08,31.86,.08-8.3,.17-30.24,.08,15.77,.08-18.09,.25,36.4,.08-31.83,.08,25.09,.17-29.97,.08-1.47,.08,19.1,.17-11.66,.08,29.23,.08-21.22,.08,25.58,.08-20.91,.08,15.27,.08-1.27,.25-19.89,.08,24.8,.08-19.4,.08,14.51,.17-20.55,.08,3.65,.08-8.21,.08,18.15,.08-19.41,.08,15.02,.08-2.32,.08-7.41,.08,28.46,.08-28.73,.08,1.6,.17,24.08,.08-.23,.08-37.62,.08,10.56,.08,25.41,.25-32.02,.08,35.79,.08-8.72,.08-29.52,.08,39.8,.08-8.69,.08-34.24,.33,42.07,.08-9.79,.08-28.78,.08,21.04,.17-22.71,.17,32.86,.17-32.4,.08,4.69,.08,33.38,.08-28.33,.08,5.45,.08-15.17,.08,35.48,.17-34.21,.25,36.57,.08-9.39,.08,128.74,.08-11.22,.08,11.98,.08-3.22,.08-3.8,.08,9.2,.25-12.74,.25,13.39,.17,25.01,.08-8.13,.08,6.45,.08-8.46,.08,2.7,.08-.43,.08,6.77,.25-6.97,.08,8.43,.08-4.94,.08,.83,.08,7.17,.08-6.39,.25,5.88,.17-4.81,.08,3.69,.17-3.34,.08,.99,.08,7.48,.08-9.17,.17,6.78,.08,.23,.17-7.32,.08,5.77,.08-4.22,.08,7.41,.17-9.92,.08,2.5,.08,6.33,.08-3.29,.08,3.03,.17-6.18,.08,.1,.08,6.14,.08-7.85,.17,6.13,.17-2.5,.17,1.34,.08-.21,.08,3.71,.08-7.19,.17,7.7,.17-9.06,.08-.17,.17,9.18,.08-4.33,.08,4.59,.08-9.28,.08,8.48,.08-.78,.25-6.12,.17,7.05,.08-1.09,.08-2.73,.08,4.09,.08-5.25,.08,.52,.17-4.2,.08,.29,.08-.38,.17,9.2,.08-1.93,.17-7.57,.08,1.27,.08,8.47,.08-9.46,.17,10.6,.08-4.89,.08,4.48,.08-5.63,.08,2.32,.25-5.99,.17,4.91,.17-5.33,.08,8.88,.08-4.66,.17,5.48,.17-9.22,.08,7.91,.17-7.8,.08-.69,.08,7.33,.08-7.22,.08,6.59,.08-2.62,.17,5.75,.08-7.64,.25,5.99,.08-5.42,.08,7.57,.08-9.1,.08,8.21,.08-1.27,.17-3.31,.17,1.85,.08-7.27,.17,10.63,.17-9.62,.17,8.82,.08-7.5,.08,1.72,.08,.4,.08,5.84,.08-.98,.08-5.45,.08,4.69,.17-3.81,.08,2.95,.08-7.51,.08,1.2,.08,1.36,.08,7.28,.08-.32,.08-4.37,.08,3.75,.08-9.24,.08,9.26,.08-3.72,.08,1.39,.08-3.11,.08,5.77,.08-3.4,.08,1.76,.08-6.93,.08,9.57,.08-9.87,.08,.91,.08,6.05,.08-149,.08,29.12,.08-35.95,.17,25.49,.08-2.28,.08,11.38,.08-35.46,.08,36.5,.08-23.65,.08,8.15,.08-19.45,.08,1.26,.08-12.54,.08,2.18,.08-9.67,.08,27.83,.08-5.51,.08-.91,.08-22.96,.08,24.07,.08-16.85,.08,15.71,.17-37.77,.25,31.81,.08,8.28,.33-40.18,.08,24.61,.08-13.37,.25,18.11,.33-30.38,.17,40.56,.17-22.67,.08,16.98,.17-37.1,.08,1.77,.08,33.83,.08-30.65,.08,7.72,.08,11.33,.08-3.92,.08-13.96,.17,21.53,.17-9.31,.08,17.58,.08-32.17,.08,10.25,.08,1.85,.08,24.12,.08-22.81,.17,23.75,.08-20.28,.08,5.63,.08-8.41,.08,22.58,.08-15.45,.08,11.58,.08-36.71,.08,19.25,.08-5.71,.17,26.79,.08-39.83,.08,31.17,.08-6.22,.08-10.22,.08,28.26,.08-35.51,.25,33.84,.08-4.56,.08-33.11,.08,9.45,.17,28.04,.08-28.25,.08,5.34,.25,16.07,.17-34.07,.08,35.93,.08-19.05,.25,15.5,.08-25.81,.08,15.36,.08-2.63,.17,143.31,.08,1.73,.08-11.36,.08,9.36,.08-8.93,.08,5.42,.08-.46,.08-.97,.08,1.83,.08,4.83,.08-3.78,.08,21.61,.08-.03,.08,4.8,.08-2.2,.08,3.37,.08-.21,.08,2.37,.08-11.06,.08,8.68,.08-.21,.08-.66,.08,1.93,.08-.9,.08,6.53,.08-.68,.08-5.91,.08,3.53,.08-4.26,.17,5.23,.08-4.57,.08,6.19,.08-4.86,.08,1.15,.08,2.99,.25-8.3,.25,8.78,.08-.36,.08-2.52,.08,1.27,.08-6.21,.17,6.35,.08-.11,.08-5.12,.25,5.68,.08-5.47,.08,8.82,.08-9.42,.17,5.34,.17-3,.08,7.4,.08-9.71,.25,8.29,.17-4.05,.08,1.05,.08-3.11,.08,2.91,.08-6.11,.08,4.1,.08-2.35,.08,7.89,.08-3.25,.08,.68,.17-5.92,.17,8.91,.08-8.79,.08,7.2,.08-5.15,.08,1.42,.08-3.28,.08,8,.08-.05,.17-9.23,.17,7,.17-6.82,.08,1.06,.08-1.79,.08,10.99,.08-1.02,.17-8,.17,6.57,.08-6.19,.08,8.26,.17-5.08,.08-.62,.08-1.9,.08,4.22,.08-2.91,.08,.31,.08,.43,.08-1.05,.17,6.28,.08-.39,.08-1.19,.17-6.96,.08,1.57,.08-.99,.08,4.95,.08-.61,.08,.12,.17,3.76,.17-10.49,.17,10.65,.08-8.28,.08,5.95,.08-6.52,.08,1.42,.08-2.73,.08,6.07,.08-2.86,.08,2.23,.08-1.87,.17,4.99,.25-7.03,.17,1.66,.08,6.22,.08-6.86,.08,2.49,.17-4.74,.08,9.77,.08-8.65,.08,8.85,.17-5.7,.08,4.45,.08-6.76,.08,8.34,.08-1.81,.25-8.45,.33,10.34,.08-1.34,.17-6.27,.08,2.91,.08-3.54,.17,7.42,.08-1.33,.08-7.32,.08,1.3,.08-1.92,.08,8.78,.08-9.86,.08-118.89,.08,7.59,.08-37.87,.08,27.52,.08-14.87,.08,18.88,.17-27.94,.08,22.43,.08-13.45,.08,18.53,.17-31.94,.08,5.49,.08-4.47,.08,5.89,.08-31.7,.17,28.79,.08-8.91,.08,5.61,.17-28.53,.08,23.38,.08-24.36,.17,31.62,.08-23.96,.08,7.96,.17-16.9,.08,20.18,.08-20.7,.08,6.76,.08,11.77,.08-5.15,.08,11.43,.08-29.71,.17,42.42,.08-12.77,.08-13.39,.17,27.06,.08-19.24,.08,5.3,.08-4.77,.17,12.15,.08-23.7,.08,7.89,.08,14.21,.17-17.7,.08,23.48,.08-3.4,.08,3.35,.08-33.4,.08,2.71,.08-.04,.17,3.75,.08,8.7,.08-7.47,.08,27.29,.17-33.42,.25,22.62,.17-18.77,.08-8.06,.08,23.89,.08-19.32,.08,9.42,.08-14.53,.17,16.51,.08-2.72,.17-17.48,.17,41.19,.08-39.96,.08,18.43,.08-3.84,.08,5.99,.08,17.57,.08-30.48,.08,.94,.17,19.93,.08-24.03,.08,34.6,.08-36.55,.08,28.22,.17-30.7,.17,23.57,.08-12.43,.17,18.63,.08-32.52,.25,28.99,.17,137.53,.17-13.22,.08,4.06,.08-5.49,.08,14.6,.08-6.03,.08,2.34,.08-3.8,.08,6.78,.08-15.94,.08,38.83,.08-8.85,.08,6.28,.08-7.08,.08,5.46,.08-4.77,.08,11.71,.17-11.36,.17,10.21,.17-4.71,.25,9.17,.08,1.62,.08-9.36,.08,8.36,.17-9.57,.08,8.17,.08-5.28,.08,6.79,.08-4.97,.08,4.99,.08-6.49,.08,4.94,.17-3.39,.08,4.86,.08-6.48,.08,4.98,.08-4.08,.08,5.72,.08-6.02,.08,6.56,.08-3.36,.08,2.01,.08-5.67,.08,5.5,.17-7.12,.08,7.87,.08-4.72,.08,5.95,.17-7.08,.08,.65,.08,.39,.08,3.87,.08-1.08,.08,3.11,.08-6.96,.08,2.43,.08-2.32,.08,5.2,.08-.85,.08-.11,.08,3.49,.25-9.84,.25,9.79,.08-9.59,.08,9.79,.08-10.53,.17,6.81,.08-6.58,.08,10.17,.08-6.29,.08,.37,.08,3.72,.25-5.74,.08,8.21,.08-10.58,.08,8.73,.08-.78,.08-.34,.08,2.55,.08-.96,.08-9.75,.17,9.84,.08,.09,.17-8.45,.17,9.42,.08-2.28,.08,1.88,.08-.53,.08-3.71,.08,2.28,.08-3.23,.08,2.97,.08-7.76,.08,.39,.17,6.23,.17-.65,.08-3.57,.08,3.12,.17-5.56,.08,6.87,.08-2.54,.08,5.26,.08-1.19,.08-2.41,.08,2.34,.08-7.57,.08,8.12,.25-6.03,.08,3.49,.08-5.49,.25,9.06,.17-8.51,.08,2.33,.08-2.46,.25,9.25,.25-8.78,.08,5.59,.08-2.26,.5,4.98,.08-1.61,.08,2.13,.08-6.98,.08,3.51,.08-7.42,.08,8.81,.08-1.72,.08-.14,.08,3.95,.08-9.39,.08,9.12,.08-10.26,.08,.54,.08,4.03,.08-.09,.08-1.25,.08,3.01,.08-2.94,.08,6.81,.08-.1,.25-9.42,.17-143.61,.08,23.54,.08-7.07,.08,2.98,.08-3.21,.08,9.59,.17-25.02,.08,13.83,.08-1.89,.17-36.51,.08,9.45,.08,10.2,.08-27.5,.17,29.1,.08-2.1,.08-23.41,.08,33.28,.08-41.56,.08,37.78,.08-29.19,.08,12.28,.08-4.38,.08-17.45,.25,37.35,.08,2.11,.17-30.47,.17,25.47,.25-28.01,.17,28.55,.08-38.86,.08,30.69,.17-27.21,.08,4.11,.08,27.25,.08-29.48,.08,2.37,.33,29.02,.17-20.94,.08,10.21,.08-5.24,.08,5.05,.17-24.3,.08,33.32,.08-9.87,.08,10.87,.17-26.58,.08-9.18,.08,29.51,.08-30.34,.08,40.09,.08-24.39,.08,24.67,.08-37.81,.08,16.45,.17-13.65,.17,35.84,.08-37.98,.17,33.89,.17-21.21,.08,25.64,.08-11.02,.08,10.94,.25-42.93,.17,37.11,.08-33.64,.17,33.99,.08-34.71,.08,7.42,.17,2.18,.08,23,.08-.48,.08-21.57,.08,21.18,.25-25.5,.08,14.95,.17-17.42,.17,27.58,.08,127.41,.08-.74,.08,3.58,.08-2.83,.08,1.15,.17-12.64,.08,14.54,.08-11.13,.08,.6,.08,10.69,.08-14.95,.17,36.48,.08-4.97,.08,6.32,.08-5.52,.08,8.27,.08-10.12,.08,4.95,.08-2.39,.08,5.26,.17-6.97,.08,9.18,.08-1.67,.08,1.87,.08-5.07,.08,4.58,.08-3.98,.08,.47,.17,6.61,.08-2.04,.08-4.86,.08,6.93,.17-5.54,.08,5.14,.08-3.28,.17,6.05,.08-7.78,.08,7.9,.08-1.96,.08-6.63,.08,5.78,.08-7.11,.08,.16,.17,10.62,.08-7.51,.17,6.84,.08-6.86,.08,7.65,.08-9.49,.17,8.4,.08-.55,.08-8.83,.08,3.02,.08-1.22,.17,5.26,.08,1.15,.17-3.59,.08-.9,.08,4.23,.08-7.82,.08,8.8h0"/>
    </g>
    <rect class="cls-3" x="54" y="34.56" width="334.8" height="217.44"/>
  </g>
  <path class="cls-8" d="M54,252V34.56"/>
  <path class="cls-8" d="M388.8,252V34.56"/>
  <path class="cls-8" d="M54.55,252H388.8"/>
  <path class="cls-8" d="M54,34.56H388.8"/>
  <text class="cls-4" transform="translate(35.8 42.65)"><tspan x="0" y="0">90</tspan></text>
  <text class="cls-4" transform="translate(35.78 70.27)"><tspan x="0" y="0">80</tspan></text>
  <text class="cls-4" transform="translate(35.77 98.08)"><tspan x="0" y="0">70</tspan></text>
  <text class="cls-4" transform="translate(35.74 126.93)"><tspan x="0" y="0">60</tspan></text>
  <text class="cls-4" transform="translate(35.86 155.73)"><tspan x="0" y="0">50</tspan></text>
  <text class="cls-4" transform="translate(35.95 183.83)"><tspan x="0" y="0">40</tspan></text>
  <text class="cls-4" transform="translate(35.86 211.89)"><tspan x="0" y="0">30</tspan></text>
  <text class="cls-4" transform="translate(35.79 240.46)"><tspan x="0" y="0">20</tspan></text>
  <text class="cls-4" transform="translate(47.64 265)"><tspan x="0" y="0">01</tspan></text>
  <text class="cls-4" transform="translate(71.26 265)"><tspan x="0" y="0">02</tspan></text>
  <text class="cls-4" transform="translate(95.2 265)"><tspan x="0" y="0">03</tspan></text>
  <text class="cls-4" transform="translate(119.17 265)"><tspan x="0" y="0">04</tspan></text>
  <text class="cls-4" transform="translate(142.82 265)"><tspan x="0" y="0">05</tspan></text>
  <text class="cls-4" transform="translate(166.5 265)"><tspan x="0" y="0">06</tspan></text>
  <text class="cls-4" transform="translate(192.75 265)"><tspan x="0" y="0">07</tspan></text>
  <text class="cls-4" transform="translate(214.96 265)"><tspan x="0" y="0">08</tspan></text>
  <text class="cls-4" transform="translate(239.85 265)"><tspan x="0" y="0">09</tspan></text>
  <text class="cls-4" transform="translate(262.24 265)"><tspan x="0" y="0">10</tspan></text>
  <text class="cls-4" transform="translate(286.71 265)"><tspan x="0" y="0">11</tspan></text>
  <text class="cls-4" transform="translate(310.74 265)"><tspan x="0" y="0">12</tspan></text>
  <text class="cls-4" transform="translate(333.78 265.14)"><tspan x="0" y="0">13</tspan></text>
  <text class="cls-4" transform="translate(358.53 265)"><tspan x="0" y="0">14</tspan></text>
  <text class="cls-7" transform="translate(186.1 281.65)"><tspan x="0" y="0">April 2014</tspan></text>
  <text class="cls-7" transform="translate(189.1 301.65)"><tspan x="0" y="0">TIMESTAMP</tspan></text>
</svg>