<?xml version="1.0" encoding="utf-8"?>
<!-- Generator: Adobe Illustrator 26.4.1, SVG Export Plug-In . SVG Version: 6.00 Build 0)  -->
<svg version="1.1" id="Layer_1" xmlns="http://www.w3.org/2000/svg" xmlns:xlink="http://www.w3.org/1999/xlink" x="0px" y="0px"
	 viewBox="0 0 432 288" style="enable-background:new 0 0 432 288;" xml:space="preserve">
<style type="text/css">
	.st0{fill:none;}
	
		.st1{clip-path:url(#SVGID_00000133495854669393481960000017767390766897700747_);fill:none;stroke:#FFFFFF;stroke-width:1.5;stroke-linecap:square;stroke-linejoin:round;}
	.st2{fill:#FFFFFF;stroke:#FFFFFF;stroke-width:0.8;stroke-linecap:square;}
	.st3{fill:#FFFFFF;stroke:#FFFFFF;stroke-width:0.8;stroke-linejoin:round;}
	.st4{fill:#FFFFFF;stroke:#FFFFFF;stroke-width:0.6;stroke-linejoin:round;}
	.st5{fill:#FFFFFF;}
	.st6{font-family:'AnonymousPro';}
	.st7{font-size:12px;}
	.st8{font-family:'SourceCodePro-Medium';}
</style>
<path class="st0" d="M0,288h432V0H0V288z"/>
<g>
	<defs>
		<rect id="SVGID_1_" x="54" y="34.6" width="334.8" height="217.4"/>
	</defs>
	<clipPath id="SVGID_00000135665294778807074710000009190622661145641877_">
		<use xlink:href="#SVGID_1_"  style="overflow:visible;"/>
	</clipPath>
	
		<path style="clip-path:url(#SVGID_00000135665294778807074710000009190622661145641877_);fill:none;stroke:#FFFFFF;stroke-width:1.5;stroke-linecap:square;stroke-linejoin:round;" d="
		M54,241.2l0.1-10.3l0.1,9.5l0.1-9.4l0.1,0.1l0.2,4.5l0.1-3.3l0.1,6.5l0.1-2l0.1-1.7l0.1,2.4l0.1-0.2l0.1,1.1l0.2-5.9l0.1,7.3
		l0.1-8.3l0.1,2.8l0.1-1.5l0.1,3l0.1-2.5l0.1,8.6l0.1-9.1l0.1,8.8l0.2-10.8l0.2,8.8l0.1-6.3l0.1,5.8l0.1-6.9l0.1,8.6l0.1-0.3
		l0.1-9.6l0.1,3.4l0.1-2l0.1,5.9l0.1-4l0.1,0.9l0.1-0.1l0.1-0.9l0.2,4.6l0.1-5.6l0.1,6.1l0.1-5.3l0.1,5.2l0.2-5.8l0.2,7.8l0.1-0.8
		l0.2-8.1l0.1,9.1l0.1-7.8l0.1,4.4l0.1-1.6l0.1-5.1l0.1,6.7l0.1-1.5l0.1,5.1l0.1-0.8l0.1-2l0.1,2.6l0.1-6.8l0.1,2.3l0.1-1.4l0.1,4.2
		l0.1-1.4l0.2-7.6l0.1,10.3l0.1-9.5l0.2,3.7l0.1,0.7l0.1,4.9l0.1-0.2l0.1-5.8l0.1,2.9l0.1-6.5l0.2,8.7l0.1-6.5l0.1,4.8l0.2-6.9
		l0.2,2.5l0.1,0l0.1-3l0.2,10.7l0.2-7.5l0.2,0.8l0.1,6.5l0.1-8.1l0.1,4.6l0.1-3.9l0.1,1.2L63,106.9l0.1,8l0.1,1.5l0.2-31.7l0.2,31.3
		l0.1-11.5l0.2-14.5l0.2,30L64,64.5L64,80l0.1,4.5l0.1,10.6l0.2-41.4l0.2,38.3l0.1-20.3l0.1,7.4L65,63.5l0.2,23l0.1-9.9l0.1,9.8
		l0.1-3.6l0.1-36.4l0.1,24.4l0.1-3.9l0.2-20.8L66,63.5L66,53.1L66.2,76l0.1-4.4L66.5,59l0.2,24.8l0.1-22.5L66.8,84L67,58.3L67,58
		l0.2-7.8L67.3,67l0.1-10.4l0.1,5l0.2,26.8L68,51.2l0.2,32.7L68.2,46l0.1,38.7l0.2-21.6l0.1,2L68.7,87l0.1-2.2l0.1-21.7L69,65L69,79
		l0.2-26.5l0.1,35.2l0.2-29.3l0.1,19.8l0.1-2.5L69.8,49l0.1,4l0.1,10.2l0.1-6.6l0.1,16.5l0.1-12.5L70.4,81l0.1-23.1l0.1,6.6l0.1,8.9
		l0.1-25l0.1,40.2l0.1-13.3L70.9,87L71,54.9l0.1,2.9l0.1,16.8L71.3,59l0.1,12.6l0.1-16.3l0.2,15.5l0.1-23.6l0.2,36.8L71.9,201l0.1-7
		l0.2,16.4l0.2-8l0.1,6.2l0.2-15.1l0.2,11.6l0.1-0.8l0.1,30.2l0.1-9.7l0.2,6.3l0.1-3.4l0.1,2.8l0.1-2.6l0.1,7.4l0.2-11.1l0.1,3.7
		l0.1-3.9l0.1,15.2l0.1-3.8l0.1-1.4l0.1,0.2l0.2,5.3l0.1-3.1l0.1,2.7l0.1-6.6l0.2,7.8l0.2-8.2l0.2,6l0.1-5.2l0.2,8.2l0.2-9.4
		l0.2,6.9l0.1,1.9l0.1-0.1l0.2-5l0.1,5.8l0.1-9.7l0.1,2.1l0.1,1.9l0.1-2.7l0.1,8.5l0.2-8.4l0.1,0.5l0.1,5.7l0.1-7.5l0.1,9.2l0.2-9.6
		l0.1,9l0.1-6.2l0.1,7.7l0.2-5.4l0.1-0.7l0.1-4l0.2,5.1l0.2-5.3l0.1,10.5l0.1-10.9l0.1,10.1l0.1-8.2l0.2,7.7l0.2-5.8l0.2,6.7
		l0.2-9.6l0.2,7.8l0.1-2.6l0.1,4.5l0.2-8.8l0.2,5.3l0.1-5l0.1,2.8l0.1-3.1l0.1,2.2l0.1-1.7l0.2,4.2l0.1-6.1l0.2,8.3L81,235l0.1,0.6
		l0.2,5.8l0.2-8l0.2,6.1l0.1-5l0.1,6.6l0.1-4.1l0.1,3.1L82,240l0.1-0.2l0.1-2.1l0.1,3.8l0.2-5.2l0.1,0.3l0.1,1.1l0.1-5.2l0.1,7.8
		l0.1-4.1l0.1,5l0.1-0.1l0.1-5.7l0.1,0.1l0.1-3.5l0.1,3.6l0.1-4.5l0.1,10.3l0.1-0.6l0.1,0.6l0.1-1.6l0.2-5.2l0.1,6.8l0.1-10.2
		l0.1,1.2l0.2,8.6l0.1-1l0.2,0.5l0.1-4.5l0.1,3.1l0.1-1.3l0.1-7.1l0.1,3.4l0.1-3l0.1,9.1l0.1-2.7l0.1-2l0.2,6.2l0.1-7.5l0.1,0.3
		l0.1,2.6l0.1-0.9l0.1,0.8l0.1,4.4l0.1-3.5l0.2,2.7l0.1-9.7l0.1,4l0.1-1.5l0.1,4.7l0.1-0.9l0.2,3.3L87,89.4l0.2,12.4l0.1-17.2
		l0.1,32.6l0.1-8l0.1-2.7L87.7,82l0.1,28.9l0.1-53.5l0.1,1.9l0.1,26.6l0.1-7.7l0.1-0.5l0.1-24.9l0.1,35l0.1-27.1L88.6,81l0.1-17.4
		l0.1,13.6l0.1-6.9l0.1-16.9l0.1,1.3l0.1-2.8l0.1,36.2l0.1-28.4l0.1,24.8l0.2-18.4l0.1,6.6l0.1-5.3L89.7,46l0.1,38.7l0.1-25.4
		L90,83.8l0.1-1.2L90.2,47l0.1,3.1l0.1-1.2l0.1-3.8l0.1,35.4l0.1-6.6l0.1-14.2l0.2,11.1l0.1,2.7L91,62.8l0.1,0.8l0.1,18.7l0.2-17.7
		l0.1-0.8l0.1,16.3l0.1-24l0.1,32.4l0.2-34.2L92,77.8l0.1-19.6l0.1,5.8l0.1-10.3l0.1,2.8l0.2,11.2l0.1,16l0.2-21.1l0.1,3.9l0.2,22.9
		l0.1-22.1l0.1,9.5l0.1-20.3l0.1,32.1L93.6,47l0.1,34.7l0.1-13.4l0.1,17.2L94,61.3l0.1,3.4l0.1,6.5l0.1-5.2l0.1-17l0.2,39.5
		l0.1-37.9l0.1,12.9l0.1-14.2l0.1,13.3l0.1-9.6l0.1,17.2l0.2-21.8l0.2,33.1l0.1-4l0.1,3.2l0.2-4.9L95.8,63l0.1,140.9l0.1-3.4
		l0.1,9.7l0.1-0.1l0.1-1.5l0.1-6.3l0.1,5.5l0.1-1.3l0.1-2.1l0.1-7.4l0.1,14.4l0.1-11.5l0.1,27.7l0.1-1.6l0.1-1.7l0.1,11.5l0.1-1.7
		l0.1-9.3l0.1,5.4l0.1-1.3l0.3-5.5l0.2,14.2l0.1-6.9l0.1,9.6l0.1-2.1l0.1-7.7l0.2,7.8l0.1,1l0.1-8.3l0.1,4.2l0.1-2l0.1,6.1l0.2-5.9
		l0.1,5.1l0.1-1.1l0.1,2.3l0.1-8.7l0.1,3.8l0.1-3.3l0.1,7.2l0.1-5.4l0.1,0.2l0.1,1.1l0.1-3.1l0.2,9.4l0.2-6.8l0.1,1.7l0.1,4.2
		l0.1-3.4l0.1,2.2l0.2-4.9l0.1,5.8l0.1-2l0.2,2.3l0.2-8l0.1,6.1l0.2-6l0.1,0.6l0.1,7.5l0.1-8.7l0.2,7l0.1,3.1l0.1-4.8l0.1,4.3
		l0.2-2.3l0.2-6.3l0.1,6.5l0.1-6.3l0.1,0l0.1,1l0.1,7l0.2-9l0.2,6.9l0.1-1.9l0.1-1.6l0.1,1.5l0.1,4.4l0.1-2.2l0.2-6.2l0.1,8.2
		l0.1-9.2l0.1,7l0.2-4.8l0.2-2.2l0.1,7.2l0.1-6.2l0.1,8.2l0.2-6.9l0.1,0.7l0.1,4.8l0.1-7l0.2,9.3l0.1-7.5l0.1,2.7l0.1-4.2l0.2,7.7
		l0.1-7.5l0.2,7.3l0.1-6l0.1,2.4l0.1-1.1l0.1,1.6l0.2-4.2l0.1,1.4l0.1,6.8l0.1-8.3l0.1,1.9l0.1-0.3l0.1,3.8l0.1-5.8l0.1,1.7l0.1,6.9
		l0.2-8.7l0.1,9.5l0.1-10.3l0.1,3.2l0.1,0.5l0.2,4.3l0.1-7.8l0.1,7.3l0.1-5.4l0.2,8.6l0.2-10.9l0.2,7l0.1,0.1l0.1-2l0.1,0.9l0.1-5
		l0.2,8.4l0.1-9.5l0.2,10.3l0.1-6.7l0.1,0.8l0.1,2l0.1-0.1l0.1-4.1l0.1,6.7l0.1-7.1l0.1,1.9l0.2,4.4l0.1-5.6l0.2,4.9l0.2-156.7
		l0.1,21.5l0.1-18.6l0.2,33.3l0.2-14l0.2,16.1l0.1-35.1l0.1,2.7l0.1-24.5l0.2,27.3l0.1,2.3l0.2-37.8l0.2,35.5l0.1-17.2l0.1,7.2
		l0.1-1.1l0.2-20.7l0.2,30.7l0.1-43.1l0.2,42.3l0.1-6.1l0.1,6.8l0.2-34.3l0.1,20.7l0.1-4.6l0.1-11.5l0.1,7.5l0.2-16.1l0.1,38.6
		l0.1-34.7l0.1,14.3l0.1-23.8l0.1,22.8l0.1-22.7l0.2,33.3l0.1-13.3l0.1-20.5l0.1,6.1l0.1,34.3l0.1-27.5l0.2,31.6l0.1-17.9l0.1,7.6
		l0.1-26.4l0.1,21.8l0.1-22.2l0.1,37.3l0.1-13.9l0.1,3L116,79l0.1,7.5l0.1-5.4l0.1-16.7l0.1,11.9l0.1-5.7l0.1,1.8l0.2-23.9l0.2,36.1
		l0.1-38.3l0.1,40.4l0.1-10.7l0.1,0l0.1-1l0.1,7.1l0.1-28l0.1,29.9l0.1-23.2l0.2,25.5l0.1-37.9L118,81l0.1-28.5l0.2,33.6l0.1-39.7
		l0.1,32l0.1-27.7l0.1,31.2l0.1-31l0.1,38l0.2-41.7l0.1,1.2l0.1,4l0.1-3.1l0.1,31.1l0.1-3.8l0.1-0.2l0.2-4.7l0.2,136.9l0.1-9.6
		l0.1,9.5l0.1-2.6l0.2-8.8l0.1,1l0.1,1.7l0.1,8.9l0.1-7.1l0.1,8.3l0.1,21.2l0.1-0.5l0.1,4.7l0.1-3l0.1-8.6l0.1,0l0.2,11.5l0.2-4.4
		l0.1-7l0.1,10.2l0.1-2.2l0.1,7.6l0.1-10.1l0.1,6.9l0.1-4.6l0.1,5l0.1-3.3l0.2,5.6l0.1-9.2l0.1,0.2l0.1,0.3l0.1,4.1l0.1-2.1l0.1,8.4
		l0.2-6.4l0.2,5.5l0.2-7.6l0.2,7.7l0.2-1.7l0.1-3.9l0.1,0.5l0.1-1.1l0.1,3.8l0.1-5.2l0.1,7l0.2-6.8l0.2,7.9l0.1-8.7l0.1,6.1l0.1-3.9
		l0.1,7.4l0.1-7.5l0.2,7.2l0.1-6.3l0.1,4.2l0.1-1.7l0.1,3.5l0.1-0.7l0.1-1.7l0.1,2.4l0.1-9.3l0.1,10.2l0.1-5.4l0.1,4.1l0.1-2.1
		l0.1-7l0.1,8.6l0.1-9.1l0.1,8.6l0.1-6.1l0.1,2.2l0.1-3.8l0.2,7.8l0.1,0.3l0.1-8.5l0.1,6.7l0.1-0.5l0.1-4.4l0.1,4.8l0.1-6.9l0.2,4
		l0.1-3.2l0.1,9.4l0.1-2.3l0.1-2.4l0.1,2.7l0.2-7.8l0.2,6.5l0.1-7l0.1,5.8l0.1-0.5l0.1,1.6l0.1-6.3l0.1,3.8l0.2-2.7l0.1,5.3l0.1-1
		l0.1-4.7l0.1,5.5l0.2-6.5l0.1,3.6l0.2-2.5l0.2,9l0.2-7l0.1,2.5l0.1-3.4l0.1,4.4l0.1-3.1l0.1,5.1l0.1-6.4l0.2,6.2l0.1-1l0.1-5.2
		l0.2,6l0.1-8.5l0.1,2.8l0.1-2.7l0.1,6l0.1-0.5l0.1-4.8l0.1,4.2l0.1-2.1l0.1,5.1l0.1-2.2l0.1,3.7l0.1-0.9l0.1,2.3l0.1-0.4l0.1-10.6
		l0.1,8.3l0.2-6.7l0.2,7.8l0.1-6.5l0.1,1.4l0.2-4.2l0.2,7.2l0.1-3.5l0.1,6.6l0.1-9.4l0.1,8.8l0.1-2.4l0.1-5.5l0.2,4.8l0.1-0.9
		l0.1-4.3l0.1,5.8l0.1-151.6l0.1,30l0.2-29.2l0.1,25.6l0.1-9.5l0.1,10.2l0.1-20.8l0.1,6.6l0.1-3.8l0.1,16.9l0.1-0.6l0.3-53.9
		l0.2,18.5l0.1-22.7l0.1,10.3l0.1-9.2l0.2,38.5l0.1-35.2l0.1,27.2l0.1-8.2l0.2-11.8l0.1-1.6l0.1,19.5l0.2-36.1l0.1,10.9l0.1-8.8
		l0.2,13.8l0.1,18l0.1-21.4l0.1,2l0.1,0.9l0.1,5.1l0.1-1.8l0.1,8.8l0.1-8.3l0.1,14.5l0.1-27.4l0.2,32.3l0.2-25.9l0.2,17.2l0.1-12.7
		l0.1,9.5l0.1-26.5l0.1,0.5l0.2,26.9l0.1-18.5l0.1,31.7L140,48l0.1,41.1l0.2-32.9l0.2,29.6l0.1-40.1l0.1,20.5l0.1-4.4l0.1,17.1
		l0.1-11.2l0.1,2.5l0.1,16l0.1-1.4l0.1-33.1l0.2,29l0.2-25.9l0.1,31.9l0.1-23.3l0.2,24.4l0.1-0.7l0.1-35.3l0.2,35.7l0.2-36.1
		l0.1,26.3l0.1-7.2l0.1,17.3l0.2-24.3l0.1,0.3l0.2,21l0.1-11.8l0.1,12.1l0.2-39.2l0.1-0.2l0.1,4.7l0.1,150.3l0.1-1.8l0.1,7.5
		l0.1-6.2l0.1,3.2l0.1-0.5l0.1-5l0.1,8.6l0.1-0.7l0.1-11l0.1,15.7l0.1-7.8l0.2,25.5l0.1,0.8l0.1,3.8l0.1-1.2l0.1-6.4l0.3,10.6
		l0.1-12l0.2,16.2l0.2-9.9l0.2,9.3l0.2-7.4l0.1,4.2l0.1-5.5l0.1,2.7l0.1-2.9l0.2,9.9l0.1-2l0.1,1.2l0.1-8l0.1,1.7l0.1,1l0.2,5.6
		l0.1-6.5l0.2,6l0.1-4.2l0.1,6.5l0.2-4.8l0.1,3.6l0.1-9.5l0.2,9.7l0.1-0.8l0.1-6.4l0.1,3.9l0.1-1.6l0.1,6.2l0.1-0.2l0.2-9.6l0.1,9
		l0.2-9.3l0.1,5.9l0.1-5l0.1,7.9l0.1-9.1l0.1,2.1l0.1-2.1l0.2,6.5l0.1-6.5l0.1,7.5l0.1-0.6l0.2-4.9l0.1-1.9l0.1,8.2l0.1-6.7l0.1,0.7
		l0.1,7.6l0.1-3.7l0.1,1.2l0.1-0.2l0.1-7.7l0.1,3.8l0.1-0.8l0.1-2.9l0.1,6.8l0.1-4.8l0.1,4.2l0.1-4.9l0.1,7.8l0.1-8.7l0.1,8.2
		l0.1-1.2l0.1-4.9l0.1,4.1l0.1-2.4l0.1,1.8l0.1-3.4l0.2,7.7l0.2-4.7l0.1,3.5l0.2-2.6l0.1,3.9l0.2-9.3l0.1,8.3l0.2-5.8l0.1,2.8
		l0.1-3.2l0.2,7.8l0.1-7.7l0.1,0.3l0.1,7l0.2-10.6l0.1,6.3l0.1-0.9l0.1-4.6l0.2,3.7l0.2-3.2l0.1,4.6l0.1-0.2l0.1,1l0.1-6.6l0.2,10
		l0.1-8.8l0.2,9l0.2-9.1l0.1,7.6l0.1-7l0.2,8.7l0.1-10.4l0.2,7.7l0.2-6.4l0.2,7.5l0.1,0.7l0.1-1.9l0.1-5.4l0.2,6.9l0.1-1.9l0.1-6.9
		l0.1,6.7l0.1-7.3l0.2,9.1l0.1-8l0.1,4.9l0.2-5.9l0.1,10.5l0.1-0.5l0.1-7l0.2,6.1l0.1-121.5l0.1,0.7l0.1-28.9l0.1,24.6l0.2-18.1
		l0.2,22.2l0.1-29.1l0.1,29.7l0.2-33.9l0.2-13.6l0.2,6.4l0.2-22.1l0.1,24.5l0.2-27.5l0.2,22.3l0.1,2.5l0.1-30.6l0.1,36.7l0.1-19.6
		l0.2,13.5l0.1-5.7l0.1-26.7l0.1,42.4l0.1-23.5l0.1,22.3l0.1-3.2l0.2-17.1l0.2,19.1l0.1-9.8l0.1-29.9l0.1,1l0.1,27.5l0.2-25.9
		l0.1,40.8l0.2-42.8l0.1,38.7l0.1-3.2l0.1-36.1l0.2,42.8l0.4-44.3l0.1,31.9l0.1-11.3l0.1,0.2l0.2,16.5l0.1-36.5l0.1,5.6l0.2,28.3
		l0.2-21.1l0.1,8.1l0.1-21.5l0.2,28l0.1-18.1l0.1,27.2l0.1-9.7l0.1,1.7l0.1-3.8l0.1-15.8l0.1,13.5l0.1-14l0.2,20.4l0.1-21.1
		l0.2,26.5l0.1-12.7l0.2,22.4l0.1-28.9l0.1,6.2l0.1,3l0.1-23.6l0.1,17.9l0.1-13.2l0.1,32.7l0.2-32.9l0.1,12.9l0.1-6.1l0.2,28.3
		l0.2-35l0.1,156.8l0.1-13.1l0.1,0.2l0.1,12.8l0.1-1.8l0.2-11.2l0.2,11.7l0.2-6.6l0.1,7.5l0.2,28.7l0.1,0l0.1-4.3l0.1,0.4l0.1,0.5
		l0.1-2.2l0.2,3.8l0.1-1.5l0.1-8.4l0.2,12.1l0.1-1.5l0.1-4.7l0.1,8.6l0.2-5.5l0.1,1.3l0.1,6l0.1-6.8l0.1,7.1l0.2-7.8l0.1,7.1
		l0.1-7.2l0.1,9.2l0.1-9.2l0.2,8.1l0.1-9.3l0.1,10l0.1-1.4l0.2-4.8l0.1,1.1l0.1,4.7l0.1-1.9l0.1,0.6l0.1,0.3l0.2-5.5l0.1,5.5
		l0.1-1.7l0.1-0.3l0.1-6.6l0.1,0.2l0.1,1.8l0.2,8.3l0.3-8l0.1-0.9l0.1,0.2l0.1,5.5l0.1-3.7l0.2,7.1l0.1-7.2l0.1,7.8l0.2-7.7l0.1-0.8
		l0.1,5.2l0.1-5.7l0.1,5.8l0.1-1.7l0.2-6.1l0.1,8.6l0.1-4.9l0.1,0.6l0.1-3.5l0.1,8.6l0.1-6.7l0.1,2.1l0.1,3.3l0.1-2.3l0.1,1.6
		l0.2-6.3l0.1,3.6l0.1-0.7l0.1,1.3l0.1,5.3l0.2-5l0.2,3.5l0.1-3.6l0.2,2.8l0.1-2.3l0.1,3.7l0.1-9l0.1,0.7l0.1,1.8l0.1,6.8l0.2-7.9
		l0.1,0.5l0.1,7.4l0.2-8.1l0.1,2.9l0.1-0.8l0.1,2.1l0.1-0.8l0.1,5.6l0.1-6.8l0.1,6.3l0.1-4l0.1,1.6l0.1-2.9l0.1,4.7l0.2-7.5l0.2,7.8
		l0.1-0.5l0.1-8.3l0.2,8.7l0.2-8.6l0.1,0.4l0.1,2.3l0.1,6.2l0.1-0.4l0.1,0.7l0.1-2.4l0.1,1.4l0.2-2.8l0.1-6.3l0.1,3.8l0.1-2.5
		l0.1,1.4l0.1,6.8l0.1-7l0.1,5.2l0.1-4.1l0.1,3.4l0.1-7.4l0.1,8.3l0.1-0.2l0.1-7.4l0.1,10.2l0.2-7.9l0.2-2.8l0.1,10.3l0.1-8.5l0.1,2
		l0.1,0l0.1,5.9l0.2-9.7l0.1,0.8l0.1,5.3l0.2-131l0.1-17.8l0.1,4.8L183,118l0.2-33.6l0.2,23.7l0.2-15.3l0.1-39.7l0.1,26.9l0.1-5.2
		l0.1,5.4l0.1-14.3l0.1,0.9l0.1-2.3l0.1,19.6l0.1-2.1l0.1,8.3l0.1-23.2l0.1,22.1l0.2-37.3l0.1-0.9l0.2,36.6l0.2-33.4l0.1,25.9
		l0.1-7.9l0.2-21.6l0.1,28.6l0.1-13.9l0.2,20.3l0.1-36.5l0.1,4.1l0.1,2.7l0.1,32.1l0.1-35.9l0.2,22.6l0.1-9.4l0.1,20.6l0.1-30.1
		l0.1,7.9l0.1,17.9l0.1-0.1l0.1,0.2l0.1,5.7l0.2-35.4l0.1,37.2l0.1-1.4l0.2-34.9l0.1,22.3l0.1-1l0.1-11.2l0.2,25.8l0.1-32l0.1,5
		l0.1,2l0.1-7.3l0.1,3l0.1,21.2l0.1-6.6l0.1,10.2l0.1-0.2l0.2-32.9l0.1-4.7l0.2,38.7l0.1-32l0.1,10.6l0.1-1.8l0.1-7.4l0.1,3.5
		l0.1-5.9l0.1,35.2l0.2-35.9l0.1,25.5l0.1-16l0.1,14.7l0.1-29.1l0.1,41.8l0.1-24.7l0.1,18.7l0.1-24.7l0.1,24.2l0.1-2.7l0.2-30.7
		l0.2,34.8l0.1-27.8l0.1,11.7l0.1-18.6l0.1,160.6l0.1-9l0.2,8.8l0.1-9.5l0.1,1.6l0.1-2.9l0.1,8.1l0.1-2.5l0.1,0.8l0.1-10.5l0.2,38.5
		l0.2-3.4l0.1,4l0.1-8.4l0.1,8.2l0.1-8l0.1,10l0.2-10.2l0.1,9.3l0.1-10.1l0.1,11.9l0.1-5.7l0.2,8.8l0.1-1.3l0.1,2.4l0.1-0.6l0.1,0.5
		l0.2-8l0.2,8.7l0.1-5.8l0.2,6.2l0.1-0.8l0.1-8.6l0.1,1.2l0.1,5.3l0.1-3.4l0.1,1.3l0.2-1.7l0.1,0.8l0.2,6.7l0.2-9.6l0.1,3.6l0.2-4.8
		l0.1,9.4l0.1-6l0.1,0.2l0.2-3.5l0.2,8.4l0.1-6.3l0.1,7.8l0.2-9.1l0.1,6l0.1-2.8l0.1,2.3l0.1-0.1l0.1,1.4l0.2-7.1l0.1-0.1l0.1,8.7
		l0.1-7.9l0.1,1.6l0.2,7.6l0.1-2.3l0.1-7.3l0.2,7.4l0.1-5.2l0.1,7.8l0.2-6.8l0.1,5.4l0.1-7.6l0.1,6.6l0.1-4.7l0.1,2.8l0.1-2.2
		l0.2,6.5l0.1-10.1l0.1,7.2l0.2-8.2l0.1,8.9l0.1-0.6l0.2-7.9l0.1,0.6l0.1,4.7l0.1-3.3l0.1,7.5l0.1-9.5l0.1,0.1l0.1,9l0.1-1.5
		l0.1,2.3l0.1-1.9l0.1-6.1l0.2,8.2l0.1-2.9l0.1-7.2l0.2,9.2l0.1-9.3l0.1,1.9l0.2,8.5l0.1,0.2l0.1-0.7l0.2-9.1l0.1,4.9l0.1-3.9
		l0.1,4.5l0.2-3.2l0.1,6.3l0.1-2.1l0.1-3.1l0.1,6.4l0.2-10.5l0.1,5.9l0.1-3.9l0.1,4.3l0.1-4.1l0.1,2.3l0.1-3.3l0.1,5.4l0.2-2.5
		l0.3,6.9l0.1-9.7l0.2,7.5l0.1-5.9l0.1,4.7l0.1-2.1l0.1,3.9l0.1-9l0.1,1.2l0.1-0.1l0.1,5.2l0.1-4l0.2,8.5l0.1-0.1l0.1-6.4l0.1,1.5
		l0.1-0.7l0.1,5.8l0.2-8l0.1,3.1l0.1-3.3l0.1,5.6l0.1-150.6l0.1,8.6l0.1,14.5l0.1-1l0.2-22.8l0.2,22l0.1-23.4l0.1,7.6l0.1,8.5
		l0.1-1.5l0.2-33.1l0.1,11.8l0.1-27.9l0.1,22.6l0.1-0.2l0.1-3.5l0.1-15.4l0.1,5.1l0.1,15.3l0.1-11.7l0.2,18l0.1-12.2l0.1,9.8
		l0.1-30.1l0.1,26L209,48l0.1,18.8l0.1-4.4l0.1,4l0.1,18.6l0.1-11.1l0.1,11.4l0.1-23.6l0.1,7.9l0.1-14.9l0.2,27.7l0.2-34.4l0.1,9.8
		l0.2,28.3l0.1-40.9l0.2,31.6l0.1-13.6l0.1,21.5l0.1-38.7l0.1,35.7l0.1-21.4l0.1,18.2l0.2-24l0.2,7.3l0.1-12.6l0.1,36.8l0.1-11.4
		l0.1,3.7l0.1-33.4L212,72l0.1-15.5l0.1,2.2l0.1,21.4l0.1-1.2l0.1-1.9l0.1-5.9l0.2,17.7l0.2-42.8l0.2,28.3l0.1,15l0.2-37l0.1,30.7
		l0.1-0.6l0.1-28.5l0.1,7.9l0.1,25.8l0.1-26.1l0.1,14.2l0.1-2.7l0.2-20l0.1,18.6l0.1-24.7l0.1,24.4l0.1-16.5l0.1,13l0.2-19.2
		l0.1,37.1l0.1-38.4l0.1,5l0.1,1.5l0.1,26.7l0.2-29.3l0.1,25.4l0.1-30l0.1,164.2l0.1-1.8l0.2-7.7l0.1-1.3l0.1,11.4l0.1-17.1
		l0.1,16.6l0.1-1.8l0.1,2.3l0.2-16.6l0.1,32.8l0.1-2l0.1,10.2l0.1-6.7l0.1,1l0.1-0.5l0.1,5.4l0.1-7.7l0.1,2.3l0.1-3.3l0.3,12.6
		l0.1-8.1l0.2,8.3l0.1-9.3l0.2,10.3l0.1-6.4l0.1,4.3l0.2-6.5l0.1-0.7l0.2,5.9l0.1-3.4l0.1,7.1l0.1-4.7l0.1,0l0.1,5.2l0.2-8.7
		l0.2,8.9l0.1-1.9l0.1-6.9l0.1,8.4l0.1-6.7l0.1,7l0.1-5.9l0.1,3l0.1-4.9l0.1,6.3l0.1-4.6l0.1,4.6l0.2-7.2l0.1,8.4l0.1-8.4l0.2,8.4
		l0.1-3.4l0.1,3l0.2-6.8l0.1,7.4l0.2-9.4l0.1,4.8l0.1-4.9l0.2,6.3l0.1-5.1l0.2,4.3l0.1-0.2l0.1-4l0.1,0.2l0.2,5.6l0.2-2.7l0.1,3.8
		l0.1-6.3l0.2,7.8l0.1-1.5l0.1-8l0.2,8.8l0.1-3.3l0.2,4.8l0.2-5.8l0.1,2.2l0.1-1l0.1-5.9l0.2,8l0.1,0.2l0.2-5.8l0.1,6.3l0.1-5.7
		l0.1,7.8l0.2-8.5l0.1,4.9l0.1-2.5l0.1,4.1l0.1-6.1l0.1,7.8l0.1-9l0.1,7.4l0.1-7.6l0.1,5.9l0.1-4.2l0.1,4.6l0.1-6.6l0.1,8.8l0.1-0.6
		l0.1-3.6l0.1,4.6l0.1-1.3l0.2-8.8l0.1,6.8l0.1-6.2l0.2,7.4l0.2-8.1l0.1,8.2l0.1-4.6l0.1,7l0.1-0.7l0.1,1.2l0.1-11.2l0.1,2.2
		l0.1,0.2l0.2,7.2l0.2-2.5l0.1-4.3l0.2,8.3l0.1-1l0.2-9.4l0.1,3.3l0.1-1.9l0.2,7.8l0.1-8.7l0.1,1l0.1,6.9l0.1-3.9l0.1,0.3l0.2-5.2
		l0.2,10.1l0.1-0.1l0.1-1.4l0.1,1.8l0.1-150.2l0.1,0.8l0.1,22.6l0.1-26.9l0.1,26.2l0.1-5.6l0.1,2l0.1-4.7l0.1,4.5l0.1-9l0.1,3.1
		l0.1-22.3l0.1,11l0.1-3.8l0.1,3.9l0.1-25.1l0.1,25l0.1-34.3l0.1,14.2l0.1-0.7l0.1-1.5l0.1,17.1l0.1-1.2l0.1-5.3l0.1-17.6l0.2,21.4
		l0.1-38.4l0.1,42.6l0.1-35.1l0.1,0.7l0.2,29.3l0.1-0.4l0.1-24.8l0.1,2.5l0.2-14.4l0.2,35.3l0.1-4l0.1-27l0.2,34.7l0.1-28.5
		l0.1,13.6l0.1-23.4l0.2,37.3l0.1-38.7l0.1,31.1l0.1-3.6l0.1-2.9l0.1,15.9l0.1-20.1l0.1,16.9l0.2-29.4l0.1-1.4l0.1,29.3l0.1-9.6
		l0.1-0.3l0.1,10l0.1-29.2l0.1,4.1l0.1,23.4l0.1-8l0.1,11.8l0.1-23.6l0.1,22.9l0.1-39.1l0.1,9.3l0.1,17.6l0.2-23.6l0.2,33.3
		l0.2-30.2l0.1,9l0.1-0.3l0.2-11l0.1-1.2l0.1,37.3l0.2-29.2l0.1-0.7l0.1,6.8l0.1,19.9l0.1-28.5l0.1,3.5l0.1,28.7l0.1-17.1l0.1,13.1
		l0.1-7.4l0.1,14.4l0.2-24l0.2-12.9l0.2,32.4l0.1-33l0.1,31.4l0.1-37l0.2,157l0.1-8.7l0.1,16l0.1-3.7l0.1-6.1l0.1,5.2l0.1-10.5
		l0.1,15.6l0.2-9.5l0.1-1.1l0.1,33l0.1-1.4l0.1-6.1l0.1,8.2l0.1-8l0.1,3.3l0.1-2.5l0.1,0.6l0.1,6.4l0.2-8.4l0.2,10.6l0.1,3.6
		l0.2-9.4l0.1,7.3l0.2-6.5l0.2,9.2l0.1-7.4l0.1,4.8l0.1-4.3l0.1,3.9l0.1-0.5l0.1-3.3l0.1,4.5l0.1-0.7l0.2,0.9l0.2-5l0.1,5.1l0.2-3.3
		l0.1,4.5l0.1-0.1l0.1-7.4l0.1,2.4l0.1,1.7l0.1-0.8l0.1,7l0.1-6.7l0.1,1.2l0.1-0.4l0.2,5.3l0.1-1.3l0.1-8.6l0.1,6.1l0.1-0.7l0.2,4.8
		l0.1-7.7l0.1,2l0.1,0.3l0.1,3l0.1-5.7l0.1,6.5l0.1-0.2l0.1-3.1l0.2,2.4l0.2-4.6l0.1-2l0.2,8.5l0.1-2.3l0.1-8l0.2,11l0.1-5.8
		l0.1,5.4l0.2-10.5l0.2,5.8l0.1-5.5l0.2,9.9l0.1-4.5l0.1,2.5l0.1-2.6l0.1,0.2l0.1-1.4l0.2,4.7l0.2-7.5l0.2,5.6l0.1-6.7l0.1,0.3
		l0.2,9.9l0.2-8.9l0.1-1.6l0.1,0.9l0.2,9.7l0.2-6.8l0.1,0.8l0.1-2.1l0.1,5.2l0.1-3.2l0.1,5.4l0.3-10.2l0.1,8.1l0.1-2.5l0.1,1.9
		l0.1-1.3l0.1-4.7l0.1,2l0.1-2.2l0.1,7.7l0.1-7.6l0.1,9.2l0.1-9.4l0.2,6.5l0.2-7.1l0.1,10.1l0.2-9.1l0.2,7.4l0.2-8.1l0.2,4.6
		l0.1-5.5l0.2,10.5l0.2-4.3l0.1,3.2l0.1-8.9l0.1,2l0.1,5.6l0.2-7.6l0.1,0.7l0.1,4.1l0.1-2.9l0.2,7.5l0.1-0.1l0.1-4.6l0.2,5.7
		l0.1-7.9l0.1,7.8l0.1-144.5l0.1,2.2l0.1-16.5l0.2,34.8l0.2-35.9l0.2,26l0.1-22.5l0.1,27.5l0.1-44l0.1,9.2l0.1,16l0.3-39.8l0.1,29.8
		l0.1-23.8l0.1,33.1l0.1-21.2l0.1,20.5l0.1-43.8l0.1,7.5l0.1,4.9l0.1-7.5l0.1,7.9l0.1-14.4l0.1,11.5l0.1-9.5l0.2,36.3l0.1-18.5
		l0.1,18l0.1-22l0.1,5l0.1-6.3l0.1,27.7l0.1-8.3l0.2-34.1l0.1,25.6l0.1-1.8l0.1-13.1l0.1,5l0.1,13.8l0.1-5.3l0.1,8.7l0.1-33.8
		l0.1,37.7l0.1-10.9l0.1,15.6l0.1-8.9l0.1-25.2l0.2,31.6l0.1-17.8l0.1,21l0.1-3.4l0.1-32.7l0.1,1.6l0.1-6.5l0.1,2.7l0.1,7.7
		l0.1,28.5l0.2-35.8l0.1,2.1l0.2,25.6l0.1-27.7l0.1,5.3l0.1-11.5l0.1,37.3l0.1-3.2l0.1,0.6l0.1-26.2l0.2,32.8l0.1-42.1l0.1,44
		l0.1-36.6l0.1,21.2l0.1-21.5l0.1,13l0.2-16.8l0.1,41.5l0.1-3l0.1-7.9l0.2-28.8l0.1,19.4l0.1-6.6l0.1,18.9l0.2-35.2l0.1,31.6
		l0.1-10.2l0.1,18.5l0.1-21.4l0.1,2.5L263,83l0.1-13.5l0.1,4.9l0.1-8.5l0.2,145.5l0.1-13.6l0.1,0.9l0.2,11.9l0.2-16.3l0.1,12.9
		l0.1-1.5l0.1,2.5l0.1-7.1l0.1,32.9l0.1-2.5l0.1-4.3l0.2,3.9l0.1-0.4l0.1-1.8l0.1,7l0.1-0.9l0.1-10.2l0.1,10.2l0.1-8l0.1,3.2
		l0.1,7.5l0.1-1.2l0.2-6.6l0.1,2.3l0.1,7.6l0.1-6.7l0.2,7.2l0.1-0.6l0.1-6.8l0.2,5.6l0.1-0.9l0.1-5.3l0.1,1.2l0.2,7.2l0.1-1.5
		l0.1-7.6l0.2,4.6l0.1-0.7l0.1,2.6l0.1-5l0.2,7.8l0.1-0.1l0.2-9.1l0.1,7.1l0.1-6.3l0.1,1.2l0.2,8.3l0.1-0.7l0.1-7.1l0.1,6l0.1-1.9
		l0.2-4l0.1,6.9l0.2-4.2l0.1-0.6l0.1-3.1l0.1,7.3l0.1-7.2l0.1,1.3l0.1,1.5l0.1-1.6l0.2,6.3l0.1-6l0.1,1.6l0.1-1.3l0.1,3.4l0.1-6.4
		l0.2,9.3l0.2-8l0.1,3.4l0.1-4.5l0.1,7.1l0.1-1.6l0.1-5.5l0.1,0l0.1,2.4l0.1-2l0.1,8.7l0.1-8.8l0.2,7.8l0.1-0.7l0.1-2l0.1,1.9
		l0.1-0.8l0.1,2.1l0.2-4.9l0.1,1.5l0.1,1.1l0.2-6.2l0.1,1.5l0.1,4.8l0.1-4.7l0.2,6.9l0.2-7.7l0.2,8.4l0.1-0.8l0.1-8.2l0.1,2.5
		l0.1,4.3l0.1-3.4l0.1,0.3l0.1-1.4l0.1,4.8l0.1-7.1l0.1,6.3l0.1-4.3l0.1,7.7l0.1-4l0.1,0.2l0.1-2.2l0.1,5.3l0.1-8.1l0.1,6.5l0.2-6.6
		l0.1,2.7l0.1-2l0.1,0.9l0.1,3.5l0.1-5.1l0.1,5.8l0.2-5.1l0.2,5l0.2-7.1l0.1,4.3l0.1-1.3l0.1-2.7l0.1,9.1l0.1-1.5l0.2-6.7l0.1-0.4
		l0.2,8.7l0.1-3.9l0.1,2.3l0.1-0.7l0.1-5.4l0.1,7.9l0.1-8.5l0.1,4.5l0.1-1.9l0.1,5.7l0.1-2.8l0.1,2.8l0.1-9.9l0.1,1.7l0.2,6.6
		l0.1-155.4l0.1,22.6l0.1,7.1l0.2-30.1l0.1,36.1l0.1-9l0.1-26.9l0.2,31.7l0.3-63.7l0.2,40.4l0.1-40.3l0.2,30.9l0.1-11.9l0.2,24.4
		l0.2-42.4l0.1,11.9l0.1-19.2l0.2,32.3l0.1,5.4l0.1-0.2l0.1-5.4l0.2-27.9l0.1-3.1l0.1,33.4l0.1-30.3l0.2,34.7l0.1-34.2l0.1,10.6
		l0.1,21.3l0.1-12l0.1,6.4l0.1-20.3l0.1,12.8l0.1-24.2l0.1,42.2l0.1-13.8l0.2-6.7l0.1,8.5l0.2-25.3l0.1-2.9l0.1,6l0.1-2.1l0.1,13.6
		l0.1-12.4l0.1,23.6l0.1-4.3l0.1,3.7l0.1-6.8l0.1,8.2l0.1-30.6l0.2,39l0.1-19.4l0.1,21.2l0.1-2.4l0.2-16l0.1,1.4l0.1-16.6l0.1,2.7
		l0.2,18.3l0.1,0.8l0.1-20.7l0.2,34.4l0.1-35.4l0.2,30l0.1-4.7l0.1-31.5l0.1,3.3l0.2,17.1l0.1-1.7l0.1-20.6l0.1,0.4l0.1,33.9
		l0.1-26.9l0.1,27.7l0.1-0.7l0.1-20.9l0.1,12.3l0.1-23.8l0.1,38.1l0.2-37.5l0.1,0.7l0.1,33.8l0.1-9.5l0.1-11.4l0.1,20.8l0.1-36.5
		l0.2,162.8l0.2,1.5l0.1-14.9l0.1,12.9l0.1-4l0.1-0.6l0.1-2.7l0.1,9.5l0.1-2.8l0.1-12.7l0.2,31.4l0.1,9.6l0.2-7.7l0.1,4.5l0.1-8
		l0.2,10.6l0.2-11.2l0.1,11.1l0.1-0.3l0.1,2.6l0.1-1l0.1,2.5l0.2-9l0.2,10.1l0.1-6.2l0.1,3.2l0.1-6l0.2,8.7l0.1-6.6l0.1,5.7l0.1-5.7
		l0.1,6.4l0.1-1.3l0.1-1.6l0.1-5.4l0.1,0.1l0.1,8.2l0.1-1.7l0.1,2.6l0.2-8.5l0.1-0.3l0.1,6.2l0.1-1.2l0.1-4.6l0.1,1l0.1,9.1l0.2-4.7
		l0.2,4.4l0.1-6.8l0.2,6.7l0.1-2l0.2-7l0.2,4.9l0.1-6.3l0.1,8.8l0.1-0.2l0.1-0.9l0.1,1.3l0.1-2.3l0.1-6l0.2,5.6l0.1-5.9l0.1,10
		l0.1-1.8l0.2-4.6l0.1,6.5l0.2-7.4l0.1,0.7l0.2,6.2l0.1-3.8l0.1,3.4l0.1-9.3l0.2,7.1l0.1-5.1l0.2,5.2l0.2-6.3l0.1,2.2l0.1,7.1
		l0.2-8.1l0.1,7.1l0.1-1l0.1-7.4l0.1,9.7l0.1-8.3l0.2,8.4l0.1-9.2l0.1,5.2l0.3-6.7l0.2,6.3l0.1-6.3l0.2,9.3l0.1-8.1l0.1,5.4l0.1-3.4
		l0.2,5.2l0.1-4.6l0.1,6.1l0.2-5.5l0.1,1.2l0.2-4.4l0.1,0.6l0.1,8.3l0.1-1.8l0.2-8.4l0.1,1.1l0.1-0.1l0.1,6.1l0.1-1.4l0.1-0.5l0.2,5
		l0.1-10.3l0.2,8l0.1,1.8l0.1-9.5l0.1,3.9l0.1-1l0.1-2.8l0.1,6.4l0.1-3.1l0.1,6.6l0.1-1.7l0.1-7.3l0.1,0.7l0.1,4.7l0.1-0.3l0.1-1.8
		l0.1,6l0.1-2.7l0.1,0.4l0.1-0.5l0.1-6.3l0.2,6.9l0.2-7.6l0.2,8.9l0.2-7.6l0.2-145l0.1-5.5l0.2,17.9l0.1,17.4l0.1-36.3l0.2,32
		l0.1-19.8l0.1,14.7l0.2-39.2l0.1,6.2l0.1-17.1l0.1,25l0.1-8.1l0.2-14.7l0.1,17.1l0.1-11l0.1,21.7l0.1-40.2l0.1,24.7l0.1-15.6
		l0.1,31.9l0.1-8.3l0.2-30.2l0.1,15.8l0.1-18.1l0.2,36.4l0.1-31.8l0.1,25.1l0.2-30l0.1-1.5l0.1,19.1l0.2-11.7l0.1,29.2l0.1-21.2
		l0.1,25.6l0.1-20.9l0.1,15.3l0.1-1.3l0.2-19.9l0.1,24.8l0.1-19.4l0.1,14.5l0.2-20.6l0.1,3.6l0.1-8.2l0.1,18.2l0.1-19.4l0.1,15
		l0.1-2.3l0.1-7.4l0.1,28.5l0.1-28.7l0.1,1.6l0.2,24.1l0.1-0.2l0.1-37.6l0.1,10.6l0.1,25.4l0.2-32l0.1,35.8l0.1-8.7l0.1-29.5
		l0.1,39.8l0.1-8.7l0.1-34.2l0.3,42.1l0.1-9.8l0.1-28.8l0.1,21l0.2-22.7l0.2,32.9l0.2-32.4l0.1,4.7l0.1,33.4l0.1-28.3l0.1,5.5
		l0.1-15.2l0.1,35.5l0.2-34.2l0.2,36.6l0.1-9.4l0.1,128.7l0.1-11.2l0.1,12l0.1-3.2l0.1-3.8l0.1,9.2l0.2-12.7l0.2,13.4l0.2,25
		l0.1-8.1l0.1,6.5l0.1-8.5l0.1,2.7l0.1-0.4l0.1,6.8l0.2-7l0.1,8.4l0.1-4.9l0.1,0.8l0.1,7.2l0.1-6.4l0.2,5.9l0.2-4.8l0.1,3.7l0.2-3.3
		l0.1,1l0.1,7.5l0.1-9.2l0.2,6.8l0.1,0.2l0.2-7.3l0.1,5.8l0.1-4.2l0.1,7.4l0.2-9.9l0.1,2.5l0.1,6.3l0.1-3.3l0.1,3l0.2-6.2l0.1,0.1
		l0.1,6.1l0.1-7.9l0.2,6.1l0.2-2.5l0.2,1.3l0.1-0.2l0.1,3.7l0.1-7.2l0.2,7.7l0.2-9.1l0.1-0.2l0.2,9.2l0.1-4.3l0.1,4.6l0.1-9.3
		l0.1,8.5l0.1-0.8l0.2-6.1l0.2,7l0.1-1.1l0.1-2.7l0.1,4.1l0.1-5.2l0.1,0.5l0.2-4.2l0.1,0.3l0.1-0.4l0.2,9.2l0.1-1.9l0.2-7.6l0.1,1.3
		l0.1,8.5l0.1-9.5l0.2,10.6l0.1-4.9l0.1,4.5l0.1-5.6l0.1,2.3l0.2-6l0.2,4.9l0.2-5.3l0.1,8.9l0.1-4.7l0.2,5.5l0.2-9.2l0.1,7.9
		l0.2-7.8l0.1-0.7l0.1,7.3l0.1-7.2l0.1,6.6l0.1-2.6l0.2,5.7l0.1-7.6l0.2,6l0.1-5.4l0.1,7.6l0.1-9.1l0.1,8.2l0.1-1.3l0.2-3.3l0.2,1.9
		l0.1-7.3l0.2,10.6l0.2-9.6l0.2,8.8l0.1-7.5l0.1,1.7l0.1,0.4l0.1,5.8l0.1-1l0.1-5.4l0.1,4.7l0.2-3.8l0.1,3l0.1-7.5l0.1,1.2l0.1,1.4
		l0.1,7.3l0.1-0.3l0.1-4.4l0.1,3.8l0.1-9.2l0.1,9.3l0.1-3.7l0.1,1.4l0.1-3.1l0.1,5.8l0.1-3.4l0.1,1.8l0.1-6.9l0.1,9.6l0.1-9.9
		l0.1,0.9l0.1,6.1l0.1-149l0.1,29.1l0.1-35.9l0.2,25.5l0.1-2.3l0.1,11.4l0.1-35.5l0.1,36.5l0.1-23.7l0.1,8.2l0.1-19.4l0.1,1.3
		l0.1-12.5l0.1,2.2l0.1-9.7l0.1,27.8l0.1-5.5l0.1-0.9l0.1-23l0.1,24.1l0.1-16.9l0.1,15.7l0.2-37.8l0.2,31.8l0.1,8.3l0.3-40.2
		l0.1,24.6l0.1-13.4l0.2,18.1l0.3-30.4l0.2,40.6l0.2-22.7l0.1,17l0.2-37.1l0.1,1.8l0.1,33.8l0.1-30.6l0.1,7.7l0.1,11.3l0.1-3.9
		l0.1-14l0.2,21.5l0.2-9.3l0.1,17.6l0.1-32.2l0.1,10.2l0.1,1.8l0.1,24.1l0.1-22.8l0.2,23.7l0.1-20.3l0.1,5.6l0.1-8.4l0.1,22.6
		l0.1-15.5l0.1,11.6l0.1-36.7l0.1,19.3l0.1-5.7l0.2,26.8l0.1-39.8l0.1,31.2l0.1-6.2l0.1-10.2l0.1,28.3l0.1-35.5l0.2,33.8l0.1-4.6
		l0.1-33.1l0.1,9.4l0.2,28l0.1-28.2l0.1,5.3l0.2,16.1l0.2-34.1l0.1,35.9l0.1-19l0.2,15.5l0.1-25.8l0.1,15.4L335,65l0.2,143.3
		l0.1,1.7l0.1-11.4l0.1,9.4l0.1-8.9l0.1,5.4l0.1-0.5l0.1-1l0.1,1.8l0.1,4.8l0.1-3.8l0.1,21.6l0.1,0l0.1,4.8l0.1-2.2l0.1,3.4l0.1-0.2
		l0.1,2.4l0.1-11.1l0.1,8.7l0.1-0.2l0.1-0.7l0.1,1.9l0.1-0.9l0.1,6.5l0.1-0.7l0.1-5.9l0.1,3.5l0.1-4.3l0.2,5.2l0.1-4.6l0.1,6.2
		l0.1-4.9l0.1,1.1l0.1,3l0.2-8.3l0.2,8.8l0.1-0.4l0.1-2.5l0.1,1.3l0.1-6.2l0.2,6.3l0.1-0.1l0.1-5.1l0.2,5.7l0.1-5.5l0.1,8.8l0.1-9.4
		l0.2,5.3l0.2-3l0.1,7.4l0.1-9.7l0.2,8.3l0.2-4l0.1,1l0.1-3.1l0.1,2.9l0.1-6.1l0.1,4.1l0.1-2.4l0.1,7.9l0.1-3.3l0.1,0.7l0.2-5.9
		l0.2,8.9l0.1-8.8l0.1,7.2l0.1-5.2l0.1,1.4l0.1-3.3l0.1,8l0.1-0.1l0.2-9.2l0.2,7l0.2-6.8l0.1,1.1l0.1-1.8l0.1,11l0.1-1l0.2-8
		l0.2,6.6l0.1-6.2l0.1,8.3l0.2-5.1l0.1-0.6l0.1-1.9l0.1,4.2l0.1-2.9l0.1,0.3l0.1,0.4l0.1-1l0.2,6.3l0.1-0.4l0.1-1.2l0.2-7l0.1,1.6
		l0.1-1l0.1,4.9l0.1-0.6l0.1,0.1l0.2,3.8l0.2-10.5l0.2,10.7l0.1-8.3l0.1,6l0.1-6.5l0.1,1.4l0.1-2.7l0.1,6.1l0.1-2.9l0.1,2.2l0.1-1.9
		l0.2,5l0.2-7l0.2,1.7l0.1,6.2l0.1-6.9l0.1,2.5l0.2-4.7l0.1,9.8l0.1-8.6l0.1,8.8l0.2-5.7l0.1,4.5l0.1-6.8l0.1,8.3l0.1-1.8l0.2-8.5
		l0.3,10.3l0.1-1.3l0.2-6.3l0.1,2.9l0.1-3.5l0.2,7.4l0.1-1.3l0.1-7.3l0.1,1.3l0.1-1.9l0.1,8.8l0.1-9.9L350,112l0.1,7.6l0.1-37.9
		l0.1,27.5l0.1-14.9l0.1,18.9l0.2-27.9l0.1,22.4l0.1-13.4l0.1,18.5l0.2-31.9l0.1,5.5l0.1-4.5l0.1,5.9l0.1-31.7l0.2,28.8l0.1-8.9
		l0.1,5.6l0.2-28.5l0.1,23.4l0.1-24.4l0.2,31.6l0.1-24l0.1,8l0.2-16.9l0.1,20.2l0.1-20.7l0.1,6.8l0.1,11.8l0.1-5.1l0.1,11.4
		l0.1-29.7l0.2,42.4l0.1-12.8l0.1-13.4l0.2,27.1l0.1-19.2l0.1,5.3l0.1-4.8l0.2,12.1l0.1-23.7l0.1,7.9l0.1,14.2l0.2-17.7l0.1,23.5
		l0.1-3.4l0.1,3.4l0.1-33.4l0.1,2.7l0.1,0l0.2,3.7l0.1,8.7l0.1-7.5l0.1,27.3l0.2-33.4l0.2,22.6l0.2-18.8l0.1-8.1l0.1,23.9l0.1-19.3
		l0.1,9.4l0.1-14.5l0.2,16.5l0.1-2.7l0.2-17.5l0.2,41.2l0.1-40l0.1,18.4l0.1-3.8l0.1,6l0.1,17.6l0.1-30.5l0.1,0.9l0.2,19.9l0.1-24
		l0.1,34.6l0.1-36.6L358,78l0.2-30.7l0.2,23.6l0.1-12.4l0.2,18.6l0.1-32.5l0.2,29l0.2,137.5l0.2-13.2l0.1,4.1l0.1-5.5l0.1,14.6
		l0.1-6l0.1,2.3l0.1-3.8l0.1,6.8l0.1-15.9l0.1,38.8l0.1-8.8l0.1,6.3l0.1-7.1l0.1,5.5l0.1-4.8l0.1,11.7l0.2-11.4l0.2,10.2l0.2-4.7
		l0.2,9.2l0.1,1.6l0.1-9.4l0.1,8.4l0.2-9.6l0.1,8.2l0.1-5.3l0.1,6.8l0.1-5l0.1,5l0.1-6.5l0.1,4.9l0.2-3.4l0.1,4.9l0.1-6.5l0.1,5
		l0.1-4.1l0.1,5.7l0.1-6l0.1,6.6l0.1-3.4l0.1,2l0.1-5.7l0.1,5.5l0.2-7.1l0.1,7.9l0.1-4.7l0.1,6l0.2-7.1l0.1,0.7l0.1,0.4l0.1,3.9
		l0.1-1.1l0.1,3.1l0.1-7l0.1,2.4l0.1-2.3l0.1,5.2l0.1-0.9l0.1-0.1l0.1,3.5l0.2-9.8l0.2,9.8l0.1-9.6l0.1,9.8l0.1-10.5l0.2,6.8
		l0.1-6.6l0.1,10.2l0.1-6.3l0.1,0.4l0.1,3.7l0.2-5.7l0.1,8.2l0.1-10.6l0.1,8.7l0.1-0.8l0.1-0.3l0.1,2.5l0.1-1l0.1-9.8l0.2,9.8
		l0.1,0.1l0.2-8.4l0.2,9.4l0.1-2.3l0.1,1.9l0.1-0.5l0.1-3.7l0.1,2.3l0.1-3.2l0.1,3l0.1-7.8l0.1,0.4l0.2,6.2l0.2-0.6l0.1-3.6l0.1,3.1
		l0.2-5.6l0.1,6.9l0.1-2.5l0.1,5.3l0.1-1.2l0.1-2.4l0.1,2.3l0.1-7.6l0.1,8.1l0.2-6l0.1,3.5l0.1-5.5l0.2,9.1l0.2-8.5l0.1,2.3l0.1-2.5
		l0.2,9.2l0.2-8.8l0.1,5.6l0.1-2.3l0.5,5l0.1-1.6l0.1,2.1l0.1-7l0.1,3.5l0.1-7.4l0.1,8.8l0.1-1.7l0.1-0.1l0.1,3.9l0.1-9.4l0.1,9.1
		l0.1-10.3l0.1,0.5l0.1,4l0.1-0.1l0.1-1.2l0.1,3l0.1-2.9l0.1,6.8l0.1-0.1l0.2-9.4L374,88.5l0.1,23.5l0.1-7.1l0.1,3l0.1-3.2l0.1,9.6
		l0.2-25l0.1,13.8l0.1-1.9l0.2-36.5l0.1,9.5l0.1,10.2l0.1-27.5l0.2,29.1l0.1-2.1l0.1-23.4l0.1,33.3l0.1-41.6l0.1,37.8l0.1-29.2
		l0.1,12.3l0.1-4.4l0.1-17.5l0.2,37.4l0.1,2.1l0.2-30.5l0.2,25.5l0.2-28l0.2,28.6l0.1-38.9l0.1,30.7l0.2-27.2l0.1,4.1l0.1,27.3
		l0.1-29.5l0.1,2.4l0.3,29l0.2-20.9l0.1,10.2l0.1-5.2l0.1,5.1l0.2-24.3l0.1,33.3l0.1-9.9l0.1,10.9l0.2-26.6l0.1-9.2l0.1,29.5
		l0.1-30.3l0.1,40.1l0.1-24.4l0.1,24.7l0.1-37.8l0.1,16.4L380,52l0.2,35.8l0.1-38l0.2,33.9l0.2-21.2l0.1,25.6l0.1-11l0.1,10.9
		l0.2-42.9l0.2,37.1l0.1-33.6l0.2,34l0.1-34.7l0.1,7.4l0.2,2.2l0.1,23L382,80l0.1-21.6l0.1,21.2l0.2-25.5l0.1,14.9l0.2-17.4
		l0.2,27.6l0.1,127.4l0.1-0.7l0.1,3.6l0.1-2.8l0.1,1.2l0.2-12.6l0.1,14.5l0.1-11.1l0.1,0.6l0.1,10.7l0.1-14.9l0.2,36.5l0.1-5
		l0.1,6.3l0.1-5.5l0.1,8.3l0.1-10.1l0.1,5l0.1-2.4l0.1,5.3l0.2-7l0.1,9.2l0.1-1.7l0.1,1.9l0.1-5.1l0.1,4.6l0.1-4l0.1,0.5l0.2,6.6
		l0.1-2l0.1-4.9l0.1,6.9l0.2-5.5l0.1,5.1l0.1-3.3l0.2,6.1l0.1-7.8l0.1,7.9l0.1-2l0.1-6.6l0.1,5.8l0.1-7.1l0.1,0.2l0.2,10.6l0.1-7.5
		l0.2,6.8l0.1-6.9l0.1,7.6l0.1-9.5l0.2,8.4l0.1-0.5l0.1-8.8l0.1,3l0.1-1.2l0.2,5.3l0.1,1.2l0.2-3.6l0.1-0.9l0.1,4.2l0.1-7.8l0.1,8.8
		l0,0"/>
	<use xlink:href="#SVGID_1_"  style="overflow:visible;fill:none;stroke:#FFFFFF;stroke-miterlimit:10;"/>
</g>
<path class="st2" d="M54.6,252h334.2"/>
<g>
	<path id="m1db8ba08cb" class="st3" d="M54,252v3.5"/>
	<path id="mbf5451650f" class="st4" d="M77.9,252v2"/>
	<path id="mbf5451650f_00000054237821662990795290000010895355797087284398_" class="st4" d="M101.8,252v2"/>
	<path id="mbf5451650f_00000064352865361528595280000000046096587139986587_" class="st4" d="M125.8,252v2"/>
	<path id="mbf5451650f_00000062151146415308606440000016162680296225204390_" class="st4" d="M149.7,252v2"/>
	<path id="mbf5451650f_00000010295283973670323860000016700474964968715906_" class="st4" d="M173.6,252v2"/>
	<path id="mbf5451650f_00000132803254151443118510000002572608993401770122_" class="st4" d="M197.5,252v2"/>
	<path id="mbf5451650f_00000099642375931392379330000008707831325029585024_" class="st4" d="M221.4,252v2"/>
	<path id="mbf5451650f_00000042003540699267148530000003864586602810381200_" class="st4" d="M245.4,252v2"/>
	<path id="mbf5451650f_00000128444639741795921750000008346584879056027574_" class="st4" d="M269.3,252v2"/>
	<path id="mbf5451650f_00000068657632126580816350000001337438143272448156_" class="st4" d="M293.2,252v2"/>
	<path id="mbf5451650f_00000085230125536783664830000007603081009194936462_" class="st4" d="M317.1,252v2"/>
	<path id="mbf5451650f_00000006692195390082432970000004640843463617589435_" class="st4" d="M341,252v2"/>
	<path id="mbf5451650f_00000168085883044024489270000007264842399323309753_" class="st4" d="M365,252v2"/>
	<path id="m790d5a7fa4" class="st3" d="M54,236.5h-3.5"/>
	<path id="m790d5a7fa4_00000023996447597365804430000013155154632290116789_" class="st3" d="M54,208.2h-3.5"/>
	<path id="m790d5a7fa4_00000163035761443810738920000016862131034981623432_" class="st3" d="M54,180h-3.5"/>
	<path id="m790d5a7fa4_00000041253614581477615030000007434578805602049431_" class="st3" d="M54,151.7h-3.5"/>
	<path id="m790d5a7fa4_00000034788454368088687390000015517167672475696051_" class="st3" d="M54,123.5h-3.5"/>
	<path id="m790d5a7fa4_00000080916461783038617840000001601347223580387747_" class="st3" d="M54,95.2h-3.5"/>
	<path id="m790d5a7fa4_00000105401281839618999470000015257800240633396395_" class="st3" d="M54,67h-3.5"/>
	<path id="m790d5a7fa4_00000172405994379523110450000011055775329172751240_" class="st3" d="M54,38.7h-3.5"/>
	<path class="st2" d="M54,252V34.6"/>
	<path class="st2" d="M388.8,252V34.6"/>
	<path class="st2" d="M54,34.6h334.8"/>
	<text transform="matrix(1 0 0 1 35.7973 42.6522)" class="st5 st6 st7">90</text>
	<text transform="matrix(1 0 0 1 35.7795 70.2698)" class="st5 st6 st7">80</text>
	<text transform="matrix(1 0 0 1 35.7674 98.0756)" class="st5 st6 st7">70</text>
	<text transform="matrix(1 0 0 1 35.7375 126.9327)" class="st5 st6 st7">60</text>
	<text transform="matrix(1 0 0 1 35.8576 155.7328)" class="st5 st6 st7">50</text>
	<text transform="matrix(1 0 0 1 35.9475 183.8311)" class="st5 st6 st7">40</text>
	<text transform="matrix(1 0 0 1 35.8577 211.8884)" class="st5 st6 st7">30</text>
	<text transform="matrix(1 0 0 1 35.7912 240.4606)" class="st5 st6 st7">20</text>
	<text transform="matrix(1 0 0 1 47.6357 264.9983)" class="st5 st6 st7">01</text>
	<text transform="matrix(1 0 0 1 71.2608 264.9979)" class="st5 st6 st7">02</text>
	<text transform="matrix(1 0 0 1 95.1996 264.9979)" class="st5 st6 st7">03</text>
	<text transform="matrix(1 0 0 1 119.1699 264.9976)" class="st5 st6 st7">04</text>
	<text transform="matrix(1 0 0 1 142.8199 264.9979)" class="st5 st6 st7">05</text>
	<text transform="matrix(1 0 0 1 166.5013 264.9979)" class="st5 st6 st7">06</text>
	<text transform="matrix(1 0 0 1 192.7535 264.9984)" class="st5 st6 st7">07</text>
	<text transform="matrix(1 0 0 1 214.9566 264.9978)" class="st5 st6 st7">08</text>
	<text transform="matrix(1 0 0 1 239.8543 264.9981)" class="st5 st6 st7">09</text>
	<text transform="matrix(1 0 0 1 262.2366 264.9985)" class="st5 st6 st7">10</text>
	<text transform="matrix(1 0 0 1 286.7103 264.9984)" class="st5 st6 st7">11</text>
	<text transform="matrix(1 0 0 1 310.7356 264.9982)" class="st5 st6 st7">12</text>
	<text transform="matrix(1 0 0 1 333.7754 265.1425)" class="st5 st6 st7">13</text>
	<text transform="matrix(1 0 0 1 358.5268 264.9979)" class="st5 st6 st7">14</text>
	<text transform="matrix(1 0 0 1 186.1037 281.6545)" class="st5 st8 st7">April 2014</text>
	<text transform="matrix(1 0 0 1 189.1037 301.6545)" class="st5 st8 st7">TIMESTAMP</text>
</g>
</svg>
