<?xml version="1.0" encoding="utf-8"?>
<!-- Generator: Adobe Illustrator 26.4.1, SVG Export Plug-In . SVG Version: 6.00 Build 0)  -->
<svg version="1.1" id="Layer_1" xmlns="http://www.w3.org/2000/svg" xmlns:xlink="http://www.w3.org/1999/xlink" x="0px" y="0px"
	 viewBox="0 0 432 288" style="enable-background:new 0 0 432 288;" xml:space="preserve">
<style type="text/css">
	.st0{fill:none;}
	
		.st1{clip-path:url(#SVGID_00000078046330415640768340000011221567393275384213_);fill:none;stroke:#FFFFFF;stroke-width:1.5;stroke-linecap:square;stroke-linejoin:round;}
	.st2{fill:#FFFFFF;stroke:#FFFFFF;stroke-width:0.8;stroke-linejoin:round;}
	.st3{fill:#FFFFFF;stroke:#FFFFFF;stroke-width:0.6;stroke-linejoin:round;}
	.st4{fill:#FFFFFF;stroke:#FFFFFF;stroke-width:0.8;stroke-linecap:square;}
	.st5{fill:#FFFFFF;}
	.st6{font-family:'AnonymousPro';}
	.st7{font-size:12px;}
	.st8{font-family:'SourceCodePro-Medium';}
</style>
<path class="st0" d="M0,288h432V0H0V288z"/>
<g>
	<defs>
		<rect id="SVGID_1_" x="54" y="37.6" width="334.8" height="217.4"/>
	</defs>
	<clipPath id="SVGID_00000152984931983037538770000010753435357038422956_">
		<use xlink:href="#SVGID_1_"  style="overflow:visible;"/>
	</clipPath>
	
		<path style="clip-path:url(#SVGID_00000152984931983037538770000010753435357038422956_);fill:none;stroke:#FFFFFF;stroke-width:1.5;stroke-linecap:square;stroke-linejoin:round;" d="
		M54,242.7l0.1-1l0.1,0.7l0.1-2.1l0.2,2.1l0.1-2.4l0.1,1.1l0.1,3.3l0.1-0.4l0.2-3.5l0.1,1.6l0.1,0l0.1-0.4l0.1,1l0.1-1.3l0.1,3.1
		l0.1-4.6l0.1,1.1l0.1,0.6l0.2,2.5l0.2-2.7l0.1,0.1l0.1,1.4l0.2-2.3l0.1,4.2l0.2-3.9l0.1,1.1l0.1-0.6l0.1,0.7l0.1-2.6l0.1,5l0.1-2.3
		l0.1,2.2l0.1-0.4l0.1-1.2l0.1,1.2l0.1-4.3l0.1,0.1l0.1,3.3l0.1-1.6l0.1,0.6l0.1-1.5l0.1,1l0.1,3.4l0.1-4.1l0.1,0.1l0.1,1.3l0.2-2.1
		l0.1,2.1l0.1-0.5l0.1-2.1l0.1,3.8l0.1-0.1l0.1,0.8l0.1-3.8l0.1,0.8l0.1,3.4l0.1-4.7l0.1,1.3l0.1-0.6l0.1,4.3l0.2-3.5l0.1,0.8
		l0.2-1.5l0.1,2.4l0.1-2.6l0.1,3.7l0.1-0.6l0.1,1.2l0.2-4.1l0.2,2l0.1-1.2l0.1,3.2l0.1-0.7l0.2-2.5l0.1-0.7l0.1,2l0.2-3l0.1,4
		l0.2-4.2l0.1,4.3l0.1-1.7l0.1,1l0.1-1l0.2,2.6l0.1-2.8l0.2,2.1l0.1-0.8l0.1,1.5l0.1-75.2l0.1,6.8l0.1-4.3l0.1,7.2l0.1-8.8l0.1,7.7
		l0.1-1.7l0.1,1.5l0.1-4.4l0.2,10.8l0.1-21.6l0.1,2.4l0.1,8.2l0.2-15.3l0.1,15.7l0.2-15.6l0.1,3.6l0.1,7.5l0.1-11.6l0.1,4.8l0.1-0.1
		l0.1-10.2l0.1,0.6l0.2,17.3l0.1-4l0.2,6.5l0.2-19.7l0.1,1.5l0.2,18l0.1-4.5l0.1,4.1l0.1-15.7l0.1,13.1l0.1-15.6l0.1,4.9l0.2,10.4
		l0.2-16.1l0.3,12.7l0.1-14.8l0.2,12.4l0.1-4.2l0.2,12.7l0.2-19.4l0.2,18.2l0.1-17.2l0.2,13.8l0.1-1.1l0.1-6l0.1,0.7l0.1,1.1
		l0.1-4.9l0.1,8.6l0.1-10l0.1,13.1l0.1-13.1l0.1,2.6l0.1-0.4l0.1,4.3l0.1-4l0.1,12.6l0.1-16.6l0.1,17.1l0.1-2l0.2-12.7l0.1,14.3
		l0.2-19.3l0.2,10.6l0.1-5.6l0.1,8.9l0.1-3.5l0.2-10l0.1,0.6l0.2,15l0.2-4.5l0.1,2.7l0.1-1.3l0.2-8.4l0.1,0.6l0.1-1.7l0.1,16.8
		l0.1,58.4l0.1-6.4l0.2,6.3l0.3-7.4l0.1,3.6l0.1-0.4l0.1-2.5l0.2,15.7l0.1-2.3l0.1,0.7l0.1-0.7l0.1,4.2l0.2-3.8l0.1,4.4l0.1-4.1
		l0.1,3.7l0.1-3.8l0.2,6.1l0.2-2.7l0.1,0.3l0.1,1.1l0.1-2.6l0.2,4.6l0.1-4.7l0.1,4.1l0.2-2.9l0.1,3.2l0.1-1.7l0.1,1.6l0.1-2.8
		l0.1,1.1l0.2-1.8l0.1,1.3l0.1-0.4l0.2,1.9l0.2-2.8l0.2,3.2l0.2-0.7l0.1,1.9l0.1-2.3l0.1,0l0.1-0.5l0.1,1.2l0.2-3.2l0.2,4.9l0.1-5
		l0.1,1.4l0.2,3l0.1,0l0.1-0.1l0.1,0.7l0.1-4.6l0.1,1.9l0.2-1.5l0.1,0.2l0.2-0.9l0.1,2.8l0.1-2.8l0.1,1.2l0.1,3.5l0.2-3.3l0.1-1.2
		l0.1,2.9l0.1-1.1l0.1,3.1l0.1-1.7l0.1,1.5l0.2-4.1l0.1,3.3l0.1-1.7l0.2,2.2l0.1-2.1l0.1,2.3l0.1-2.7l0.1,3l0.1-0.4l0.2-2.6l0.1,3
		l0.2-4.4l0.1,0.6l0.1,3.2l0.2-2.9l0.1,3.4l0.2-4.7l0.3,1.5l0.1-0.2l0.1-0.7l0.2,2.6l0.1-0.3l0.1-2.8l0.1,4.7l0.2-5l0.1,1.3l0.1-1.5
		l0.2,5.2l0.1-4.3l0.1,2.9l0.1-0.9l0.2,1l0.3-2.9l0.2,3.2l0.2-2.5l0.1-1.2L84,245l0.1-4.5l0.2,4.1l0.1-1.8l0.1,1.1l0.1-0.1l0.2-3
		l0.1,0.4l0.2,1.7l0.1-2.9l0.2,4l0.1-2.1l0.1,0.5l0.1,2.8l0.1-4.4l0.1,0.7l0.1,0.2l0.1,3.2l0.2-4.7l0.1,0.4l0.2,3.8l0.3-4.4l0.1,3.2
		l0.2-72.6l0.1,15.7l0.1-16.7l0.1,5.3l0.1-5.1l0.2,16.5l0.1-8.2l0.1,0.7l0.1,2.2l0.2-22.7l0.1,3.4l0.1,10.4l0.1-11.9l0.1,0.2
		l0.1,6.3l0.1-10.4l0.1,15.8l0.1-2.1l0.1,4.3l0.1-15.3l0.1,3.6l0.2,9.8l0.2-8.8l0.1,4.4l0.1-0.3l0.1-13.2l0.1,7.7l0.1-4.6l0.1,14.8
		l0.2-10L90,170l0.2-17.6l0.1,18.5l0.1-5.8l0.1-13.1l0.1,18.8l0.2-19.1l0.1-0.1L91,169l0.1-0.8l0.2-15.3l0.1,6.5l0.1-3.4l0.1,0.6
		l0.1,1.7l0.1-3.6l0.2,12.7l0.1-10.9l0.2,9.7l0.1-10.9l0.1,2.3l0.1-5.2l0.1,16.6l0.1-10.4l0.1,8.7l0.1-14.2l0.1,17.3l0.2-14.9
		l0.1,9.4l0.1-12.9l0.1,2.2l0.2,18.1l0.3-20.7l0.1,19.3l0.2-10.3l0.1,9.8l0.1-6.1l0.1,1.3l0.2-8.3l0.1,12.2l0.1-14.6l0.1,2.9
		l0.1-4.5l0.1,9.5l0.1-9.6l0.1,0.6l0.2,10.4l0.1-11.9l0.1,4.7l0.1-4.6l0.2,6.9l0.1,10.6l0.1-3.8l0.2,61.6l0.1,1.9l0.2-5.5l0.1,3.9
		l0.1-0.1l0.1-1.5l0.1,3.8l0.1-6.6l0.1,4.1l0.1-4.6l0.2,15l0.1,2l0.1-1.2l0.2,1.1l0.1-3.1l0.1,2.2l0.1-2.1l0.1,4.4l0.1-0.2l0.1-5
		l0.2,5.4l0.1-0.1l0.1,1.7l0.1-2.8l0.1,3.5l0.2-4.6l0.2,4.3l0.1-2.4l0.1,3.1l0.1-0.6l0.1,0.9l0.1-2.6l0.1,2.3l0.2-4.6l0.1,1.2
		l0.1,3.5l0.1-0.8l0.2-3.6l0.1,4.8l0.1-4.2l0.1,1.3l0.1,0.1l0.1-2.2l0.1,1.1l0.1-0.6l0.1,2.7l0.2-1.4l0.1,1.6l0.1-1.3l0.2,2.3
		l0.2-4.2l0.1,2.5l0.1-1l0.1,2.9l0.1-4.3l0.1,1.8l0.2-1.2l0.1,2.9l0.2-3.8l0.1,4.7l0.2-4.7l0.1,3.6l0.2-3.4l0.1,1l0.1,2.8l0.1-0.6
		l0.1,1.6l0.2-4.4l0.2,4.2l0.1-3.6l0.1,0.1l0.1-1l0.1,1l0.1-0.5l0.2,1.1l0.1,1.1l0.1-2.6l0.2,4.4l0.2-2.5l0.2,1.7l0.1-1.6l0.1,1.9
		l0.1-3.4l0.2,3.5l0.2-3.6l0.1,0.2l0.1,2.9l0.1-2.1l0.1,2l0.1-4l0.1,0.2l0.1,2.1l0.2-1.3l0.2,0.5l0.1-1.4l0.1,1.9l0.1-0.2l0.1-1.1
		l0.1,1l0.1-0.3l0.1,2.7l0.1-0.7l0.1,1.2l0.2-4.6l0.1,2.1l0.1-0.9l0.1,2.4l0.1-2.7l0.1,1.2l0.1-0.4l0.1,2.2l0.2-1.8l0.1,0.2l0.1-1.8
		l0.1,0.1l0.1-0.4l0.1,1.6l0.1-1.6l0.1,0.8l0.1,3l0.1-0.8l0.2,2.3l0.1-1l0.1,1l0.1-3.9l0.2,2.2l0.2-2.8l0.1-0.8l0.2,3.6l0.2,0.5
		l0.1-1.1l0.1-3.1l0.1,5.3l0.1-1.1l0.1,0l0.1-2.8l0.1,2l0.1-0.6l0.1,1.7l0.1-64.7l0.1,5.5l0.1-7.9l0.1,8l0.1-12.7l0.1,4.1l0.1-2.9
		l0.2,11.4l0.3-25.3l0.1-1.9l0.1,1.7l0.1,12.7l0.1-10l0.1,11.3l0.1-12.8l0.2,11.7l0.1-15.2l0.2,15l0.2-19.1l0.1,7l0.1-8l0.1,17.9
		l0.2-14.2l0.2,15.1l0.2-11.7l0.2-3.2l0.1-0.2l0.1,2.3l0.1,9.6l0.2-15.9l0.1,18.8l0.1-9.8l0.2,6.6l0.2-8.2l0.1,12.8l0.2-17.4
		l0.1-3.1l0.1,16.9l0.1-8.9l0.2,5.6l0.2-9.7l0.1,16.3l0.1-20.4l0.1,3.4l0.1,1.3l0.1-0.2l0.1,8l0.1-7.8l0.1,7.9l0.1-11l0.1,15.5
		l0.1-2.5l0.1-5.6l0.1,5l0.2-3.7l0.1-7.8l0.2,13.1l0.2-10.7l0.1,13.5l0.1-2.2l0.1-3.4l0.1,0.4l0.1-0.7l0.1-8.6l0.1,10.1l0.2-6.5
		l0.1,8.4l0.1-10.5l0.2,5.9l0.1-7.8l0.1,12.2l0.1-13.8l0.1,6.9l0.1-1l0.1-5.7l0.1,1.2l0.1,4.6l0.1-3.3l0.1,6.9l0.1-2.5l0.1,10.4
		l0.1,58.7l0.1-6.4l0.1,6.6l0.1-0.9l0.1-5.4l0.1,6.8l0.3-6.7l0.1,2.3l0.1,0l0.2,13l0.1-0.7l0.1-1.7l0.2,5.4l0.1-3.7l0.1,3.5l0.2-4.7
		l0.1,1.5l0.1,4.2l0.1-2.8l0.1,2.8l0.1-2.6l0.1,0.7l0.1,2.4l0.1-4.1l0.1,3.9l0.1-4.3l0.1,5.4l0.1-1.4l0.1,0.4l0.1,1.5l0.1-3.9
		l0.1,0.2l0.1-0.5l0.1,2.9l0.2-2.2l0.1,1.2l0.1-1.4l0.1,0.3l0.1,2.8l0.1-3.6l0.1,0.4l0.1,0.3l0.1,2.7l0.1-0.6l0.1-0.7l0.2,0.9
		l0.1-3.1l0.1,0.9l0.1,0.4l0.1,1.8l0.1-3.7l0.1,3.9l0.2-4.2l0.1,1.3l0.1-1.4l0.2,4.2l0.1-0.6l0.1,1.7l0.1-3.6l0.1,2.2l0.1-2.9
		l0.1,2.5l0.1-0.6l0.1-2.6l0.1,3.9l0.2-2.8l0.1,2.9l0.1-1.5l0.1,0.8l0.1-2.3l0.2,1.6l0.1-1.6l0.1,2.9l0.2-3.4l0.1-0.1l0.1,0.5l0.1,2
		l0.1-3.1l0.1,3.2l0.1-1.4l0.1,2.6l0.1-4.4l0.1,1.5l0.1-0.3l0.1,3.7l0.2-3.8l0.1,0.6l0.1,2l0.1-1.1l0.1,2l0.1-1.9l0.1,1.2l0.1-0.6
		l0.1,1l0.1-0.4l0.1,0.8l0.1-4.5l0.2,2.8l0.2-2.8l0.1,4l0.1-0.6l0.1-3.7l0.2,5.1l0.1-0.7l0.1,0.7l0.1-5.2l0.1,3.8l0.2-3.9l0.2,5.2
		l0.1-0.3l0.1-2.2l0.1,0.4l0.1-1.1l0.1,0.9l0.1-2.7l0.1,2.1l0.2-1.9l0.1,4l0.1-0.4l0.1,0.7l0.1-0.2l0.1-2l0.1,1l0.1-0.5l0.1-3
		l0.1,4.4l0.1-2.1l0.1,2.4l0.2-4.6l0.2,4.7l0.1-1.7l0.1,1.3l0.1-0.5l0.1-2.1l0.1,3l0.2-2.9l0.2,3.2l0.1-5.2l0.1,3.3l0.1-2.2l0.1,2.4
		l0.1-0.8l0.2,0.7l0.1,1.7l0.2-4.7l0.1,1.1l0.1,2.9l0.2-4l0.1,1l0.2-70.2l0.1,10.4l0.1-2.8l0.1-1.3l0.2-7.4l0.1,0l0.1,16.9l0.1-16.7
		l0.1,15.9l0.1-3.9l0.1-17.5l0.1,0.7l0.1-2.6l0.1,2.6l0.1-9.5l0.1,14.5l0.1-0.7l0.1-13.5l0.1,17.6l0.2-12.6l0.1,3.7l0.1-6.6
		l0.1,11.2l0.1-14.5l0.1,15.2l0.1-5.6l0.1,7l0.2-18.5l0.2,8.6l0.1-8.4l0.1,9.2l0.1-1.8l0.1-0.8l0.1,4l0.1-9.2l0.1,14l0.2-15.5
		l0.1,0.4l0.1,8.1l0.1-2.9l0.1,5.3l0.1-1.6l0.2-10l0.1,0.8l0.1,16.3l0.2-17.4l0.1,12.6l0.1-3.4l0.1-5.6l0.1,4.7l0.1-9.3l0.1,11.6
		l0.2-7.3l0.1,6.4l0.1-7.8l0.2,16.1l0.2-17.5l0.1,14.4l0.1-2.2l0.1,4.3l0.2-17.4l0.2,7.4l0.1,1.4l0.1,10l0.1-13.8l0.1,2.7l0.1-1.3
		l0.1-5.1l0.2,2.5l0.2-4.5l0.2,19l0.2-14.6l0.1,16.4l0.1-0.6l0.1-0.2l0.1-14.3l0.2,13.5l0.1-13.5l0.2,10l0.1-8.3l0.1,2l0.1,4.2
		l0.1-6l0.1,8l0.2,62l0.1,0.6l0.1-5.4l0.1,0.6l0.2,5.1l0.1-6.2l0.1,0.5l0.1,3.9l0.1-2.8l0.2,17.2l0.2-0.3l0.1-2.4l0.1,0.3l0.1-0.1
		l0.1,2.4l0.2-4.3l0.1,2.3l0.1-2.1l0.1,4.6l0.1-0.3l0.1-0.8l0.1-2.1l0.2,5.1l0.2-5.3l0.2,2.9l0.1-1l0.1,1l0.1-0.4l0.1-1.3l0.2,2.2
		l0.1-1l0.2,3.4l0.2-2.6l0.1-1.7l0.1,2.9l0.1-1.3l0.2,2.3l0.1-4.6l0.1,0.6l0.1,4.2l0.1-3.5l0.1,2l0.1-3.5l0.2,4.1l0.2-3.2l0.1,3.5
		l0.1-2.8l0.1,3.5l0.1-4.6l0.1,4.5l0.1-4.5l0.2,2.5l0.2-2.9l0.2,4.6l0.2-2.2l0.1,0.1l0.1-0.3l0.1,3l0.2-3.7l0.1,3.2l0.1-2.4l0.1,0
		l0.1-0.6l0.1,3.2l0.1-2.9l0.1,1.9l0.2-2.7l0.1,0.4l0.1,3.2l0.2-4.6l0.1,4.4l0.1-3.7l0.1,0.8l0.1-0.4l0.1,2.6l0.1,0l0.1-3.3l0.2,4.5
		l0.1-2.9l0.1,2.6l0.1-3.6l0.1,0.8l0.1-1.3l0.1,0.5l0.1,3.6l0.2-3.6l0.1,1.9l0.1-3l0.1,1.3l0.1,3.9l0.1-4.7l0.1,4.2l0.1-0.2l0.2-3.9
		l0.2,3.1l0.1-0.3l0.1,0l0.1,0.1l0.1,0.5l0.2-3.5l0.2,3.8l0.1-3.5l0.1,0.5l0.1-1l0.2,4.2l0.2-2.5l0.1,0.7l0.1-0.6l0.1,2.3l0.2-2.6
		l0.1,1.2l0.1-1.3l0.2,1.9l0.1,0.2l0.1-0.6l0.1,2.1l0.2-4.4l0.2,4.3l0.1-5.1l0.2,4.6l0.2-3.3l0.1,2.4l0.1-1.5l0.2,2.5l0.2-3.3
		l0.1,0.6l0.1,2.6l0.1-0.2l0.2-3.5l0.1,2.5l0.1-1.3l0.1,2.3l0.1-0.8l0.1,1.6l0.1-4l0.1,2l0.1-2.2l0.1,0.6l0.1-69.5l0.1,9.9l0.1,1.8
		l0.1-14.4l0.1,4.7l0.1-2.1l0.1,15l0.2-13.3l0.1,12.2l0.1-9l0.1,2.5l0.2-9.7l0.1,3.6l0.1-10.8l0.1,8.1l0.1-0.7l0.1-13l0.2,10.6
		l0.2-10.8l0.1,16.1l0.2-12.5l0.1,6.3l0.2-14l0.1,0.6l0.2,15.3l0.1-15.6l0.2,16l0.1-11.2l0.2,9.5l0.1-13.2l0.2,17.5l0.2-11.7
		l0.1,10.4l0.2-15.6l0.1,13.2l0.1-12.6l0.1,12.5l0.1-9.5l0.2,12.1l0.1-12.9l0.2,11.6l0.2-10.3l0.2,10.1l0.1,3.7l0.1-9.9l0.1,0.9
		l0.2,8.1l0.2-15.8l0.1,1.6l0.1-3.1l0.1,18.3l0.1-20.6l0.1,13.4l0.1-14l0.1,15.9l0.1-4.7l0.1,2.5l0.1,0l0.1-10.5l0.1,2.1l0.1-5.3
		l0.2,19.4l0.1-19.5l0.1,9.6l0.1-3.2l0.1,6.3l0.1-3l0.1-8.5l0.1,16.7l0.1-2.7l0.1,3l0.1-13.8l0.1,15.7l0.1-0.4l0.2-9.3l0.1,2.3
		l0.1,7.8l0.1-19.6l0.1,0.1l0.1,14.5l0.1-9.7l0.2,10.6l0.1-0.5l0.1-4.9l0.2,66.2l0.1-4.4l0.1,2.8l0.1-1.5l0.1,4l0.1-3l0.1,1.9l0.2-4
		l0.1,0.1l0.1,3.6l0.1,10.5l0.1-1.5l0.2,4.8l0.1-3.2l0.1,3.5l0.1-4.6l0.2,4.9l0.2-5.1l0.1,7.7l0.1-2.5l0.1-2.5l0.1,3l0.1-0.2
		l0.1-0.8l0.1,0.6l0.2,2.4l0.2-5l0.1,4.5l0.1-0.1l0.1-0.9l0.1-2.4l0.1,2.9l0.1-3.3l0.1,4.5l0.1-4.8l0.1,2.1l0.1-0.5l0.1,1.6l0.1-2.2
		l0.2,4.1l0.2-4.3l0.1,0.5l0.2,3.4l0.1-3.8l0.1,0.3l0.2,1.7l0.1-2.7l0.1,0.5l0.2,2.7l0.1-1.3l0.1,0.2l0.2,1.4l0.2-1.4l0.2,1.7
		l0.1-2.7l0.2,3.7l0.1-1.6l0.1-2.8l0.1,0.7l0.1,2.3l0.1-3.3l0.1,4.6l0.1-4.8l0.2,5.1l0.1-2.3l0.1,0.4l0.2-2.6l0.1,2.4l0.1-0.2
		l0.2,2.1l0.1-3.2l0.1,3.1l0.1-3.6l0.1,1l0.1,1.8l0.1-1.8l0.1,1.9l0.2-3.3l0.2,3.5l0.1-3.1l0.1,2.9l0.1-3l0.2,1.5l0.1-2.1l0.1,0.8
		l0.1,3.6l0.2-4.5l0.1,4.6l0.2-3.8l0.1,0.6l0.1-0.7l0.1,0.2l0.1,0.2l0.1-0.7l0.2,2.3l0.1-0.4l0.2-2.2l0.1,3.3l0.1-0.4l0.1-3.2l0.2,4
		l0.2-4.4l0.2,1.3l0.1,2.9l0.1-3.6l0.1,1.9l0.1-2l0.2,4.5l0.1-2.2l0.1,1.1l0.2-3.7l0.1,1.4l0.1-1.1l0.1,2.3l0.2-2.1l0.2,1.8l0.2-1
		l0.1,2.4l0.2-3.8l0.1,2.6l0.2-1.5l0.2,1l0.1-1.8l0.2,4.4l0.1-4.2l0.1,0.9l0.1-0.9l0.2,4.4l0.1-4.9l0.1,4.2l0.2-3.6l0.1,0.6l0.1,3.1
		l0.2-4.1l0.2,2.6l0.1-64l0.1,6.6l0.1-14.8l0.1,0.4l0.1-2.4l0.1,7.6l0.1-3l0.1,10l0.1-8.5l0.1,0.3l0.2-19.3l0.2,1.5l0.1,16.8
		l0.1-16.3l0.1,5l0.2,11.5l0.1-13l0.1,7.3l0.2-7.4l0.1-7.6l0.1,1.8l0.2,9.4l0.1,3.2l0.1-2.8l0.1,5.6l0.1-18.4l0.2,18l0.2-9.2
		l0.1,10.7l0.1-19.7l0.2,20.1l0.1-1.3l0.1-10.8l0.2,11.6l0.2-12.5l0.1,11l0.2-6.7l0.1,5.6l0.1-7.5l0.2,9.9l0.1-10.2l0.2,9.1
		l0.2-17.6l0.1,4.1l0.2-5.4l0.3,17l0.2-17.5l0.1,11.4l0.1-5.5l0.2,6.3l0.1,0.5l0.1-2l0.1,3l0.2-10.9l0.1-0.2l0.1,14.1l0.1-14.4
		l0.2,12.6l0.1-9l0.2,14.5l0.2-14.4l0.1,8.5l0.2-7.2l0.2-5.1l0.2,15.7l0.2-11.8l0.1,15.1l0.2-16.5l0.1,2.3l0.2-3l0.1,0.6l0.1,2.2
		l0.1,5.2l0.1-11.7l0.2,77.5l0.1-0.8l0.2-5.4l0.2,7.3l0.2-7.2l0.1,5.5l0.1-0.9l0.1-2.4l0.1,15.3l0.1-3.3l0.2,5.1l0.2-1.5l0.2,1.3
		l0.1-4.2l0.1,3.6l0.1-4.5l0.2,6.6l0.1-0.1l0.1-1.8l0.1,0.1l0.1-1.1l0.1,0.1l0.1,0.5l0.1,1.2l0.1-2.4l0.1,1.5l0.1-2l0.1,1.5l0.1,4.2
		l0.2-3.7l0.1,0.9l0.1-1.3l0.2,3.3l0.1,0.7l0.2-3.4l0.1,2.1l0.1-1.5l0.1,3l0.1-0.3l0.1-3.2l0.1,1.8l0.2-2.5l0.1-0.1l0.1,3.7l0.2-3.2
		l0.1-0.1l0.2,3.2l0.2-3l0.2,3.4l0.1-3.3l0.2,3l0.1,0.1l0.2-2.4l0.2,3.1l0.1-0.4l0.2-3l0.1,3l0.1-2.5l0.1,2.4l0.1-0.5l0.1,0.2
		l0.1,0.6l0.1-3.3l0.1,1.1l0.1-2l0.1,3.9l0.1-0.2l0.1-0.9l0.1-2.5l0.1,2.5l0.1-0.6l0.2,1.8l0.1-4.6l0.1,2.1l0.1-1.3l0.2,1.5l0.1,2.3
		l0.1-3l0.1,2.6l0.2-3.4l0.2,0.6l0.1,2.8l0.1-1.1l0.1,1.6l0.2-4.9l0.2,4.7l0.2-4.1l0.2,4.4l0.1-5l0.1,0.8l0.1,3.8l0.1-4.3l0.2,3
		l0.1-0.5l0.1-2l0.1,0.9l0.1,3.2l0.1-4.8l0.1,4.4l0.1-3.2l0.1,0.6l0.2,2.5l0.1-3.8l0.1,2.4l0.1-1.3l0.1,0.8l0.1-1.2l0.2,2.4l0.1-0.4
		l0.1-2.7l0.2,3.5l0.1-3.9l0.1,0.7l0.1,4l0.1-5.1l0.1,1.6l0.1,2.9l0.1-0.4l0.2-2.9l0.1,2.9l0.1-0.1l0.1-0.3l0.1-1.6l0.2,2.7l0.2-3.6
		l0.2,2.2l0.1-0.4l0.1,0.2l0.1-3.1l0.1,1l0.1,3l0.1-0.9l0.2-1.2l0.1,0.8l0.1-1.8l0.1,0.2l0.1,1.4l0.1-1.9l0.1,0.6l0.2-71.6l0.1,12.6
		l0.1,0l0.1-11.4l0.1,2.1l0.1-2.8l0.1,15.8l0.1-10.3l0.1,8.8l0.1-6.6l0.1,6.4l0.2-21.9l0.2,11l0.1-4.5l0.1,3.2l0.1-16.1l0.1,13
		l0.1-0.3l0.1-10.6l0.1,4l0.1-4l0.1,1.6l0.1-6.6l0.1,15.8l0.1-16.7l0.1,3.4l0.1,5.2l0.1-1.6l0.1,0.3l0.1,12.6l0.1-3.4l0.1-15.9
		l0.2,12l0.1-8.2l0.2,16.1l0.1-15.5l0.1,0.1l0.1,12.2l0.1-17l0.1,15.8l0.1-5l0.1,7.4l0.1-10.6l0.2,5.4l0.1-10.2l0.1,17.6l0.1-17
		l0.1,4.9l0.1-8.9l0.2,20.1l0.1-17.9l0.1,0.9l0.1,10.7l0.1-5.9l0.1,2.8l0.1-10.3l0.1,0.4l0.1-0.7l0.1,2.5l0.1-0.9l0.1,14.9l0.1-13.2
		l0.1,2.6l0.1-5.5l0.2,18.9l0.2-12.9l0.1,10l0.2-8.1l0.2,10l0.1-17.4l0.1,4.1l0.1,16.1l0.1-16.5l0.1,0.6l0.1,15.7l0.2-12.8l0.1,3.3
		l0.1-7l0.2,13.4l0.1-17.7l0.1,15.8l0.1-10.2l0.1,12.4l0.1-4l0.1-2.4l0.1,5.4l0.1-5.5l0.1,6.3l0.2-10.9l0.1,12.9l0.1-17.4l0.1,75.3
		l0.1-0.3l0.1-3.8l0.2,4.6l0.1-5.8l0.1,1.6l0.1,4.1l0.2-5.8l0.1,2.1l0.1,15.9l0.1-1.6l0.1,0.8l0.2-3.6l0.2,2.5l0.1-2.8l0.2,3.9
		l0.1-2.1l0.2,3.8l0.1-3.3l0.1,0.6l0.3,3.8l0.1-0.7l0.1-2.6l0.1,1.8l0.1-2.4l0.1,4.5l0.2-2.7l0.1,0.7l0.2-2.6l0.1,4.7l0.1-0.1l0.1,0
		l0.1-3l0.1,1.7l0.1-1.9l0.1,1.9l0.2-2l0.2,3.7l0.2-2.5l0.1,0.5l0.2-2.4l0.1,0.5l0.1,2.4l0.1-1.8l0.2,2.6l0.1-0.6l0.1,1.5l0.2-4.8
		l0.1,3.5l0.1-3.2l0.2,3.8l0.2-2.6l0.1,3.4l0.1-1l0.1-1.3l0.1,0.7l0.1-2.1l0.2,3l0.1-4l0.1,3.2l0.2-2.6l0.1-1l0.1,2.5l0.1-0.6
		l0.1,1.5l0.1-1.8l0.2,1.3l0.1-2.2l0.1,4.3l0.1-4.5l0.1,0.2l0.2,1.9l0.1,0.7l0.1-3.4l0.1,4.8l0.2-4.4l0.2,1.6l0.1,2.8l0.1-1.4
		l0.1,1.3l0.1-4l0.1,0.7l0.1,0l0.2,1.3l0.1,1.9l0.1-1l0.1,1l0.1-3.2l0.1,3l0.1-2.9l0.1,0.1l0.2,3l0.2-3l0.1,3.2l0.1-3.8l0.1,0.4
		l0.1,3.1l0.1-2.9l0.1,0.3l0.1-0.4l0.2,3.2l0.2-1.1l0.1-2.3l0.1,0.3l0.1-1l0.2,4.9l0.1-3.7l0.1,2.3l0.1-0.3l0.1-1.1l0.1,2.4l0.1-2.9
		l0.1,1.7l0.2-2.7l0.1,3.6l0.1-4.1l0.1,2.2l0.1-2.1l0.1,3.8l0.1-2.1l0.1,1.1l0.1-2l0.2,1.5l0.1-2.3l0.2,3.7l0.2-2.2l0.1,1l0.1-0.3
		l0.1-2.5l0.1,1.2l0.1,3.3l0.1-0.5l0.1-4.1l0.1,1.3l0.1-1l0.1,3.3l0.1-2.4l0.1,0.1l0.1,2.3l0.2-68l0.1,2.7l0.2-6.4l0.1-0.3l0.1,0.9
		l0.2,7.7l0.1-8.2l0.2,10.7l0.1-17.7l0.1,7.6l0.1-11.5l0.2,9l0.1-14.5l0.1,3.8l0.1-0.2l0.1,3.4l0.1-4.5l0.2,5l0.1-10.4l0.1,16.5
		l0.1-16.1l0.1,11.6l0.1-2.7l0.1,8.7l0.2-18.7l0.2,0.7l0.1,13.2l0.1-14.3l0.1,11.5l0.1-8.5l0.1,13.7l0.2-16.1l0.1,0.4l0.1,5.7
		l0.1-2.5l0.1,13.4l0.1-11.7l0.1,2.2l0.1,11.2l0.1-0.5l0.1,0.1l0.1-13.3l0.1,12.5l0.1-7l0.1,2.4l0.2-7.5l0.1,0.5l0.2,6.2l0.1-10
		l0.2,13l0.1-10.4l0.1,8.3l0.1-10.5l0.1,11.2l0.1-8.1l0.1,14.1l0.3-19.8l0.1,10.9l0.1-7.8l0.1,2.7l0.1-5.8l0.1,3.4l0.1,15.8
		l0.1-13.7l0.1,3.8l0.1,11.2l0.1-5.1l0.2-14.5l0.1,2.7l0.1-3.9l0.1,3.8l0.1,17.1l0.1-6l0.1,5.5l0.1-1.4l0.2-8.8l0.2-7.7l0.1,5.3
		l0.1-6.7l0.1,9.2l0.1-8.4l0.2,13.2l0.1-13.8l0.1,11.4l0.1-2.5l0.1,3.8l0.1-7.2l0.2,72.2l0.1-7.5l0.1,7.7l0.1-3.1l0.1,1.7l0.1-5.1
		l0.1,6.1l0.1-4.3l0.2,3.6l0.1-5.5l0.1,17l0.1,0l0.1-0.3l0.2-2.3l0.1,3.9l0.2-2.5l0.1,0.6l0.1-3.3l0.1,0.6l0.1,1l0.1,4.2l0.2-2.8
		l0.1,1.4l0.1-1l0.1,0.2l0.2,2.4l0.1-2.4l0.1,3l0.2-3.3l0.1,0.5l0.2,3.9l0.2-4.3l0.2,4l0.2-4.6l0.1,3l0.1-0.9l0.2-1.9l0.1,4.6
		l0.2-4.2l0.1,0.1l0.1-0.6l0.1,2.5l0.1-1.7l0.2,2.2l0.1,0.9l0.2-3.9l0.2,5l0.1-4.1l0.1,1.1l0.1-1.8l0.2,4.8l0.1-2.3l0.1,2.2l0.1-0.9
		l0.1,0.7l0.1-0.5l0.1,0.6l0.1-4.6l0.1,3.6l0.1-0.9l0.1-2.4l0.2,1.5l0.2-1.4l0.1,1.3l0.1-1.3l0.2,3.3l0.1-3.2l0.1,1.8l0.1-2l0.1,4.7
		l0.2-4.9l0.1,3.8l0.2-3.8l0.1,0.4l0.1,1.7l0.1-0.4l0.1-1.2l0.2,1.3l0.1-1.9l0.1,1.6l0.1-1.6l0.1,4.9l0.1-0.4l0.2-3.5l0.1,3.3
		l0.1-4.4l0.1,3.6l0.1-0.6l0.1,0.8l0.1-1.6l0.1,2.8l0.1-0.5l0.1-3.2l0.1,3l0.1-0.3l0.1-3l0.1,3.8l0.1-1.9l0.1,2.2l0.2-3.6l0.1,3.3
		l0.2-4.4l0.1,4.3l0.1-4.8l0.2,4.9l0.1,0.4l0.2-3.4l0.1,1.6l0.1-2.7l0.1,0.6l0.1,2l0.2-3.2l0.1,4.6l0.1-1.1l0.2-1l0.1-0.2l0.1,1.3
		l0.1-2l0.1,0.1l0.1,0.4l0.1,2.5l0.1-2l0.1,0.6l0.1-0.7l0.1-2.3l0.2,4.9l0.2-4.3l0.1,0.2l0.2,2.9l0.2-4l0.1,1.9l0.1-0.3l0.2,1.8
		l0.1-2.5l0.1,1.7l0.1-2.7l0.2,5l0.1-3.3l0.2-59l0.1-1.9l0.1-7.1l0.2,13l0.1-10.8l0.1,3.8l0.1-9.3l0.1,7.7l0.1-3.8l0.1,9l0.1-23.5
		l0.1,0.8l0.1-3.8l0.1,18.2l0.2-13.5l0.1,12.2l0.2-17.7l0.1,10.6l0.1-11.5l0.1,19.4l0.1-16.5l0.1,2.9l0.1,1.7l0.1-10.1l0.1,18
		l0.1-16.4l0.1,4.4l0.1,9.2l0.1-13.7l0.1,10.1l0.1-8.2l0.1,9.1l0.1-10.4l0.2,15.3l0.1-10.9l0.1,9.9l0.1-4.7l0.2,8.4l0.2-11.1
		l0.1,1.2l0.1-0.4l0.1,5.4l0.2-9.8l0.1,7.5l0.1-11.3l0.3,18.9l0.1-18.6l0.1,0.9l0.1,15l0.3-15.9l0.1,15.5l0.1-6.2l0.1,7.2l0.1-6.3
		l0.1,8.1l0.1-19l0.1,8l0.1-6.9l0.1,17l0.1-3.6l0.1-0.7l0.1-2.7l0.1-9l0.2,15.9l0.1-0.3l0.1-14.6l0.1,6.8l0.1-6.1l0.1,0.9l0.1,11.8
		l0.1-0.2l0.1-13.2l0.1,0.7l0.2,15.3l0.1-5.9l0.1,6l0.2-8.8l0.2,6.8l0.1-17l0.1,6.7l0.1-7.5l0.1,12.7l0.1-7.1l0.1,10.2l0.1-8.9
		l0.2,13.3l0.1-20l0.1,73.4l0.1-3.2l0.2,5.2l0.1-0.6l0.1-2.6l0.1,1.2l0.1-3.1l0.1,7.7l0.1-5.9l0.2,4.5l0.2,10.1l0.1,2.2l0.1-0.4
		l0.2-1.2l0.2,1.6l0.1,0.9l0.1-5.8l0.1,0.2l0.1,2.8l0.1-0.2l0.2,5.1l0.1-0.3l0.1-4.4l0.1,1.6l0.2-1.5l0.2,4.7l0.1-0.8l0.1,0.7
		l0.1-0.2l0.1-1.2l0.1,1.6l0.1-0.3l0.1-1.5l0.1,0.6l0.3-3.2l0.2,4.5l0.1-4l0.1,1.9l0.1-1.4l0.1,3l0.2-3.8l0.2,4.4l0.1-4.3l0.1,0.6
		l0.1,0.2l0.1,3.8l0.1-4.1l0.1,3.6l0.1-0.5l0.1-1.9l0.1,1.7l0.1-2.1l0.1,0.3l0.1,2.7l0.2-4.4l0.1,4.1l0.1-2.3l0.1,1.4l0.1-0.6
		l0.1,0.9l0.1-0.4l0.1,1.7l0.1-5.1l0.2,3.2l0.1-0.8l0.2,1l0.1-0.6l0.2,1.5l0.2-3.6l0.2,4.4l0.1-1.2l0.1-3.9l0.1,0.8l0.1,1.3l0.1-1.8
		l0.1,2.6l0.1-2.9l0.2,4l0.1-2.1l0.1,1.4l0.1-1.3l0.1,1.7l0.1-1.7l0.2,3.1l0.1-4.6l0.1,0.2l0.1-0.5l0.2,1.6l0.1,0.7l0.1,2.3l0.1-0.3
		l0.1-0.5l0.1-3.2l0.1,3.9l0.1-4l0.1,2.2l0.1-1l0.1,3.3l0.1-0.9l0.1-3.7l0.1,3.7l0.1-0.2l0.2,0.9l0.1-0.6l0.1-2.2l0.1,1l0.1-0.5
		l0.1,2.3l0.1-3.7l0.1,0.1l0.1,4.1l0.1-1.9l0.1,1.7l0.1-3.9l0.1,0.3l0.1-0.9l0.1,3.6l0.1-1.2l0.1,1.5l0.2-1.8l0.1,2.5l0.1-3.6
		l0.1,0.9l0.1-1.5l0.1,3l0.2-3.9l0.3,2.3l0.1,2.1l0.2-2.8l0.1-1.5l0.2,3.8l0.2-3.8l0.1,4.3l0.1-0.8l0.1-1.2l0.2,2.8l0.2-4.5l0.1,4.4
		l0.2-4.9l0.1-0.2l0.1,3l0.1-2.8l0.1,4.9l0.1-71.6l0.1,1.9l0.1,7.2l0.1-4.7l0.1,6.9l0.1-13.6l0.1,9.4l0.1-4.9l0.1,8.5l0.1-0.9
		l0.2-27.9l0.2,16.6l0.1-7.1l0.1,0.2l0.1,6.7l0.1-11.7l0.2,11.4l0.2-11.3l0.1,2.5l0.1-0.9l0.1,8.3l0.2-16.9l0.1,5.2l0.1,14.2
		l0.2-20.9l0.1,0l0.1,3l0.1,16.5l0.1-19.1l0.1,7.3l0.1-4l0.2,10.3l0.1-3.1l0.1,6.8l0.1-4.5l0.1-10.8l0.1,17.6l0.1-2.4l0.1,0.5
		l0.2-18.8l0.2,18.3l0.1-16.6l0.1,0.7l0.1,18.3l0.1-15.5l0.1,2.1l0.1-2.4l0.1,5.9l0.1-10.7l0.1,20.4l0.1-4.1l0.2-14.8l0.2,18.9
		l0.2-19.8l0.1,7.9l0.1-0.8l0.2-2.9l0.1,2.9l0.1,8.6l0.1-13.7l0.1,3.1l0.1-0.2l0.1-5.5l0.1,4.2l0.1-0.6l0.1-2.6l0.1,17.2l0.2-9.2
		l0.1,5.4l0.1-11l0.1,1.7l0.1,0.9l0.1-5.9l0.1,15.9l0.1-10.2l0.2,12.4l0.1-15.8l0.1,6.5l0.1-4.9l0.2,13l0.1-2.5l0.1-0.9l0.1-12.7
		l0.1,20.8l0.1-21.1l0.1,0.1l0.2,75.1l0.1-4.2l0.2,8.1l0.1-1.7l0.1-6.2l0.1,8l0.1-4.6l0.1,4l0.1-1.8l0.1,1.7l0.2,8.8l0.1-1.9
		l0.1,1.3l0.1-1.7l0.1,2.8l0.1-0.8l0.2,0.9l0.1-2.2l0.1,1.2l0.1-0.9l0.2,6.1l0.1-2.5l0.1,2.5l0.2-4.4l0.1,5.3l0.1-0.3l0.1,0.1
		l0.2-4.1l0.1,0.4l0.1,0.6l0.1-0.9l0.2,4.4l0.1,0.2l0.1-4.3l0.1,0.7l0.1,0.2l0.1,1.9l0.1-0.2l0.1-3.1l0.1,4.9l0.1-3.8l0.2,4l0.1-3.8
		l0.1,2.2l0.1-2.1l0.1,0.1l0.1,0.9l0.1-1.3l0.2,2.6l0.1-2.4l0.1,0.8l0.1,3.1l0.1-4.8l0.1,1.9l0.2-1.8l0.1,2.4l0.1-0.3l0.1,0.5
		l0.1-0.2l0.1-2.4l0.1,0.6l0.1,3.6l0.2-4.7l0.1,2.2l0.1-1l0.1,0.1l0.1,2.3l0.1-0.1l0.1-1.9l0.1,1.2l0.1-0.4l0.2-1.1l0.2,3.4l0.2-1.9
		l0.1,0.9l0.1-1.2l0.1,2.8l0.1-2.5l0.1,0.8l0.1-0.9l0.2,1.3l0.1-3.3l0.1,3.9l0.2-4l0.1,2.1l0.1-1.8l0.1,4l0.1-2l0.1,0.2l0.1,2.4
		l0.1-2.3l0.1,0.4l0.2-3.1l0.1,4.6l0.1-1.3l0.2-2.4l0.2,4l0.2-4.6l0.2,3.9l0.2-0.4l0.1-1.1l0.1-2.7l0.2,4l0.2-1l0.1-1.3l0.2,1.2
		l0.1-0.9l0.2,2.9l0.1-1.2l0.1,0.9l0.2-3.7l0.1,0.3l0.1,0.6l0.1-1.3l0.1,3.1l0.1-3.2l0.1,2.6l0.1,0l0.1,0l0.1,1.7l0.1-4.7l0.1,4.5
		l0.1-1.1l0.1,0.1l0.1,1.3l0.1-0.4l0.1,0.6l0.2-4.4l0.2,4l0.2-4.7l0.1,4.1l0.1-0.3l0.1-3.7l0.1,4.3l0.1-1.8l0.1,1.5l0.2-4l0.1,0.9
		l0.1,2.7l0.1-0.5l0.1,0.9l0.2-3.6l0.1,2.7l0.1-145.6l0.1,16.4l0.2-15.5l0.2,21l0.2-29.6l0.1-2.7l0.2,14l0.2-45.8l0.1,16l0.2-10
		l0.1,32.6l0.1-8.2l0.2-26.3l0.2,18.8l0.1-3.4l0.2-15.2l0.1,5.4l0.1,12.6l0.1-25.4l0.1,15l0.1-9.6l0.1,23.1l0.1-5.2l0.1-21.3l0.1,33
		l0.1-19.6l0.1,1.2l0.1-10.9l0.2,21.4l0.1-28.5l0.2,33.1l0.1-3.6l0.1-32.5l0.1,32.4l0.1-16.7l0.1,7.5l0.1-18.8l0.1,5.3l0.1,6.4
		l0.1,23.7l0.1-35.1l0.1,17.6l0.1-19.6l0.1,17.6l0.1-8L307,85l0.1-27.3l0.1,16.4l0.1-0.5l0.1,9.4l0.1-1.1l0.1-1.6l0.1-5.7l0.1-22.8
		l0.1,21.1l0.1-14.4l0.1,25.9l0.2-36.1l0.1,5.3l0.1,15.8l0.1-12.9l0.1,23.5l0.1-14.9l0.1,19.7l0.1-11l0.1,4.9l0.1-19.9L309,68
		l0.1-10.5l0.2,26.8l0.2-30.1l0.1-2.8l0.1,13.4l0.1-7.3l0.1,0.1l0.1,24.1l0.1-0.3l0.1,3.8l0.2-37.4l0.1,22.9l0.1-11.9l0.1,1.3
		l0.2,25.6l0.2-37.9l0.1,25.8l0.1-21.7l0.1,157.4l0.1-3.8l0.1,1.1l0.1,6.7l0.1-0.3l0.1,0.7l0.2-9l0.1,7.1l0.1-5.4l0.1,3.9l0.1-6.3
		l0.2,29.8l0.2,3.3l0.1-3.6l0.1,4.2l0.1-0.7l0.1,0.7l0.2-3.4l0.1,0.2l0.1,1.6l0.1,7.3l0.1-4.6l0.2,2.9l0.1-1l0.2,2.6l0.1-1.5l0.1,1
		l0.1-0.1l0.1-3.7l0.2,3.4l0.2-2.5l0.1,4.6l0.1-3.9l0.2,3.7l0.1-0.8l0.2-2.1l0.1,2.4l0.2-2.2l0.1,1.3l0.2-2.3l0.1,2.2l0.1-2.7
		l0.2,5.2l0.2-3.2l0.1-0.2l0.1,0.8l0.1,1.9l0.1-0.2l0.2-3.8l0.2,1.1l0.1,0.4l0.1,2.1l0.2-2.7l0.1,0.9l0.1,2.8l0.1-5l0.1,0.6l0.1,3.1
		l0.2-3.6l0.1,4.5l0.1-2.2l0.1,0.3l0.1,0.2l0.1-2.3l0.2,4.2l0.1,0l0.1,0.1l0.2-3.6l0.1,2.8l0.2-2.6l0.1,2.3l0.2-2.3l0.2,1.9l0.2-3.4
		l0.2,3.2l0.1-0.4l0.1,2.1l0.1-2.6l0.2,2.3l0.1-1.9l0.1,2.5l0.1-2.1l0.2,2l0.2-4.8l0.1,3.8l0.1-1.8l0.1,1.4l0.1-1.2l0.1,0.3l0.1,0.9
		l0.1-2.3l0.2,3.5l0.1-3.8l0.1,0.5l0.2,1.1l0.1-0.2l0.2,0.6l0.3-1.7l0.1,1.8l0.1-0.2l0.1,0.2l0.1-0.9l0.1,0.4l0.1-2.3l0.1,1l0.1-1.1
		l0.1,1l0.1-1.4l0.1,1.8l0.1-1.8l0.2,4.9l0.2-5l0.2,4.2l0.2-2.4l0.1,1.8l0.2-3.6l0.1,0.4l0.1,3.3l0.1-0.2l0.2-0.4l0.1,1.6l0.1-3.6
		l0.1,2.1l0.2-3l0.1,4.9l0.1-5.2l0.1,1.5l0.2,1.7l0.1-0.7l0.1,1l0.1-1.6l0.1,2.9l0.1-2.8l0.2,3.2l0.2-3l0.1,0.8l0.2-72.2l0.2,14.2
		l0.1-7.2l0.1,0.3l0.1,8l0.2-13.7l0.1,1.1l0.1,10l0.2-27.7l0.1,18.3l0.2-11l0.1,7.3l0.1-10.9l0.1,3l0.1,12.7l0.1-12.3l0.1,2.4
		l0.1,6.2l0.1-19.5l0.1,2.1l0.1,12.9l0.1-5.3l0.1,4.8l0.2-13.1l0.1,12.2l0.1-9.6l0.2,8.8L329,153l0.2,9.6l0.1-4.4l0.1,8.8l0.1-1.4
		l0.1-13.1l0.1,5.4l0.1-3.2l0.1,11.9l0.2-15.1l0.2,17.3l0.1-7.5l0.2,7.6l0.2-17.9l0.1,9.1l0.2-6.3l0.1,3.4l0.1,14.1l0.1-2.4l0.2,3.2
		l0.2-8.2l0.2,7.1l0.1-10l0.1,5.5l0.1-11.3l0.1,17l0.2-20.4l0.1,5.1l0.1-0.4l0.1-4.3l0.1,15.6l0.1-16.9l0.1,4.8l0.1,1l0.1,7.9
		l0.2-6.3l0.1,0.7l0.1-1.8l0.1,13.4l0.2-7.6l0.2,6.4l0.2-7.6l0.1,9.3l0.1-19l0.1,3.9l0.1,0.7l0.1,12l0.2-17.4l0.2,8.8l0.1-5.9
		l0.2,18l0.1-14.5l0.1,12.7l0.1-0.4l0.2,58.3l0.2-5.6l0.2,6l0.1,1l0.1-0.2l0.1,0.6l0.1-0.2l0.1-3l0.1,1l0.1,10.1l0.1-1l0.1,0.5
		l0.2,4.1l0.1-3.7l0.2,3.8l0.1-4.6l0.2,3.8l0.1-3.9l0.2,5.7l0.1-0.1l0.2-2.1l0.1,3.7l0.2-4.9l0.1,3.8l0.2-3.8l0.1,3.8l0.1-2.1
		l0.1,2.8l0.2-3l0.1,3l0.2-3.1l0.2,3.5l0.1,0.4l0.2-4.8l0.4,4.5l0.1-1.7l0.1,0.1l0.1-0.3l0.1-2.3l0.2,4.4l0.1-4.7l0.1,1.2l0.1-0.6
		l0.1,2.5l0.1-0.5l0.1-0.1l0.1,1.8l0.2-3.8l0.2,4.4l0.1-3.5l0.1,2.5l0.2-2.3l0.1,2l0.1-2.7l0.1,1.4l0.1-1.7l0.1,0.6l0.1-0.6l0.1,4.6
		l0.1-1.2l0.1,0.8l0.2-4.3l0.1,2.3l0.1-2.1l0.1,2.8l0.1-0.1l0.1-3l0.1,2.5l0.1-2l0.1,3l0.1-3.8l0.1,2l0.1-1l0.1,3.6l0.2-4.4l0.1,0.1
		l0.1,4.5l0.1-1.4l0.1-0.8l0.1,1.5l0.1-3l0.1,2.9l0.1-0.9l0.1-1.7l0.1,1l0.2-2.6l0.1,4.5l0.1-3.2l0.1,2.6l0.1-1l0.1,2.1l0.1-0.6
		l0.4-4.5l0.2,3.9l0.1-0.5l0.2,0l0.1-1.9l0.3,3.5l0.1-1.1l0.1,0.6l0.1-3.6l0.1,3.6l0.1-3.3l0.2,3.5l0.1-4l0.1,1.3l0.1,1.9l0.1-3.5
		l0.1,4.6l0.1-0.8l0.1-3l0.1,0.2l0.2,3.5l0.1-4.3l0.2,3.6l0.2-3.8l0.1,4.7l0.1-3.9l0.1,1l0.1,0.8l0.2-2.9l0.2,4.4l0.1-4.1l0.1,1.3
		l0.1,1.2l0.3-2.6l0.2,3.4l0.1-1.9l0.1,1.2l0.1-1l0.2,2.4l0.2-3.5L350,178l0.1,6l0.2-11.4l0.1,6.8l0.1-5.2l0.2,8.3l0.1-10.2l0.1,13
		l0.1-8.1l0.1,5.8l0.2-18.3l0.1,0.1l0.2-5.1l0.1,0.4l0.1,6.6l0.1-4.6l0.1,1.1l0.1,3.2l0.2-11l0.1,13.3l0.1-15.3l0.1,18.2l0.1-5.5
		l0.1,0.4l0.1-7.2l0.1,10.6l0.1-16.1l0.1,1.2l0.2,7.9l0.1-10.2l0.1,1.6l0.1,7.1l0.1-4.4l0.2,8l0.1-2.8l0.1,8.3l0.3-19l0.2,16.6
		l0.1-11l0.1,13.4l0.2-12.9l0.2,13.3l0.1-16.8l0.2,16.5l0.1-0.3l0.1-3.8l0.1,1.6l0.1-12.8l0.1,9.7l0.1-10.4l0.1,13.6l0.2-11.1
		l0.2,1.9l0.1-7l0.1,15l0.2-14.1l0.2,17.8l0.2-12.4l0.2,9.5l0.2-9.1l0.1,7.9l0.1-1.1l0.2-13.9l0.1,5.8l0.1-2.3l0.2,11l0.2-11.5
		l0.1,7.6l0.2-11.5l0.2,20.3l0.2-7.3l0.1,5.5l0.1-15.9l0.1,18.2l0.1-6.3l0.1,2.8l0.1-16.1l0.1,5.6l0.1-5.2l0.2,73.5l0.2,2.6l0.1-0.3
		l0.1-4.2l0.1,5.8l0.1-0.1l0.2-5.1l0.1-0.2l0.1,2.5l0.2,11.6l0.1,2.6l0.2-5.1l0.1,5.4l0.2-2.6l0.1,2.1l0.1-4.3l0.1,3.5l0.1-3l0.2,6
		l0.1-0.2l0.1,1l0.2-4.3l0.1,2.6l0.1-2.1l0.1,1.7l0.2-2.4l0.1,4l0.1-3.4l0.1,1.3l0.1-1.1l0.3,4l0.2-5l0.2,3.7l0.1-2.7l0.1,0.3
		l0.2,4.1l0.1-0.6l0.1-4.1l0.1,0.2l0.2,3l0.2-3.5l0.2,3.8l0.1-1.5l0.1,1.6l0.1-3.1l0.1,2.3l0.1-2.4l0.1,2.4l0.1-2.4l0.1,2.6l0.1-0.6
		l0.1-0.9l0.1,2.9l0.1-4.7l0.2,2.4l0.2-1.9l0.1,1.8l0.1-2.2l0.1,4.6l0.1-0.3l0.1-2.6l0.1,1.3l0.1-0.6l0.1,0.7l0.1-0.4l0.1-2.2
		l0.1,1.2l0.1-2.2l0.1,1.1l0.2,2.8l0.1-0.4l0.1-2.7l0.1,4.4l0.1-1.1l0.1-3.6l0.2,3.7l0.2-3.6l0.1,3.4l0.1-0.9l0.1-2.2l0.1,0.3
		l0.1-0.2l0.1,1.6l0.1-2.1l0.2,4.1l0.1-3l0.1,0.9l0.1-1.7l0.1,4.2l0.1-4.1l0.1,3l0.1-1.9l0.1,3.3l0.2-3.6l0.2,2.7l0.2-3.3l0.2,3.1
		l0.1-0.1l0.1-3.6l0.2,5.1l0.1-4.2l0.1,0.4l0.1,3.1l0.1-4.6l0.2,2.6l0.1,0.6l0.1-2.8l0.1,3.5l0.1-0.2l0.1,0.9l0.1-3.4l0.1,0.9
		l0.1-0.1l0.1,2.1l0.2-2.9l0.1,2.2l0.1-2.4l0.1,2.4l0.1-2.2l0.1,3.9l0.2-5.1l0.1,3.8l0.1-0.9l0.1,2l0.1-4.4l0.2,4.1l0.1-4.5l0.2,3.6
		l0.1-0.4l0.1,0.4l0.2-3.5l0.1,0.4l0.1,2.1l0.1-2l0.2,3.1l0.1-3.9l0.1,3.7l0.1-0.1l0.1-74.5l0.1,15.7l0.2-14.7l0.2,17.1l0.1-6.8
		l0.1,4.8l0.2-12.4l0.2,6.6l0.2-15.9l0.1-5.7l0.1,11.4l0.1-10.7l0.2,11l0.1-1.4l0.1-5.5l0.1,8.2l0.1-14.4l0.1,4.6l0.1-7.4l0.1,18.7
		l0.1-6.3l0.1,6.8l0.1-5.3l0.1-12.6l0.1,17.7l0.1-8.5l0.1,6.8l0.2-15.4l0.1,4.1l0.1-2.4l0.1,8.3l0.1-12.8l0.2,11.2l0.1-0.1l0.1-10.6
		l0.1,7.4l0.1-2.8l0.2,10.4l0.1-10.9l0.1,2.5l0.1,2.3l0.1-2.6l0.1,8.9l0.2-15.9l0.1,1.2l0.1,12.3l0.1-1.8l0.1-8.7l0.2,5.6l0.1-8.2
		l0.2,19l0.1-0.6l0.1,1.3l0.1-19.5l0.1,10.9l0.1-1.3l0.1-8.1l0.2,11.8l0.1-11.6l0.2,16.8l0.2-4.6l0.1-0.3l0.1-8.4l0.1,9.7l0.1-9.9
		l0.1,12.6l0.1-1.2l0.2-16.7l0.1,1.3l0.1-2.4l0.1,6.9l0.1-0.5l0.2,1.1l0.1,10.2l0.1-8.5l0.1,3.4l0.2-3l0.1,8.5l0.1-5l0.1,6.4
		l0.1-19.7l0.1,18.5l0.1-3l0.1-13.6l0.2,16.3l0.1-5.4l0.1,65.4l0.1-0.7l0.1,1.3l0.2-6.5l0.2,5.2l0.1-1.2l0.1-4.3l0.1,6.5l0.1-6.6
		l0.1,16.1l0.1-2.1l0.1,3.1l0.1-0.1l0.2-2.7l0.1,3.3l0.1-4.5l0.2,5.5l0.2-3.9l0.2,4.4l0.1,2.1l0.1-3.2l0.1,1.7l0.2-1.1l0.1,2.3
		l0.1-2.3l0.1,0.3l0.1-1.6l0.1,0.4l0.1,3l0.1-0.1l0.1-0.2l0.1,0.4l0.2-4.4l0.2,3.2l0.1,0.5l0.2-3.5l0.2,3.8l0.1-2.6l0.1,3.4l0.2-3.7
		l0.1,3.7l0.2-4.6l0.1,0.3l0.2,3.7l0.1-1.8l0.2,2l0.2-2.5l0.1,3.2l0.1-1.4l0.1,1.7l0.1-3.9l0.1,0.6l0.1,3.1l0.1-4.9l0,0"/>
	<use xlink:href="#SVGID_1_"  style="overflow:visible;fill:none;stroke:#FFFFFF;stroke-miterlimit:10;"/>
</g>
<path id="m1db8ba08cb" class="st2" d="M53.9,255.2v3.5"/>
<path id="mbf5451650f" class="st3" d="M77.8,255.2v2"/>
<path id="mbf5451650f_00000054237821662990795290000010895355797087284398_" class="st3" d="M101.8,255.2v2"/>
<path id="mbf5451650f_00000064352865361528595280000000046096587139986587_" class="st3" d="M125.7,255.2v2"/>
<path id="mbf5451650f_00000062151146415308606440000016162680296225204390_" class="st3" d="M149.6,255.2v2"/>
<path id="mbf5451650f_00000010295283973670323860000016700474964968715906_" class="st3" d="M173.5,255.2v2"/>
<path id="mbf5451650f_00000132803254151443118510000002572608993401770122_" class="st3" d="M197.4,255.2v2"/>
<path id="mbf5451650f_00000099642375931392379330000008707831325029585024_" class="st3" d="M221.4,255.2v2"/>
<path id="mbf5451650f_00000042003540699267148530000003864586602810381200_" class="st3" d="M245.3,255.2v2"/>
<path id="mbf5451650f_00000128444639741795921750000008346584879056027574_" class="st3" d="M269.2,255.2v2"/>
<path id="mbf5451650f_00000068657632126580816350000001337438143272448156_" class="st3" d="M293.1,255.2v2"/>
<path id="mbf5451650f_00000085230125536783664830000007603081009194936462_" class="st3" d="M317,255.2v2"/>
<path id="mbf5451650f_00000006692195390082432970000004640843463617589435_" class="st3" d="M341,255.2v2"/>
<path id="mbf5451650f_00000168085883044024489270000007264842399323309753_" class="st3" d="M364.9,255.2v2"/>
<path id="m790d5a7fa4" class="st2" d="M53.9,242.6h-3.5"/>
<path id="m790d5a7fa4_00000023996447597365804430000013155154632290116789_" class="st2" d="M53.9,214.4h-3.5"/>
<path id="m790d5a7fa4_00000163035761443810738920000016862131034981623432_" class="st2" d="M53.9,186.1h-3.5"/>
<path id="m790d5a7fa4_00000041253614581477615030000007434578805602049431_" class="st2" d="M53.9,157.9h-3.5"/>
<path id="m790d5a7fa4_00000034788454368088687390000015517167672475696051_" class="st2" d="M53.9,129.6h-3.5"/>
<path id="m790d5a7fa4_00000080916461783038617840000001601347223580387747_" class="st2" d="M53.9,101.4h-3.5"/>
<path id="m790d5a7fa4_00000105401281839618999470000015257800240633396395_" class="st2" d="M53.9,73.1h-3.5"/>
<path id="m790d5a7fa4_00000172405994379523110450000011055775329172751240_" class="st2" d="M53.9,44.9h-3.5"/>
<path class="st4" d="M53.9,255.2V37.7"/>
<path class="st4" d="M388.7,255.2V37.7"/>
<path class="st4" d="M53.9,37.7h334.8"/>
<text transform="matrix(1 0 0 1 28.7133 48.8186)" class="st5 st6 st7">160</text>
<text transform="matrix(1 0 0 1 28.6954 76.4362)" class="st5 st6 st7">140</text>
<text transform="matrix(1 0 0 1 29.6834 104.242)" class="st5 st6 st7">120</text>
<text transform="matrix(1 0 0 1 29.6534 133.0991)" class="st5 st6 st7">100</text>
<text transform="matrix(1 0 0 1 35.7736 161.8992)" class="st5 st6 st7">80</text>
<text transform="matrix(1 0 0 1 35.8635 189.9975)" class="st5 st6 st7">60</text>
<text transform="matrix(1 0 0 1 35.7736 218.0548)" class="st5 st6 st7">40</text>
<text transform="matrix(1 0 0 1 35.7072 246.627)" class="st5 st6 st7">20</text>
<text transform="matrix(1 0 0 1 47.5517 268.1647)" class="st5 st6 st7">01</text>
<text transform="matrix(1 0 0 1 71.1767 268.1642)" class="st5 st6 st7">02</text>
<text transform="matrix(1 0 0 1 95.1156 268.1642)" class="st5 st6 st7">03</text>
<text transform="matrix(1 0 0 1 119.0859 268.164)" class="st5 st6 st7">04</text>
<text transform="matrix(1 0 0 1 142.7358 268.1642)" class="st5 st6 st7">05</text>
<text transform="matrix(1 0 0 1 166.4173 268.1642)" class="st5 st6 st7">06</text>
<text transform="matrix(1 0 0 1 192.6695 268.1648)" class="st5 st6 st7">07</text>
<text transform="matrix(1 0 0 1 214.8726 268.1642)" class="st5 st6 st7">08</text>
<text transform="matrix(1 0 0 1 239.7703 268.1645)" class="st5 st6 st7">09</text>
<text transform="matrix(1 0 0 1 262.1525 268.1649)" class="st5 st6 st7">10</text>
<text transform="matrix(1 0 0 1 286.6262 268.1648)" class="st5 st6 st7">11</text>
<text transform="matrix(1 0 0 1 310.6515 268.1646)" class="st5 st6 st7">12</text>
<text transform="matrix(1 0 0 1 333.6913 268.3089)" class="st5 st6 st7">13</text>
<text transform="matrix(1 0 0 1 358.4427 268.1643)" class="st5 st6 st7">14</text>
<text transform="matrix(1 0 0 1 186.0196 284.8209)" class="st5 st8 st7">April 2014</text>
<text transform="matrix(1 0 0 1 189.0196 304.8209)" class="st5 st8 st7">TIMESTAMP</text>
</svg>
